<svg width="64" height="64" viewBox="0 0 64 64" fill="none" xmlns="http://www.w3.org/2000/svg">
<mask id="mask0" mask-type="alpha" maskUnits="userSpaceOnUse" x="7" y="4" width="50" height="56">
<path fill-rule="evenodd" clip-rule="evenodd" d="M56.0009 4.96875L18.0811 18.4365V25.9079L7.99902 29.4887V59.0308L45.9189 45.5631V38.0917L56.0009 34.5109V4.96875Z" fill="#ADD5E5"/>
</mask>
<g mask="url(#mask0)">
<path fill-rule="evenodd" clip-rule="evenodd" d="M56.0009 4.96875L18.0811 18.4365V25.9079L7.99902 29.4887V59.0308L45.9189 45.5631V38.0917L56.0009 34.5109V4.96875Z" fill="#19D992"/>
<path fill-rule="evenodd" clip-rule="evenodd" d="M56.1865 28.6162L56.1865 28.0903C52.9681 28.0206 50.3807 25.4132 50.3807 22.2069C50.3807 19.0007 52.9681 16.3933 56.1865 16.3236L56.1865 15.7975C52.9681 15.7279 50.3807 13.1205 50.3807 9.91422C50.3807 6.70796 52.9681 4.10059 56.1865 4.0309L56.1865 3.50484C52.9681 3.43515 50.3807 0.82778 50.3807 -2.37848C50.3807 -5.58475 52.9681 -8.19212 56.1865 -8.26181L56.1865 -8.78771C52.9681 -8.8574 50.3807 -11.4648 50.3807 -14.671C50.3807 -17.8773 52.9681 -20.4847 56.1865 -20.5544L56.1865 -21.0803C53.0119 -21.149 50.4512 -23.6868 50.3821 -26.833L49.8509 -26.833C49.7808 -23.6433 47.1497 -21.0789 43.9143 -21.0789C40.6788 -21.0789 38.0477 -23.6433 37.9776 -26.833L37.4472 -26.833C37.3771 -23.6433 34.746 -21.0789 31.5106 -21.0789C28.2751 -21.0789 25.644 -23.6433 25.5739 -26.833L25.0427 -26.833C24.9726 -23.6433 22.3415 -21.0789 19.1061 -21.0789C15.8706 -21.0789 13.2395 -23.6433 13.1694 -26.833L12.6382 -26.833C12.5681 -23.6433 9.93702 -21.0789 6.70157 -21.0789C3.46612 -21.0789 0.835037 -23.6433 0.764927 -26.833L0.235867 -26.833C0.170887 -23.8768 -2.09388 -21.4577 -5.0008 -21.1194L-4.79192 -20.4873C-1.94383 -20.0538 0.237304 -17.6148 0.237304 -14.671C0.237304 -13.0488 -0.425072 -11.5798 -1.49642 -10.5153L0.853476 -3.40473C1.3434 -6.16554 3.7753 -8.26324 6.70157 -8.26324C9.98108 -8.26324 12.6396 -5.62854 12.6396 -2.37848C12.6396 0.871576 9.98108 3.50627 6.70157 3.50627C5.10998 3.50627 3.66463 2.88572 2.59845 1.87543L3.59696 4.89687C4.5003 4.34673 5.56355 4.02947 6.70157 4.02947C9.98108 4.02947 12.6396 6.66416 12.6396 9.91422C12.6396 13.0002 10.2428 15.5314 7.19329 15.7791L7.38553 16.3608C10.3429 16.6969 12.6397 19.1861 12.6397 22.2069C12.6397 23.9101 11.9095 25.4443 10.7425 26.5189L13.1946 33.9387C13.4796 30.9517 16.0174 28.6147 19.1061 28.6147C22.3856 28.6147 25.0441 31.2494 25.0441 34.4995C25.0441 35.1582 24.9349 35.7916 24.7335 36.3829L25.8745 36.3573C25.6786 35.7733 25.5725 35.1487 25.5725 34.4995C25.5725 31.2494 28.2311 28.6147 31.5106 28.6147C34.7901 28.6147 37.4486 31.2494 37.4486 34.4995C37.4486 35.0551 37.3709 35.5927 37.2257 36.1022L38.1929 36.0805C38.0517 35.5774 37.9762 35.0472 37.9762 34.4995C37.9762 31.2494 40.6348 28.6147 43.9143 28.6147C47.1938 28.6147 49.8523 31.2494 49.8523 34.4995C49.8523 34.9542 49.8003 35.3968 49.7018 35.8219L50.5269 35.8033C50.4312 35.3839 50.3807 34.9476 50.3807 34.4995C50.3807 31.2932 52.9681 28.6859 56.1865 28.6162ZM43.9143 -8.78628C40.6348 -8.78628 37.9762 -11.421 37.9762 -14.671C37.9762 -17.9211 40.6348 -20.5558 43.9143 -20.5558C47.1938 -20.5558 49.8523 -17.9211 49.8523 -14.671C49.8523 -11.421 47.1938 -8.78628 43.9143 -8.78628ZM13.168 -14.671C13.168 -11.421 15.8266 -8.78628 19.1061 -8.78628C22.3856 -8.78628 25.0441 -11.421 25.0441 -14.671C25.0441 -17.9211 22.3856 -20.5558 19.1061 -20.5558C15.8266 -20.5558 13.168 -17.9211 13.168 -14.671ZM31.5106 -8.78628C28.231 -8.78628 25.5725 -11.421 25.5725 -14.671C25.5725 -17.9211 28.231 -20.5558 31.5106 -20.5558C34.7901 -20.5558 37.4486 -17.9211 37.4486 -14.671C37.4486 -11.421 34.7901 -8.78628 31.5106 -8.78628ZM0.763496 -14.671C0.763496 -11.421 3.42206 -8.78628 6.70157 -8.78628C9.98108 -8.78628 12.6396 -11.421 12.6396 -14.671C12.6396 -17.9211 9.98108 -20.5558 6.70157 -20.5558C3.42207 -20.5558 0.763496 -17.9211 0.763496 -14.671ZM43.9143 3.50627C40.6348 3.50627 37.9762 0.871576 37.9762 -2.37848C37.9762 -5.62854 40.6348 -8.26324 43.9143 -8.26324C47.1938 -8.26324 49.8523 -5.62854 49.8523 -2.37848C49.8523 0.871576 47.1938 3.50627 43.9143 3.50627ZM13.168 -2.37848C13.168 0.871576 15.8266 3.50627 19.1061 3.50627C22.3856 3.50627 25.0441 0.871577 25.0441 -2.37848C25.0441 -5.62855 22.3856 -8.26324 19.1061 -8.26324C15.8266 -8.26324 13.168 -5.62855 13.168 -2.37848ZM31.5106 3.50627C28.2311 3.50627 25.5725 0.871577 25.5725 -2.37848C25.5725 -5.62854 28.2311 -8.26324 31.5106 -8.26324C34.7901 -8.26324 37.4486 -5.62854 37.4486 -2.37848C37.4486 0.871577 34.7901 3.50627 31.5106 3.50627ZM43.9143 15.799C40.6348 15.799 37.9762 13.1643 37.9762 9.91422C37.9762 6.66416 40.6348 4.02947 43.9143 4.02947C47.1938 4.02947 49.8523 6.66416 49.8523 9.91422C49.8523 13.1643 47.1938 15.799 43.9143 15.799ZM13.168 9.91422C13.168 13.1643 15.8266 15.799 19.1061 15.799C22.3856 15.799 25.0441 13.1643 25.0441 9.91423C25.0441 6.66416 22.3856 4.02947 19.1061 4.02947C15.8266 4.02947 13.168 6.66416 13.168 9.91422ZM31.5106 15.799C28.231 15.799 25.5725 13.1643 25.5725 9.91423C25.5725 6.66416 28.231 4.02947 31.5106 4.02947C34.7901 4.02947 37.4486 6.66416 37.4486 9.91423C37.4486 13.1643 34.7901 15.799 31.5106 15.799ZM43.9143 28.0917C40.6348 28.0917 37.9762 25.457 37.9762 22.2069C37.9762 18.9569 40.6348 16.3222 43.9143 16.3222C47.1938 16.3222 49.8523 18.9569 49.8523 22.2069C49.8523 25.457 47.1938 28.0917 43.9143 28.0917ZM13.168 22.2069C13.168 25.457 15.8266 28.0917 19.1061 28.0917C22.3856 28.0917 25.0441 25.457 25.0441 22.2069C25.0441 18.9569 22.3856 16.3222 19.1061 16.3222C15.8266 16.3222 13.168 18.9569 13.168 22.2069ZM31.5106 28.0917C28.231 28.0917 25.5725 25.457 25.5725 22.2069C25.5725 18.9569 28.231 16.3222 31.5106 16.3222C34.7901 16.3222 37.4486 18.9569 37.4486 22.2069C37.4486 25.457 34.7901 28.0917 31.5106 28.0917Z" fill="#E1FC31"/>
<path fill-rule="evenodd" clip-rule="evenodd" d="M26.3672 58.7953L26.3672 58.4827C24.4547 58.4408 22.9173 56.8913 22.9173 54.9859C22.9173 53.0805 24.4547 51.5309 26.3672 51.489L26.3672 51.1765C24.4547 51.1345 22.9173 49.585 22.9173 47.6796C22.9173 45.7742 24.4547 44.2247 26.3672 44.1827L26.3672 43.87C24.4547 43.8281 22.9173 42.2785 22.9173 40.3731C22.9173 38.4677 24.4547 36.9182 26.3672 36.8763L26.3672 36.5636C24.4547 36.5216 22.9173 34.9721 22.9173 33.0667C22.9173 31.1613 24.4547 29.6118 26.3672 29.5698L26.3672 29.2572C24.4808 29.2157 22.9594 27.7075 22.9184 25.8379L22.6025 25.8379C22.5608 27.7338 20.9969 29.2579 19.0739 29.2579C17.1509 29.2579 15.587 27.7338 15.5453 25.8379L15.2296 25.8379C15.1879 27.7338 13.6241 29.2579 11.701 29.2579C9.778 29.2579 8.21417 27.7338 8.17247 25.8379L7.85677 25.8379C7.81507 27.7338 6.25124 29.2579 4.32819 29.2579C2.40515 29.2579 0.841314 27.7338 0.799618 25.8379L0.48489 25.8379C0.443193 27.7338 -1.12064 29.2579 -3.04368 29.2579C-4.96673 29.2579 -6.53056 27.7338 -6.57225 25.8379L-6.88796 25.8379C-6.92661 27.5951 -8.27291 29.033 -10.0009 29.2339L-9.87671 29.6096C-8.1837 29.8671 -6.8871 31.3169 -6.8871 33.0667C-6.8871 34.0311 -7.28091 34.9043 -7.91785 35.537L-6.52018 39.7662C-6.23025 38.1238 -4.78407 36.8754 -3.04368 36.8754C-1.09443 36.8754 0.485746 38.4414 0.485746 40.3731C0.485746 42.3049 -1.09443 43.8709 -3.04368 43.8709C-3.99082 43.8709 -4.85083 43.5011 -5.48476 42.8994L-4.89027 44.6982C-4.35308 44.3707 -3.72064 44.1819 -3.04368 44.1819C-1.09443 44.1819 0.485747 45.7479 0.485747 47.6796C0.485747 49.5143 -0.939698 51.0191 -2.75294 51.1656L-2.63884 51.5109C-0.880254 51.7099 0.485747 53.1898 0.485747 54.9859C0.485747 55.9988 0.0512682 56.9112 -0.643075 57.5499L0.814444 61.9603C0.983113 60.1842 2.49188 58.7944 4.32819 58.7944C6.27744 58.7944 7.85762 60.3604 7.85762 62.2921C7.85762 62.6837 7.79271 63.0602 7.67296 63.4117L8.35113 63.3964C8.23467 63.0493 8.17162 62.678 8.17162 62.2921C8.17162 60.3604 9.7518 58.7944 11.701 58.7944C13.6503 58.7944 15.2305 60.3604 15.2305 62.2921C15.2305 62.6224 15.1843 62.942 15.098 63.2448L15.6733 63.2319C15.5894 62.9329 15.5445 62.6177 15.5445 62.2921C15.5445 60.3604 17.1246 58.7944 19.0739 58.7944C21.0231 58.7944 22.6033 60.3604 22.6033 62.2921C22.6033 62.5624 22.5724 62.8255 22.5138 63.0782L23.0043 63.0672C22.9474 62.8179 22.9173 62.5585 22.9173 62.2921C22.9173 60.3868 24.4547 58.8372 26.3672 58.7953ZM19.0739 36.5644C17.1246 36.5644 15.5445 34.9984 15.5445 33.0667C15.5445 31.1349 17.1246 29.569 19.0739 29.569C21.0231 29.569 22.6033 31.1349 22.6033 33.0667C22.6033 34.9984 21.0231 36.5644 19.0739 36.5644ZM0.798765 33.0667C0.798765 34.9984 2.37894 36.5644 4.32819 36.5644C6.27744 36.5644 7.85762 34.9984 7.85762 33.0667C7.85762 31.1349 6.27744 29.569 4.32819 29.569C2.37894 29.569 0.798765 31.1349 0.798765 33.0667ZM11.701 36.5644C9.7518 36.5644 8.17162 34.9984 8.17162 33.0667C8.17162 31.1349 9.7518 29.569 11.701 29.569C13.6503 29.569 15.2305 31.1349 15.2305 33.0667C15.2305 34.9984 13.6503 36.5644 11.701 36.5644ZM-6.57311 33.0667C-6.57311 34.9984 -4.99293 36.5644 -3.04368 36.5644C-1.09443 36.5644 0.48575 34.9984 0.48575 33.0667C0.48575 31.1349 -1.09443 29.569 -3.04368 29.569C-4.99293 29.569 -6.57311 31.1349 -6.57311 33.0667ZM19.0739 43.8709C17.1246 43.8709 15.5445 42.3049 15.5445 40.3731C15.5445 38.4414 17.1246 36.8754 19.0739 36.8754C21.0231 36.8754 22.6033 38.4414 22.6033 40.3731C22.6033 42.3049 21.0231 43.8709 19.0739 43.8709ZM0.798765 40.3731C0.798764 42.3049 2.37894 43.8709 4.32819 43.8709C6.27744 43.8709 7.85762 42.3049 7.85762 40.3731C7.85762 38.4414 6.27744 36.8754 4.32819 36.8754C2.37894 36.8754 0.798765 38.4414 0.798765 40.3731ZM11.701 43.8709C9.7518 43.8709 8.17162 42.3049 8.17162 40.3731C8.17162 38.4414 9.7518 36.8754 11.701 36.8754C13.6503 36.8754 15.2305 38.4414 15.2305 40.3731C15.2305 42.3049 13.6503 43.8709 11.701 43.8709ZM19.0739 51.1771C17.1246 51.1771 15.5445 49.6111 15.5445 47.6794C15.5445 45.7476 17.1246 44.1816 19.0739 44.1816C21.0231 44.1816 22.6033 45.7476 22.6033 47.6794C22.6033 49.6111 21.0231 51.1771 19.0739 51.1771ZM0.798766 47.6794C0.798766 49.6111 2.37895 51.1771 4.32819 51.1771C6.27744 51.1771 7.85762 49.6111 7.85762 47.6794C7.85762 45.7476 6.27744 44.1816 4.32819 44.1816C2.37895 44.1816 0.798766 45.7476 0.798766 47.6794ZM11.701 51.1771C9.7518 51.1771 8.17162 49.6111 8.17162 47.6794C8.17162 45.7476 9.7518 44.1816 11.701 44.1816C13.6503 44.1816 15.2305 45.7476 15.2305 47.6794C15.2305 49.6111 13.6503 51.1771 11.701 51.1771ZM19.0739 58.4836C17.1246 58.4836 15.5445 56.9176 15.5445 54.9859C15.5445 53.0541 17.1246 51.4881 19.0739 51.4881C21.0231 51.4881 22.6033 53.0541 22.6033 54.9859C22.6033 56.9176 21.0231 58.4836 19.0739 58.4836ZM0.798766 54.9859C0.798766 56.9176 2.37894 58.4836 4.32819 58.4836C6.27744 58.4836 7.85762 56.9176 7.85762 54.9859C7.85762 53.0541 6.27744 51.4882 4.32819 51.4882C2.37895 51.4882 0.798766 53.0541 0.798766 54.9859ZM11.701 58.4836C9.7518 58.4836 8.17162 56.9176 8.17162 54.9859C8.17162 53.0541 9.7518 51.4881 11.701 51.4881C13.6503 51.4881 15.2305 53.0541 15.2305 54.9859C15.2305 56.9176 13.6503 58.4836 11.701 58.4836Z" fill="#6038D0"/>
</g>
</svg>
