<svg width="81" height="80" viewBox="0 0 81 80" fill="none" xmlns="http://www.w3.org/2000/svg">
<path fill-rule="evenodd" clip-rule="evenodd" d="M40.4257 21C32.1824 21 25.5 27.6825 25.5 35.9257V53.3919H55.3513V35.9257C55.3513 27.6824 48.6689 21 40.4257 21ZM45.5 34C45.5 35.6356 44.7147 37.0878 43.5005 38C44.7147 38.9122 45.5 40.3644 45.5 42V48H35.5V42C35.5 40.3644 36.2853 38.9122 37.4995 38C36.2853 37.0878 35.5 35.6356 35.5 34C35.5 31.2386 37.7386 29 40.5 29C43.2614 29 45.5 31.2386 45.5 34Z" fill="white"/>
</svg>
