<svg width="81" height="80" viewBox="0 0 81 80" fill="none" xmlns="http://www.w3.org/2000/svg">
<path fill-rule="evenodd" clip-rule="evenodd" d="M61.1573 52C67.9741 52 73.5002 46.6274 73.5002 40C73.5002 33.3726 67.9741 28 61.1573 28C54.3405 28 48.8145 33.3726 48.8145 40C48.8145 46.6274 54.3405 52 61.1573 52ZM62.0969 46.3896H60.9475L60.9573 45.2597C58.8923 45.0795 57.6017 43.9788 57.553 42.0113H59.5936C59.6472 42.8246 60.1829 43.3116 60.9767 43.4626L61.0011 40.8863L60.5336 40.7694C58.8485 40.3652 57.8112 39.5227 57.816 38.0519C57.8063 36.3912 59.1504 35.2418 61.0547 35.0568L61.0644 33.922H62.2137L62.204 35.0665C64.079 35.2711 65.2819 36.4253 65.3063 38.0373H63.2852C63.2267 37.4236 62.8323 37.0097 62.1845 36.8587L62.165 39.2938L62.4524 39.362C64.1862 39.7516 65.4378 40.6331 65.4426 42.2938C65.4378 43.9837 64.2154 45.1038 62.1066 45.2646L62.0969 46.3896ZM62.1456 41.1883L62.1261 43.4626C62.8615 43.3165 63.3095 42.8782 63.3144 42.2889C63.3095 41.7337 62.9004 41.4269 62.1456 41.1883ZM59.9784 37.9107C59.9686 38.4707 60.4069 38.7873 61.0157 38.9967L61.0352 36.8441C60.3485 36.9853 59.9784 37.3896 59.9784 37.9107Z" fill="white"/>
<path fill-rule="evenodd" clip-rule="evenodd" d="M39.8429 52C46.6596 52 52.1857 46.6274 52.1857 40C52.1857 33.3726 46.6596 28 39.8429 28C33.0261 28 27.5 33.3726 27.5 40C27.5 46.6274 33.0261 52 39.8429 52ZM40.7824 46.3896H39.6331L39.6428 45.2597C37.5779 45.0795 36.2873 43.9788 36.2386 42.0113H38.2792C38.3327 42.8246 38.8685 43.3116 39.6623 43.4626L39.6866 40.8863L39.2191 40.7694C37.534 40.3652 36.4967 39.5227 36.5016 38.0519C36.4918 36.3912 37.836 35.2418 39.7402 35.0568L39.7499 33.922H40.8993L40.8896 35.0665C42.7646 35.2711 43.9675 36.4253 43.9918 38.0373H41.9707C41.9123 37.4236 41.5178 37.0097 40.8701 36.8587L40.8506 39.2938L41.1379 39.362C42.8717 39.7516 44.1233 40.6331 44.1282 42.2938C44.1233 43.9837 42.9009 45.1038 40.7922 45.2646L40.7824 46.3896ZM40.8311 41.1883L40.8116 43.4626C41.547 43.3165 41.9951 42.8782 41.9999 42.2889C41.9951 41.7337 41.586 41.4269 40.8311 41.1883ZM38.6639 37.9107C38.6542 38.4707 39.0925 38.7873 39.7012 38.9967L39.7207 36.8441C39.034 36.9853 38.6639 37.3896 38.6639 37.9107Z" fill="white"/>
<path fill-rule="evenodd" clip-rule="evenodd" d="M18.8429 52C25.6596 52 31.1857 46.6274 31.1857 40C31.1857 33.3726 25.6596 28 18.8429 28C12.0261 28 6.5 33.3726 6.5 40C6.5 46.6274 12.0261 52 18.8429 52ZM19.7824 46.3896H18.6331L18.6428 45.2597C16.5779 45.0795 15.2873 43.9788 15.2386 42.0113H17.2792C17.3327 42.8246 17.8685 43.3116 18.6623 43.4626L18.6866 40.8863L18.2191 40.7694C16.534 40.3652 15.4967 39.5227 15.5016 38.0519C15.4918 36.3912 16.836 35.2418 18.7402 35.0568L18.7499 33.922H19.8993L19.8896 35.0665C21.7646 35.2711 22.9675 36.4253 22.9918 38.0373H20.9707C20.9123 37.4236 20.5178 37.0097 19.8701 36.8587L19.8506 39.2938L20.1379 39.362C21.8717 39.7516 23.1233 40.6331 23.1282 42.2938C23.1233 43.9837 21.9009 45.1038 19.7922 45.2646L19.7824 46.3896ZM19.8311 41.1883L19.8116 43.4626C20.547 43.3165 20.9951 42.8782 20.9999 42.2889C20.9951 41.7337 20.586 41.4269 19.8311 41.1883ZM17.6639 37.9107C17.6542 38.4707 18.0925 38.7873 18.7012 38.9967L18.7207 36.8441C18.034 36.9853 17.6639 37.3896 17.6639 37.9107Z" fill="white"/>
</svg>
