<svg width="360" height="264" viewBox="0 0 360 264" fill="none" xmlns="http://www.w3.org/2000/svg">
<circle cx="183.386" cy="134.35" r="12.3412" fill="#201F1F"/>
<path d="M296.649 177.279C296.569 178.609 296.349 179.896 295.983 181.136L295.263 180.923C295.086 181.522 294.874 182.11 294.625 182.685C294.376 183.259 294.094 183.816 293.778 184.356L294.426 184.735C293.773 185.85 292.986 186.891 292.071 187.86L291.526 187.345C290.688 188.233 289.735 189.06 288.67 189.827L289.109 190.435C288.087 191.171 286.97 191.849 285.763 192.471L285.419 191.804C284.323 192.369 283.146 192.888 281.892 193.36L282.156 194.061C280.979 194.505 279.738 194.906 278.436 195.266L278.236 194.544C277.034 194.876 275.779 195.173 274.471 195.435L274.618 196.171C273.371 196.421 272.079 196.638 270.744 196.824L270.64 196.081C269.39 196.255 268.1 196.401 266.772 196.519L266.839 197.266C265.565 197.379 264.258 197.466 262.919 197.528L262.885 196.779C261.614 196.837 260.315 196.873 258.987 196.885L258.994 197.635C257.71 197.646 256.401 197.637 255.067 197.605L255.085 196.855C253.807 196.826 252.506 196.776 251.183 196.706L251.143 197.455C249.857 197.388 248.55 197.301 247.223 197.197L247.282 196.449C246.001 196.348 244.701 196.229 243.383 196.094L243.306 196.84C242.018 196.707 240.714 196.558 239.394 196.392L239.487 195.648C238.211 195.488 236.92 195.312 235.615 195.122L235.507 195.864C234.229 195.677 232.938 195.475 231.634 195.259L231.756 194.519C230.483 194.309 229.198 194.084 227.901 193.845L227.765 194.582C226.488 194.347 225.199 194.099 223.9 193.837L224.048 193.101C222.78 192.846 221.503 192.577 220.215 192.296L220.055 193.029C218.79 192.752 217.516 192.464 216.232 192.163L216.404 191.433C215.142 191.137 213.872 190.829 212.594 190.51L212.413 191.238C211.148 190.921 209.876 190.594 208.596 190.255L208.788 189.53C207.54 189.198 206.284 188.856 205.021 188.503L204.819 189.226C203.567 188.875 202.308 188.515 201.044 188.143L201.255 187.423C200.006 187.056 198.752 186.679 197.491 186.291L197.271 187.008C196.031 186.626 194.785 186.234 193.535 185.832L193.764 185.118C192.528 184.72 191.286 184.313 190.041 183.895L189.802 184.606C188.565 184.192 187.322 183.767 186.076 183.333L186.323 182.625C185.099 182.198 183.871 181.763 182.639 181.318L182.384 182.023C181.158 181.58 179.928 181.127 178.695 180.665L178.958 179.963C177.739 179.506 176.518 179.041 175.293 178.566L175.022 179.266C173.808 178.795 172.592 178.316 171.373 177.828L171.651 177.132C170.441 176.647 169.229 176.154 168.014 175.652L167.728 176.345C166.524 175.847 165.318 175.341 164.111 174.827L164.405 174.137C163.802 173.88 163.199 173.621 162.596 173.36C161.993 173.099 161.392 172.837 160.792 172.574L160.49 173.261C159.289 172.733 158.094 172.201 156.908 171.664L157.217 170.98C156.019 170.439 154.829 169.893 153.648 169.342L153.331 170.022C152.141 169.468 150.958 168.909 149.784 168.347L150.109 167.67C148.924 167.103 147.749 166.531 146.582 165.955L146.25 166.628C145.069 166.045 143.897 165.459 142.734 164.868L143.074 164.2C141.906 163.607 140.748 163.01 139.599 162.41L139.251 163.075C138.082 162.464 136.922 161.849 135.772 161.23L136.128 160.57C134.97 159.948 133.824 159.322 132.687 158.693L132.324 159.349C131.175 158.713 130.036 158.073 128.909 157.431L129.28 156.779C128.135 156.127 127 155.47 125.878 154.812L125.498 155.458C124.362 154.791 123.237 154.121 122.124 153.448L122.512 152.806C121.391 152.128 120.281 151.446 119.185 150.763L118.788 151.399C117.665 150.699 116.555 149.996 115.459 149.291L115.865 148.66C114.757 147.947 113.663 147.232 112.584 146.516L112.169 147.14C111.071 146.411 109.988 145.68 108.921 144.947L109.345 144.329C108.259 143.583 107.188 142.835 106.134 142.086L105.7 142.698C104.619 141.93 103.556 141.161 102.51 140.391L102.954 139.787C101.892 139.005 100.848 138.222 99.8228 137.439L99.3674 138.035C98.3171 137.232 97.2862 136.429 96.2753 135.626L96.7419 135.038C95.7093 134.218 94.6976 133.397 93.7074 132.577L93.229 133.154C92.2043 132.305 91.2025 131.457 90.2241 130.609L90.7152 130.042C89.7141 129.175 88.7378 128.309 87.7868 127.444L87.2823 127.999C86.2976 127.104 85.3398 126.21 84.4095 125.318L84.9285 124.777C83.9719 123.86 83.0448 122.946 82.148 122.035L81.6135 122.561C80.6776 121.61 79.7742 120.663 78.904 119.72L79.4553 119.211C78.5549 118.235 77.6908 117.263 76.8638 116.298L76.2941 116.785C75.4223 115.767 74.591 114.755 73.8013 113.749L74.3912 113.286C73.5683 112.238 72.7916 111.198 72.0622 110.167L71.45 110.6C70.6713 109.5 69.9453 108.409 69.2736 107.329L69.9105 106.933C69.2059 105.801 68.5628 104.682 67.9826 103.578L67.3188 103.927C66.6901 102.732 66.133 101.552 65.6498 100.391L66.3423 100.103C65.8278 98.8657 65.4 97.653 65.0608 96.467L64.3397 96.6732C63.9662 95.3674 63.6961 94.0888 63.5328 92.8408L64.2765 92.7435C64.1063 91.4426 64.0568 90.1815 64.1299 88.9632L63.3813 88.9183C63.4611 87.5883 63.6816 86.3014 64.0476 85.0622L64.7669 85.2747C64.9438 84.6755 65.1564 84.0882 65.4051 83.5132C65.6539 82.9383 65.9364 82.3813 66.252 81.8421L65.6047 81.4633C66.2573 80.3481 67.0443 79.3063 67.959 78.3375L68.5043 78.8524C69.3422 77.965 70.2953 77.1377 71.36 76.371L70.9217 75.7624C71.9432 75.0269 73.0599 74.3484 74.2674 73.7266L74.6108 74.3933C75.7076 73.8285 76.8843 73.31 78.1381 72.8382L77.8739 72.1363C79.0514 71.6932 80.2926 71.2916 81.5944 70.9313L81.7944 71.6541C82.9959 71.3216 84.2517 71.0243 85.5597 70.7623L85.4124 70.0269C86.6593 69.7771 87.9514 69.5594 89.2867 69.3736L89.3901 70.1164C90.6406 69.9424 91.9304 69.7964 93.2578 69.6786L93.1915 68.9316C94.4652 68.8185 95.7722 68.7313 97.1112 68.6696L97.1457 69.4188C98.4159 69.3603 99.7155 69.3251 101.044 69.313L101.037 68.563C102.32 68.5514 103.629 68.5612 104.963 68.5925L104.945 69.3423C106.223 69.3722 107.524 69.422 108.847 69.4915L108.887 68.7426C110.174 68.8102 111.481 68.8964 112.807 69.0011L112.748 69.7488C114.03 69.8499 115.33 69.9684 116.647 70.1042L116.724 69.3582C118.012 69.4909 119.316 69.6401 120.636 69.8057L120.543 70.5499C121.819 70.71 123.11 70.8854 124.415 71.0762L124.523 70.3341C125.801 70.5209 127.092 70.7223 128.396 70.9384L128.274 71.6783C129.547 71.8892 130.832 72.1141 132.13 72.3529L132.265 71.6153C133.543 71.8505 134.831 72.0991 136.131 72.3611L135.982 73.0963C137.25 73.352 138.528 73.6204 139.815 73.9017L139.975 73.169C141.24 73.4453 142.515 73.7339 143.798 74.0347L143.627 74.7649C144.888 75.0607 146.158 75.3683 147.436 75.6879L147.618 74.9602C148.882 75.2764 150.154 75.604 151.434 75.9432L151.242 76.6682C152.491 76.9993 153.747 77.3413 155.009 77.6944L155.211 76.9721C156.463 77.3223 157.722 77.6832 158.987 78.0549L158.775 78.7745C160.024 79.1415 161.279 79.519 162.539 79.907L162.76 79.1902C164 79.5721 165.245 79.964 166.496 80.3661L166.266 81.0801C167.503 81.4777 168.744 81.8852 169.99 82.3025L170.228 81.5914C171.466 82.0061 172.708 82.4305 173.954 82.8646L173.707 83.5728C174.931 83.9992 176.159 84.4351 177.391 84.8802L177.646 84.1749C178.872 84.6182 180.102 85.0708 181.335 85.5326L181.072 86.2349C182.291 86.6914 183.513 87.1568 184.737 87.6313L185.008 86.932C186.222 87.4024 187.439 87.8817 188.658 88.3698L188.379 89.066C189.589 89.5506 190.802 90.0439 192.016 90.5459L192.303 89.8527C193.507 90.3503 194.712 90.8563 195.92 91.3709L195.626 92.0608C196.228 92.3176 196.831 92.5764 197.434 92.8374C198.037 93.0984 198.639 93.3605 199.238 93.6238L199.54 92.9371C200.742 93.4649 201.936 93.9972 203.123 94.534L202.814 95.2173C204.011 95.7589 205.201 96.3049 206.383 96.8552L206.699 96.1754C207.89 96.7297 209.072 97.2883 210.246 97.851L209.922 98.5274C211.106 99.095 212.282 99.6668 213.449 100.243L213.781 99.5699C214.961 100.152 216.133 100.739 217.296 101.329L216.956 101.998C218.124 102.591 219.283 103.188 220.432 103.788L220.779 103.123C221.948 103.734 223.108 104.349 224.258 104.967L223.903 105.628C225.06 106.25 226.207 106.876 227.343 107.505L227.706 106.849C228.856 107.485 229.994 108.124 231.121 108.767L230.75 109.418C231.896 110.071 233.03 110.727 234.152 111.386L234.532 110.739C235.669 111.407 236.794 112.077 237.906 112.75L237.518 113.392C238.64 114.07 239.749 114.751 240.845 115.435L241.242 114.798C242.365 115.499 243.475 116.202 244.571 116.907L244.166 117.538C245.274 118.25 246.367 118.965 247.446 119.682L247.861 119.057C248.959 119.787 250.042 120.518 251.109 121.251L250.685 121.869C251.772 122.615 252.842 123.363 253.896 124.111L254.331 123.5C255.411 124.268 256.475 125.037 257.521 125.807L257.076 126.411C258.138 127.193 259.182 127.975 260.208 128.759L260.663 128.163C261.713 128.966 262.744 129.769 263.755 130.572L263.288 131.159C264.321 131.98 265.333 132.801 266.323 133.621L266.801 133.043C267.826 133.892 268.828 134.741 269.806 135.589L269.315 136.156C270.316 137.023 271.293 137.889 272.243 138.754L272.748 138.199C273.733 139.094 274.69 139.988 275.621 140.879L275.102 141.421C276.058 142.338 276.985 143.252 277.882 144.163L278.417 143.637C279.353 144.587 280.256 145.535 281.126 146.478L280.575 146.987C281.475 147.963 282.34 148.934 283.167 149.9L283.736 149.412C284.608 150.43 285.439 151.443 286.229 152.449L285.639 152.912C286.462 153.96 287.239 155 287.968 156.031L288.58 155.597C289.359 156.698 290.085 157.789 290.757 158.868L290.12 159.265C290.824 160.397 291.467 161.516 292.048 162.619L292.712 162.27C293.34 163.466 293.897 164.646 294.38 165.807L293.688 166.095C294.203 167.332 294.63 168.545 294.97 169.731L295.691 169.525C296.064 170.83 296.334 172.109 296.497 173.357L295.754 173.454C295.924 174.755 295.974 176.016 295.9 177.235L296.649 177.279Z" stroke="#201F1F" stroke-width="1.5" stroke-dasharray="4 4"/>
<path d="M247.737 179.098C245.727 182.058 242.067 183.817 236.975 184.338C231.888 184.858 225.48 184.128 218.166 182.219C203.544 178.403 185.462 169.924 167.411 157.666C149.359 145.408 134.808 131.73 125.869 119.546C121.397 113.451 118.354 107.764 116.962 102.844C115.568 97.9186 115.853 93.8681 117.863 90.9081C119.873 87.9482 123.532 86.1892 128.625 85.6682C133.712 85.1476 140.119 85.8783 147.434 87.7869C162.056 91.6025 180.137 100.082 198.189 112.34C216.241 124.597 230.791 138.276 239.731 150.46C244.203 156.555 247.246 162.241 248.638 167.162C250.032 172.087 249.747 176.138 247.737 179.098Z" stroke="#201F1F" stroke-width="1.5"/>
<path d="M247.893 67.7814C251.316 71.205 252.835 76.3289 252.526 82.7995C252.217 89.2704 250.082 97.0041 246.301 105.508C238.74 122.512 224.669 142.447 205.861 161.255C187.053 180.063 167.118 194.135 150.114 201.695C141.61 205.476 133.876 207.612 127.405 207.921C120.934 208.229 115.811 206.711 112.387 203.287C108.963 199.864 107.445 194.74 107.754 188.269C108.062 181.798 110.198 174.065 113.979 165.56C121.54 148.556 135.611 128.621 154.419 109.813C173.227 91.0056 193.162 76.9339 210.166 69.3737C218.67 65.5925 226.404 63.4568 232.875 63.1481C239.345 62.8394 244.469 64.3578 247.893 67.7814Z" stroke="#201F1F" stroke-width="1.5"/>
<circle cx="212.182" cy="68.2144" r="5.06304" fill="#6038D0"/>
<circle cx="249.063" cy="168.063" r="5.06304" fill="#6038D0"/>
<circle cx="101.063" cy="68.063" r="5.06304" fill="#6038D0"/>
<circle cx="109.063" cy="178.063" r="5.06304" fill="#6038D0"/>
<rect x="239" y="123" width="100" height="24" rx="12" fill="#19D992"/>
<path d="M264.381 133.328C264.138 131.312 262.612 130.153 260.592 130.153C258.287 130.153 256.527 131.781 256.527 134.636C256.527 137.483 258.257 139.119 260.592 139.119C262.83 139.119 264.18 137.632 264.381 136.026L262.514 136.017C262.339 136.95 261.606 137.487 260.622 137.487C259.297 137.487 258.398 136.503 258.398 134.636C258.398 132.821 259.284 131.786 260.635 131.786C261.645 131.786 262.374 132.369 262.514 133.328H264.381ZM268.867 139.128C270.853 139.128 272.089 137.768 272.089 135.753C272.089 133.724 270.853 132.369 268.867 132.369C266.881 132.369 265.646 133.724 265.646 135.753C265.646 137.768 266.881 139.128 268.867 139.128ZM268.876 137.722C267.959 137.722 267.491 136.882 267.491 135.74C267.491 134.598 267.959 133.754 268.876 133.754C269.775 133.754 270.244 134.598 270.244 135.74C270.244 136.882 269.775 137.722 268.876 137.722ZM273.509 139H275.324V135.071C275.324 134.347 275.785 133.865 276.39 133.865C276.986 133.865 277.387 134.274 277.387 134.918V139H279.147V135.003C279.147 134.325 279.535 133.865 280.195 133.865C280.775 133.865 281.209 134.227 281.209 134.956V139H283.02V134.598C283.02 133.179 282.177 132.369 280.958 132.369C279.999 132.369 279.253 132.859 278.985 133.609H278.917C278.708 132.851 278.039 132.369 277.14 132.369C276.258 132.369 275.589 132.838 275.316 133.609H275.239V132.455H273.509V139ZM284.694 139H286.51V135.071C286.51 134.347 286.97 133.865 287.575 133.865C288.172 133.865 288.572 134.274 288.572 134.918V139H290.332V135.003C290.332 134.325 290.72 133.865 291.38 133.865C291.96 133.865 292.395 134.227 292.395 134.956V139H294.206V134.598C294.206 133.179 293.362 132.369 292.143 132.369C291.184 132.369 290.439 132.859 290.17 133.609H290.102C289.893 132.851 289.224 132.369 288.325 132.369C287.443 132.369 286.774 132.838 286.501 133.609H286.425V132.455H284.694V139ZM295.88 139H297.695V132.455H295.88V139ZM296.792 131.611C297.333 131.611 297.776 131.197 297.776 130.69C297.776 130.188 297.333 129.774 296.792 129.774C296.255 129.774 295.812 130.188 295.812 130.69C295.812 131.197 296.255 131.611 296.792 131.611ZM302.871 132.455H301.639V130.886H299.824V132.455H298.929V133.818H299.824V137.227C299.815 138.51 300.689 139.145 302.006 139.089C302.474 139.072 302.807 138.979 302.99 138.919L302.705 137.568C302.615 137.585 302.423 137.628 302.253 137.628C301.891 137.628 301.639 137.491 301.639 136.989V133.818H302.871V132.455ZM307.775 132.455H306.543V130.886H304.728V132.455H303.833V133.818H304.728V137.227C304.719 138.51 305.593 139.145 306.91 139.089C307.379 139.072 307.711 138.979 307.894 138.919L307.609 137.568C307.519 137.585 307.327 137.628 307.157 137.628C306.795 137.628 306.543 137.491 306.543 136.989V133.818H307.775V132.455ZM312.11 139.128C313.729 139.128 314.82 138.339 315.076 137.125L313.397 137.014C313.214 137.513 312.745 137.773 312.14 137.773C311.232 137.773 310.657 137.172 310.657 136.196V136.192H315.114V135.693C315.114 133.469 313.768 132.369 312.038 132.369C310.111 132.369 308.863 133.737 308.863 135.757C308.863 137.832 310.094 139.128 312.11 139.128ZM310.657 135.067C310.695 134.321 311.262 133.724 312.067 133.724C312.856 133.724 313.401 134.287 313.405 135.067H310.657ZM319.522 139.128C321.141 139.128 322.232 138.339 322.488 137.125L320.809 137.014C320.626 137.513 320.157 137.773 319.552 137.773C318.644 137.773 318.069 137.172 318.069 136.196V136.192H322.526V135.693C322.526 133.469 321.18 132.369 319.449 132.369C317.523 132.369 316.275 133.737 316.275 135.757C316.275 137.832 317.506 139.128 319.522 139.128ZM318.069 135.067C318.107 134.321 318.674 133.724 319.479 133.724C320.268 133.724 320.813 134.287 320.817 135.067H318.069Z" fill="#201F1F"/>
<rect x="67" y="200" width="116" height="24" rx="12" fill="#FF8743"/>
<path d="M90.6604 216L91.3082 214.01H94.4573L95.105 216H97.0823L94.0738 207.273H91.696L88.6832 216H90.6604ZM91.7769 212.57L92.8508 209.267H92.919L93.9928 212.57H91.7769ZM100.154 207.273H98.3386V216H100.154V207.273ZM103.664 207.273H101.848V216H103.664V207.273ZM108.375 216H110.19V212.071C110.19 211.347 110.651 210.865 111.256 210.865C111.852 210.865 112.253 211.274 112.253 211.918V216H114.013V212.003C114.013 211.325 114.401 210.865 115.061 210.865C115.641 210.865 116.075 211.227 116.075 211.956V216H117.886V211.598C117.886 210.179 117.043 209.369 115.824 209.369C114.865 209.369 114.119 209.859 113.851 210.609H113.783C113.574 209.851 112.905 209.369 112.006 209.369C111.124 209.369 110.455 209.838 110.182 210.609H110.105V209.455H108.375V216ZM122.543 216.128C124.163 216.128 125.254 215.339 125.509 214.125L123.83 214.014C123.647 214.513 123.178 214.773 122.573 214.773C121.665 214.773 121.09 214.172 121.09 213.196V213.192H125.548V212.693C125.548 210.469 124.201 209.369 122.471 209.369C120.545 209.369 119.296 210.737 119.296 212.757C119.296 214.832 120.528 216.128 122.543 216.128ZM121.09 212.067C121.129 211.321 121.695 210.724 122.501 210.724C123.289 210.724 123.835 211.287 123.839 212.067H121.09ZM126.972 216H128.788V212.071C128.788 211.347 129.248 210.865 129.853 210.865C130.45 210.865 130.85 211.274 130.85 211.918V216H132.61V212.003C132.61 211.325 132.998 210.865 133.658 210.865C134.238 210.865 134.673 211.227 134.673 211.956V216H136.484V211.598C136.484 210.179 135.64 209.369 134.421 209.369C133.462 209.369 132.717 209.859 132.448 210.609H132.38C132.171 209.851 131.502 209.369 130.603 209.369C129.721 209.369 129.052 209.838 128.779 210.609H128.702V209.455H126.972V216ZM138.192 216H139.981V214.952H140.062C140.314 215.497 140.864 216.107 141.92 216.107C143.412 216.107 144.575 214.926 144.575 212.736C144.575 210.486 143.361 209.369 141.925 209.369C140.829 209.369 140.305 210.021 140.062 210.554H140.007V207.273H138.192V216ZM139.969 212.727C139.969 211.56 140.463 210.814 141.345 210.814C142.244 210.814 142.721 211.594 142.721 212.727C142.721 213.869 142.236 214.662 141.345 214.662C140.471 214.662 139.969 213.895 139.969 212.727ZM149.009 216.128C150.629 216.128 151.72 215.339 151.975 214.125L150.296 214.014C150.113 214.513 149.644 214.773 149.039 214.773C148.132 214.773 147.556 214.172 147.556 213.196V213.192H152.014V212.693C152.014 210.469 150.667 209.369 148.937 209.369C147.011 209.369 145.762 210.737 145.762 212.757C145.762 214.832 146.994 216.128 149.009 216.128ZM147.556 212.067C147.595 211.321 148.161 210.724 148.967 210.724C149.755 210.724 150.301 211.287 150.305 212.067H147.556ZM153.438 216H155.254V212.297C155.254 211.491 155.842 210.938 156.643 210.938C156.894 210.938 157.239 210.98 157.41 211.036V209.425C157.248 209.386 157.022 209.361 156.839 209.361C156.106 209.361 155.505 209.787 155.266 210.597H155.198V209.455H153.438V216ZM164.035 211.321C163.873 210.115 162.901 209.369 161.248 209.369C159.573 209.369 158.469 210.145 158.473 211.406C158.469 212.386 159.087 213.021 160.365 213.277L161.499 213.503C162.07 213.618 162.33 213.827 162.338 214.155C162.33 214.543 161.908 214.82 161.273 214.82C160.625 214.82 160.195 214.543 160.084 214.01L158.299 214.104C158.469 215.357 159.535 216.128 161.269 216.128C162.965 216.128 164.179 215.263 164.184 213.972C164.179 213.026 163.562 212.459 162.292 212.199L161.107 211.96C160.498 211.828 160.272 211.619 160.276 211.304C160.272 210.912 160.715 210.656 161.277 210.656C161.908 210.656 162.283 211.001 162.373 211.423L164.035 211.321Z" fill="#201F1F"/>
<rect x="22" y="89" width="104" height="24" rx="12" fill="#E8E0FF"/>
<path d="M40.8103 96.2727V105H42.6001V99.2983H42.6725L44.931 104.957H46.1498L48.4083 99.3196H48.4807V105H50.2705V96.2727H47.9949L45.5915 102.136H45.4893L43.0859 96.2727H40.8103ZM54.9541 105.128C56.9398 105.128 58.1756 103.768 58.1756 101.753C58.1756 99.7244 56.9398 98.3693 54.9541 98.3693C52.9683 98.3693 51.7325 99.7244 51.7325 101.753C51.7325 103.768 52.9683 105.128 54.9541 105.128ZM54.9626 103.722C54.0464 103.722 53.5776 102.882 53.5776 101.74C53.5776 100.598 54.0464 99.7543 54.9626 99.7543C55.8617 99.7543 56.3305 100.598 56.3305 101.74C56.3305 102.882 55.8617 103.722 54.9626 103.722ZM62.008 105.107C63.0648 105.107 63.6145 104.497 63.8659 103.952H63.9426V105H65.7324V96.2727H63.9213V99.554H63.8659C63.623 99.0213 63.0989 98.3693 62.0037 98.3693C60.5676 98.3693 59.3531 99.4858 59.3531 101.736C59.3531 103.926 60.5165 105.107 62.008 105.107ZM62.5833 103.662C61.6926 103.662 61.2068 102.869 61.2068 101.727C61.2068 100.594 61.6841 99.8139 62.5833 99.8139C63.4654 99.8139 63.9597 100.56 63.9597 101.727C63.9597 102.895 63.4568 103.662 62.5833 103.662ZM70.4479 105.128C72.0672 105.128 73.1581 104.339 73.4138 103.125L71.7348 103.014C71.5516 103.513 71.0828 103.773 70.4777 103.773C69.5701 103.773 68.9948 103.172 68.9948 102.196V102.192H73.4522V101.693C73.4522 99.4688 72.1056 98.3693 70.3755 98.3693C68.4493 98.3693 67.2007 99.7372 67.2007 101.757C67.2007 103.832 68.4323 105.128 70.4479 105.128ZM68.9948 101.067C69.0331 100.321 69.5999 99.7244 70.4053 99.7244C71.1936 99.7244 71.7391 100.287 71.7434 101.067H68.9948ZM74.8768 105H76.6922V101.297C76.6922 100.491 77.2802 99.9375 78.0814 99.9375C78.3328 99.9375 78.678 99.9801 78.8484 100.036V98.4247C78.6865 98.3864 78.4606 98.3608 78.2774 98.3608C77.5444 98.3608 76.9436 98.7869 76.7049 99.5966H76.6368V98.4545H74.8768V105ZM81.706 105.124C82.6733 105.124 83.2997 104.702 83.6193 104.092H83.6704V105H85.392V100.585C85.392 99.0256 84.071 98.3693 82.6136 98.3693C81.0454 98.3693 80.0142 99.1193 79.7628 100.312L81.4418 100.449C81.5653 100.014 81.9531 99.6946 82.6051 99.6946C83.223 99.6946 83.5767 100.006 83.5767 100.543V100.568C83.5767 100.99 83.1293 101.045 81.9915 101.156C80.696 101.276 79.5327 101.71 79.5327 103.172C79.5327 104.467 80.4574 105.124 81.706 105.124ZM82.2258 103.871C81.6676 103.871 81.267 103.611 81.267 103.112C81.267 102.601 81.6889 102.349 82.3281 102.26C82.7244 102.205 83.3721 102.111 83.5895 101.966V102.661C83.5895 103.347 83.0227 103.871 82.2258 103.871ZM90.5219 98.4545H89.2904V96.8864H87.4751V98.4545H86.5802V99.8182H87.4751V103.227C87.4666 104.51 88.3401 105.145 89.6569 105.089C90.1256 105.072 90.458 104.979 90.6413 104.919L90.3558 103.568C90.2663 103.585 90.0745 103.628 89.9041 103.628C89.5418 103.628 89.2904 103.491 89.2904 102.989V99.8182H90.5219V98.4545ZM94.8316 105.128C96.8173 105.128 98.0531 103.768 98.0531 101.753C98.0531 99.7244 96.8173 98.3693 94.8316 98.3693C92.8458 98.3693 91.61 99.7244 91.61 101.753C91.61 103.768 92.8458 105.128 94.8316 105.128ZM94.8401 103.722C93.9239 103.722 93.4551 102.882 93.4551 101.74C93.4551 100.598 93.9239 99.7543 94.8401 99.7543C95.7392 99.7543 96.208 100.598 96.208 101.74C96.208 102.882 95.7392 103.722 94.8401 103.722ZM99.4735 105H101.289V101.297C101.289 100.491 101.877 99.9375 102.678 99.9375C102.93 99.9375 103.275 99.9801 103.445 100.036V98.4247C103.283 98.3864 103.057 98.3608 102.874 98.3608C102.141 98.3608 101.54 98.7869 101.302 99.5966H101.233V98.4545H99.4735V105ZM110.07 100.321C109.908 99.1151 108.936 98.3693 107.283 98.3693C105.608 98.3693 104.504 99.1449 104.509 100.406C104.504 101.386 105.122 102.021 106.401 102.277L107.534 102.503C108.105 102.618 108.365 102.827 108.374 103.155C108.365 103.543 107.943 103.82 107.308 103.82C106.661 103.82 106.23 103.543 106.119 103.01L104.334 103.104C104.504 104.357 105.57 105.128 107.304 105.128C109 105.128 110.215 104.263 110.219 102.972C110.215 102.026 109.597 101.459 108.327 101.199L107.142 100.96C106.533 100.828 106.307 100.619 106.311 100.304C106.307 99.9119 106.75 99.6562 107.313 99.6562C107.943 99.6562 108.318 100.001 108.408 100.423L110.07 100.321Z" fill="#201F1F"/>
</svg>
