<svg width="360" height="264" viewBox="0 0 360 264" fill="none" xmlns="http://www.w3.org/2000/svg">
<rect x="67" y="102.911" width="226" height="61.6831" fill="#E8E0FF"/>
<path d="M76.8491 88.6602H136.18L152.385 39H91.4858C90.2752 39 76.8491 88.6602 76.8491 88.6602Z" fill="#0C422A"/>
<path d="M67.0005 88.6602H126.331L142.536 39H81.6371C82.1599 39 67.0005 88.6602 67.0005 88.6602Z" fill="#FF8743"/>
<path d="M117.898 113.307L127.899 83.9554H101.24V99.2571C101.24 103.759 103.175 108.044 106.552 111.022L111.174 115.096C113.412 117.068 116.936 116.131 117.898 113.307Z" fill="#FF8743"/>
<path d="M281.499 178.446H222.168L205.963 228.106H266.862C268.072 228.106 281.499 178.446 281.499 178.446Z" fill="#0C422A"/>
<path d="M292.999 178.446H233.668L217.463 228.106H278.362C277.839 228.106 292.999 178.446 292.999 178.446Z" fill="#19D992"/>
<path d="M242.101 153.799L232.1 183.151H258.759V167.849C258.759 163.347 256.824 159.062 253.447 156.085L248.825 152.011C246.587 150.038 243.063 150.976 242.101 153.799Z" fill="#19D992"/>
<path d="M175.125 126.229C175.125 124.051 175.771 121.922 176.981 120.111C178.191 118.3 179.911 116.889 181.923 116.055C183.935 115.222 186.149 115.004 188.285 115.429C190.421 115.853 192.383 116.902 193.923 118.442C195.463 119.982 196.512 121.944 196.937 124.08C197.362 126.216 197.144 128.43 196.31 130.443C195.477 132.455 194.065 134.174 192.255 135.384C190.444 136.594 188.315 137.24 186.137 137.24" stroke="#201F1F" stroke-width="1.5"/>
<line x1="186.625" y1="137.467" x2="186.625" y2="146.877" stroke="#201F1F" stroke-width="1.5"/>
<line x1="186.625" y1="149.491" x2="186.625" y2="152.627" stroke="#201F1F" stroke-width="1.5"/>
</svg>
