<svg width="360" height="264" viewBox="0 0 360 264" fill="none" xmlns="http://www.w3.org/2000/svg">
<circle cx="162" cy="161" r="18" fill="#E1FC31"/>
<path d="M170.472 152.565C175.141 157.234 175.141 164.804 170.472 169.473C165.803 174.142 158.233 174.142 153.564 169.473" stroke="#201F1F" stroke-width="1.5"/>
<path d="M61 190C122.5 104 168.78 74.5047 215.9 127.503C263.02 180.501 278.726 79.0002 319 79" stroke="#19D992" stroke-width="5.5" stroke-linecap="round"/>
<rect x="85.8369" y="215.828" width="54.2767" height="10.457" fill="#201F1F"/>
<rect x="85.8369" y="187.942" width="54.2767" height="10.457" fill="#201F1F"/>
<rect x="46" y="218.815" width="39.8361" height="7.46927" fill="#201F1F"/>
<rect x="85.8369" y="201.886" width="54.2767" height="10.457" fill="#201F1F"/>
<rect x="46" y="208.358" width="39.8361" height="7.46927" fill="#201F1F"/>
<rect x="46" y="197.901" width="39.8361" height="7.96722" fill="#201F1F"/>
<rect x="85.8369" y="174" width="54.2767" height="10.457" fill="#201F1F"/>
<rect x="46" y="187.942" width="39.8361" height="7.46927" fill="#201F1F"/>
<rect x="140.113" y="218.815" width="39.8361" height="7.46927" fill="#201F1F"/>
<rect x="140.113" y="208.358" width="39.8361" height="7.46927" fill="#201F1F"/>
<rect x="140.113" y="197.901" width="39.8361" height="7.96722" fill="#201F1F"/>
<path d="M242.065 224.818H243.741L243.756 223.178C246.831 222.943 248.614 221.31 248.621 218.845C248.614 216.423 246.788 215.138 244.26 214.57L243.841 214.47L243.869 210.919C244.814 211.139 245.389 211.743 245.474 212.638H248.422C248.386 210.287 246.632 208.604 243.898 208.305L243.912 206.636H242.236L242.222 208.291C239.445 208.561 237.484 210.237 237.499 212.659C237.491 214.804 239.004 216.033 241.462 216.622L242.143 216.793L242.108 220.55C240.95 220.33 240.169 219.619 240.091 218.433H237.115C237.186 221.303 239.068 222.908 242.079 223.17L242.065 224.818ZM243.784 220.55L243.812 217.233C244.913 217.581 245.51 218.028 245.517 218.838C245.51 219.697 244.856 220.337 243.784 220.55ZM242.165 214.037C241.277 213.732 240.638 213.27 240.652 212.453C240.652 211.693 241.192 211.104 242.193 210.898L242.165 214.037ZM257.332 208.455H254.441L250.841 210.734V213.462L254.172 211.374H254.257V223H257.332V208.455ZM266.502 223.199C269.74 223.199 271.942 221.089 271.935 218.149C271.942 215.365 269.996 213.362 267.375 213.362C266.097 213.362 264.996 213.895 264.485 214.612H264.399L264.776 210.969H271.132V208.455H262.24L261.551 216.125L264.286 216.615C264.733 216.011 265.6 215.635 266.459 215.635C267.922 215.642 268.973 216.7 268.973 218.227C268.973 219.74 267.943 220.784 266.502 220.784C265.28 220.784 264.293 220.017 264.222 218.888H261.239C261.296 221.402 263.49 223.199 266.502 223.199ZM277.347 221.011H274.847L274.812 221.807C274.727 223.739 274.173 225.72 273.967 226.551H275.927C276.268 225.692 277.077 223.675 277.269 221.793L277.347 221.011ZM285.412 223.199C288.679 223.199 291.016 221.402 291.009 218.916C291.016 217.105 289.866 215.812 287.728 215.543V215.429C289.354 215.138 290.476 213.987 290.469 212.354C290.476 210.06 288.466 208.256 285.455 208.256C282.472 208.256 280.228 210.003 280.185 212.517H283.133C283.168 211.409 284.184 210.692 285.441 210.692C286.684 210.692 287.515 211.445 287.508 212.538C287.515 213.682 286.542 214.456 285.143 214.456H283.786V216.714H285.143C286.79 216.714 287.82 217.538 287.813 218.71C287.82 219.868 286.826 220.663 285.42 220.663C284.063 220.663 283.047 219.953 282.991 218.888H279.894C279.944 221.43 282.216 223.199 285.412 223.199ZM293.62 223H303.989V220.486H297.881V220.386L300.005 218.305C302.995 215.578 303.797 214.214 303.797 212.56C303.797 210.038 301.737 208.256 298.62 208.256C295.566 208.256 293.47 210.081 293.478 212.936H296.397C296.389 211.544 297.27 210.692 298.598 210.692C299.877 210.692 300.828 211.487 300.828 212.766C300.828 213.923 300.118 214.719 298.797 215.99L293.62 220.784V223ZM306.085 220.443H313.066V223H316.006V220.443H317.81V217.979H316.006V208.455H312.157L306.085 218.021V220.443ZM313.123 217.979H309.181V217.865L313.009 211.807H313.123V217.979Z" fill="#6038D0"/>
<ellipse cx="113" cy="123.5" rx="18" ry="17.5" fill="#6038D0"/>
<path d="M118.032 116.762L114.897 121.417C114.847 121.484 114.823 121.568 114.832 121.652C114.84 121.735 114.88 121.813 114.943 121.868C115.007 121.924 115.089 121.953 115.173 121.951C115.257 121.948 115.337 121.914 115.397 121.855L118.482 119.188C118.499 119.172 118.522 119.161 118.545 119.157C118.569 119.154 118.594 119.157 118.616 119.167C118.638 119.177 118.656 119.193 118.669 119.213C118.682 119.234 118.689 119.258 118.688 119.282V127.663C118.688 127.689 118.68 127.714 118.665 127.734C118.651 127.755 118.63 127.771 118.606 127.78C118.582 127.788 118.556 127.789 118.532 127.783C118.507 127.777 118.485 127.763 118.468 127.743L109.141 116.577C108.992 116.397 108.806 116.253 108.595 116.153C108.385 116.054 108.155 116.001 107.922 116H107.597C107.174 116 106.767 116.168 106.468 116.468C106.168 116.768 106 117.174 106 117.598V129.402C106 129.826 106.168 130.232 106.468 130.532C106.767 130.832 107.174 131 107.597 131C107.87 131 108.139 130.93 108.377 130.797C108.615 130.663 108.815 130.471 108.958 130.238L112.093 125.583C112.143 125.516 112.167 125.432 112.158 125.348C112.15 125.265 112.11 125.187 112.047 125.132C111.983 125.076 111.901 125.047 111.817 125.049C111.733 125.052 111.653 125.086 111.593 125.145L108.508 127.812C108.491 127.828 108.468 127.839 108.445 127.843C108.421 127.846 108.396 127.843 108.374 127.833C108.352 127.823 108.334 127.807 108.321 127.787C108.308 127.766 108.301 127.742 108.302 127.718V119.345C108.302 119.32 108.31 119.295 108.325 119.274C108.339 119.253 108.36 119.237 108.384 119.229C108.408 119.22 108.434 119.219 108.458 119.225C108.483 119.232 108.505 119.246 108.522 119.265L117.849 130.432C117.999 130.609 118.186 130.752 118.397 130.85C118.608 130.948 118.837 130.998 119.07 130.998H119.403C119.612 130.998 119.82 130.957 120.014 130.877C120.208 130.796 120.384 130.679 120.532 130.53C120.68 130.382 120.798 130.206 120.878 130.012C120.959 129.818 121 129.61 121 129.4V117.598C121 117.388 120.958 117.179 120.877 116.984C120.797 116.79 120.678 116.613 120.529 116.465C120.379 116.316 120.202 116.199 120.007 116.119C119.812 116.039 119.603 115.999 119.393 116C119.12 116 118.851 116.07 118.613 116.203C118.375 116.337 118.175 116.529 118.032 116.762Z" fill="white"/>
<ellipse cx="64" cy="149.5" rx="18" ry="17.5" fill="#E8E0FF"/>
<path d="M72.6052 141.14C77.2742 145.809 77.2742 153.379 72.6052 158.048C67.9362 162.717 60.3663 162.717 55.6973 158.048" stroke="#201F1F" stroke-width="1.5"/>
</svg>
