<svg width="360" height="274" viewBox="0 0 360 290" fill="none" xmlns="http://www.w3.org/2000/svg">
<rect x="67" y="102.911" width="226" height="61.6831" fill="#E8E0FF"/>
<path d="M76.8491 88.6602H136.18L152.385 39H91.4858C90.2752 39 76.8491 88.6602 76.8491 88.6602Z" fill="#0C422A"/>
<path d="M67.0005 88.6602H126.331L142.536 39H81.6371C82.1599 39 67.0005 88.6602 67.0005 88.6602Z" fill="#FF8743"/>
<path d="M117.898 113.307L127.899 83.9554H101.24V99.2571C101.24 103.759 103.175 108.044 106.552 111.022L111.174 115.096C113.412 117.068 116.936 116.131 117.898 113.307Z" fill="#FF8743"/>
<path d="M281.499 178.446H222.168L205.963 228.106H266.862C268.072 228.106 281.499 178.446 281.499 178.446Z" fill="#0C422A"/>
<path d="M292.999 178.446H233.668L217.463 228.106H278.362C277.839 228.106 292.999 178.446 292.999 178.446Z" fill="#19D992"/>
<path d="M242.101 153.799L232.1 183.151H258.759V167.849C258.759 163.347 256.824 159.062 253.447 156.085L248.825 152.011C246.587 150.038 243.063 150.976 242.101 153.799Z" fill="#19D992"/>
<path d="M175.125 126.229C175.125 124.051 175.771 121.922 176.981 120.111C178.191 118.3 179.911 116.889 181.923 116.055C183.935 115.222 186.149 115.004 188.285 115.429C190.421 115.853 192.383 116.902 193.923 118.442C195.463 119.982 196.512 121.944 196.937 124.08C197.362 126.216 197.144 128.43 196.31 130.443C195.477 132.455 194.065 134.174 192.255 135.384C190.444 136.594 188.315 137.24 186.137 137.24" stroke="#201F1F" stroke-width="1.5"/>
<line x1="186.625" y1="137.467" x2="186.625" y2="146.877" stroke="#201F1F" stroke-width="1.5"/>
<line x1="186.625" y1="149.491" x2="186.625" y2="152.627" stroke="#201F1F" stroke-width="1.5"/>
<g transform="matrix(1 0 0 1 160 0)">
<circle cx="12.5343" cy="12.5345" r="12" transform="rotate(-2.61158 12.5343 12.5345)" fill="#FFF3EC"/>
<path d="M7.33105 16.9755L17.2177 16.5245L19.5899 9.20884L9.44197 9.67171C9.24025 9.68092 7.33105 16.9755 7.33105 16.9755Z" fill="#401700"/>
<path fill-rule="evenodd" clip-rule="evenodd" d="M15.376 16.6087L14.5591 19.4195C14.3586 20.1095 13.5207 20.3738 12.9605 19.9237C12.118 19.2466 11.6057 18.2412 11.5533 17.1615L11.535 16.7839L5.53306 17.0577C5.53306 17.0577 7.73109 9.74991 7.64398 9.75388L17.7919 9.29101L15.4197 16.6067L15.376 16.6087Z" fill="#FF8743"/>
</g>
<g transform="matrix(1 0 0 1 190 30)">
<circle cx="20.8905" cy="20.8902" r="20" transform="rotate(-2.61158 20.8905 20.8902)" fill="#FFF3EC"/>
<path d="M12.2181 28.2928L28.6958 27.5412L32.6495 15.3484L15.7363 16.1199C15.4001 16.1352 12.2181 28.2928 12.2181 28.2928Z" fill="#401700"/>
<path fill-rule="evenodd" clip-rule="evenodd" d="M25.6268 27.6811L24.2654 32.3657C23.9312 33.5159 22.5348 33.9563 21.6011 33.2061C20.1968 32.0777 19.343 30.4019 19.2557 28.6026L19.2252 27.9731L9.22145 28.4294C9.22145 28.4294 12.8848 16.2498 12.7396 16.2565L29.6529 15.485L25.6991 27.6778L25.6268 27.6811Z" fill="#FF8743"/>
</g>
<g transform="matrix(1 0 0 1 120 150)">
<circle cx="20.8905" cy="20.8902" r="20" transform="rotate(-2.61158 20.8905 20.8902)" fill="#CFF9EA"/>
<path d="M30.6872 16.1945L14.2095 16.9461L10.2558 29.1389L27.169 28.3675C27.5052 28.3521 30.6872 16.1945 30.6872 16.1945Z" fill="#0C422A"/>
<path fill-rule="evenodd" clip-rule="evenodd" d="M17.3562 16.8026L18.9404 11.3515C19.2746 10.2013 20.671 9.76087 21.6047 10.5111C23.009 11.6395 23.8627 13.3153 23.95 15.1146L24.0172 16.4988L33.6851 16.0578C33.6851 16.0578 30.0217 28.2374 30.1669 28.2307L13.2536 29.0022L17.2074 16.8094L17.3562 16.8026Z" fill="#19D992"/>
</g>
<g transform="matrix(1 0 0 1 220 260)"> 
<circle cx="12.5343" cy="12.5345" r="12" transform="rotate(-2.61158 12.5343 12.5345)" fill="#CFF9EA"/>
<path d="M18.4111 9.71787L8.52453 10.1688L6.15229 17.4845L16.3002 17.0216C16.5019 17.0124 18.4111 9.71787 18.4111 9.71787Z" fill="#0C422A"/>
<path fill-rule="evenodd" clip-rule="evenodd" d="M10.413 10.0824L11.3636 6.81166C11.5641 6.12157 12.4019 5.8573 12.9621 6.30743C13.8047 6.98446 14.317 7.98995 14.3694 9.06956L14.4097 9.90009L20.2103 9.63551C20.2103 9.63551 18.0122 16.9433 18.0993 16.9393L7.9514 17.4021L10.3236 10.0865L10.413 10.0824Z" fill="#19D992"/>

</g>

</svg>
