<svg width="181" height="204" viewBox="0 0 181 204" fill="none" xmlns="http://www.w3.org/2000/svg">
<mask id="mask0" mask-type="alpha" maskUnits="userSpaceOnUse" x="0" y="0" width="181" height="204">
<path fill-rule="evenodd" clip-rule="evenodd" d="M180.007 0L37.8076 50.8197V79.0127L0 92.5245V204L142.2 153.18V124.987L180.007 111.475V0Z" fill="#ADD5E5"/>
</mask>
<g mask="url(#mask0)">
<path fill-rule="evenodd" clip-rule="evenodd" d="M180.007 0L37.8076 50.8197V79.0127L0 92.5245V204L142.2 153.18V124.987L180.007 111.475V0Z" fill="#F6E3DD"/>
<path fill-rule="evenodd" clip-rule="evenodd" d="M157.002 183.733L157.002 181.749C144.933 181.486 135.23 171.647 135.23 159.549C135.23 147.45 144.933 137.611 157.002 137.348L157.002 135.363C144.933 135.1 135.23 125.262 135.23 113.163C135.23 101.064 144.933 91.2256 157.002 90.9627L157.002 88.9776C144.933 88.7146 135.23 78.8759 135.23 66.7773C135.23 54.6786 144.933 44.8399 157.002 44.5769L157.002 42.5926C144.933 42.3296 135.23 32.4909 135.23 20.3922C135.23 8.29362 144.933 -1.54511 157.002 -1.80808L157.002 -3.79301C145.097 -4.05236 135.495 -13.6283 135.235 -25.5L133.243 -25.5C132.979 -13.464 123.113 -3.78778 110.98 -3.78778C98.8475 -3.78778 88.981 -13.464 88.7179 -25.5L86.7309 -25.5C86.4678 -13.464 76.6013 -3.78778 64.4685 -3.78778C52.3358 -3.78778 42.4693 -13.464 42.2062 -25.5L40.2134 -25.5C39.9502 -13.464 30.0837 -3.78778 17.951 -3.78778C5.81819 -3.78778 -4.04826 -13.464 -4.31143 -25.5L-6.30421 -25.5C-6.56738 -13.464 -16.4339 -3.78778 -28.5666 -3.78778C-40.6994 -3.78778 -50.5658 -13.464 -50.829 -25.5L-52.813 -25.5C-53.0569 -14.345 -61.5498 -5.21687 -72.4507 -3.94042L-71.6672 -1.55502C-60.9869 0.080801 -52.8076 9.284 -52.8076 20.3922C-52.8076 26.5137 -55.2915 32.0567 -59.3091 36.0735L-50.497 62.9049C-48.6598 52.4871 -39.5402 44.5715 -28.5666 44.5715C-16.2685 44.5715 -6.29883 54.5134 -6.29883 66.7773C-6.29883 79.0411 -16.2685 88.983 -28.5666 88.983C-34.5352 88.983 -39.9552 86.6413 -43.9534 82.829L-40.2089 94.2304C-36.8214 92.1544 -32.8342 90.9573 -28.5666 90.9573C-16.2685 90.9573 -6.29883 100.899 -6.29883 113.163C-6.29883 124.808 -15.2872 134.359 -26.7227 135.294L-26.0018 137.489C-14.9117 138.757 -6.29882 148.15 -6.29882 159.549C-6.29882 165.976 -9.03678 171.765 -13.413 175.82L-4.21719 203.819C-3.1495 192.547 6.36793 183.728 17.951 183.728C30.2491 183.728 40.2188 193.67 40.2188 205.934C40.2188 208.419 39.8092 210.81 39.0538 213.041L43.3332 212.944C42.5985 210.741 42.2008 208.383 42.2008 205.934C42.2008 193.67 52.1704 183.728 64.4685 183.728C76.7667 183.728 86.7363 193.67 86.7363 205.934C86.7363 208.03 86.445 210.059 85.9004 211.982L89.5253 211.9C88.9956 210.001 88.7125 208.001 88.7125 205.934C88.7125 193.67 98.6821 183.728 110.98 183.728C123.278 183.728 133.248 193.67 133.248 205.934C133.248 207.65 133.053 209.32 132.684 210.924L135.779 210.854C135.42 209.271 135.23 207.625 135.23 205.934C135.23 193.835 144.933 183.996 157.002 183.733ZM110.98 42.598C98.6821 42.598 88.7125 32.6561 88.7125 20.3922C88.7125 8.12836 98.6821 -1.81348 110.98 -1.81348C123.278 -1.81348 133.248 8.12836 133.248 20.3922C133.248 32.6561 123.278 42.598 110.98 42.598ZM-4.31682 20.3922C-4.31682 32.6561 5.6528 42.598 17.951 42.598C30.2491 42.598 40.2187 32.6561 40.2187 20.3922C40.2187 8.12836 30.2491 -1.81348 17.951 -1.81348C5.6528 -1.81348 -4.31682 8.12836 -4.31682 20.3922ZM64.4685 42.598C52.1704 42.598 42.2008 32.6561 42.2008 20.3922C42.2008 8.12836 52.1704 -1.81348 64.4685 -1.81348C76.7667 -1.81348 86.7363 8.12836 86.7363 20.3922C86.7363 32.6561 76.7667 42.598 64.4685 42.598ZM-50.8344 20.3922C-50.8344 32.6561 -40.8648 42.598 -28.5666 42.598C-16.2685 42.598 -6.29883 32.6561 -6.29883 20.3922C-6.29883 8.12836 -16.2685 -1.81348 -28.5666 -1.81348C-40.8648 -1.81348 -50.8344 8.12836 -50.8344 20.3922ZM110.98 88.983C98.6821 88.983 88.7125 79.0411 88.7125 66.7772C88.7125 54.5134 98.6821 44.5715 110.98 44.5715C123.278 44.5715 133.248 54.5134 133.248 66.7773C133.248 79.0411 123.278 88.983 110.98 88.983ZM-4.31682 66.7773C-4.31682 79.0411 5.6528 88.983 17.951 88.983C30.2491 88.983 40.2187 79.0411 40.2187 66.7773C40.2187 54.5134 30.2491 44.5715 17.951 44.5715C5.6528 44.5715 -4.31682 54.5134 -4.31682 66.7773ZM64.4685 88.983C52.1704 88.983 42.2008 79.0411 42.2008 66.7773C42.2008 54.5134 52.1704 44.5715 64.4685 44.5715C76.7667 44.5715 86.7363 54.5134 86.7363 66.7773C86.7363 79.0411 76.7667 88.983 64.4685 88.983ZM110.98 135.369C98.6821 135.369 88.7125 125.427 88.7125 113.163C88.7125 100.899 98.6821 90.9573 110.98 90.9573C123.278 90.9573 133.248 100.899 133.248 113.163C133.248 125.427 123.278 135.369 110.98 135.369ZM-4.31682 113.163C-4.31682 125.427 5.65279 135.369 17.951 135.369C30.2491 135.369 40.2187 125.427 40.2187 113.163C40.2187 100.899 30.2491 90.9573 17.951 90.9573C5.6528 90.9573 -4.31682 100.899 -4.31682 113.163ZM64.4685 135.369C52.1704 135.369 42.2008 125.427 42.2008 113.163C42.2008 100.899 52.1704 90.9573 64.4685 90.9573C76.7667 90.9573 86.7363 100.899 86.7363 113.163C86.7363 125.427 76.7667 135.369 64.4685 135.369ZM110.98 181.754C98.6821 181.754 88.7125 171.813 88.7125 159.549C88.7125 147.285 98.6821 137.343 110.98 137.343C123.278 137.343 133.248 147.285 133.248 159.549C133.248 171.813 123.278 181.754 110.98 181.754ZM-4.31681 159.549C-4.31681 171.813 5.65281 181.754 17.951 181.754C30.2491 181.754 40.2188 171.813 40.2188 159.549C40.2188 147.285 30.2491 137.343 17.951 137.343C5.65281 137.343 -4.31681 147.285 -4.31681 159.549ZM64.4685 181.754C52.1704 181.754 42.2008 171.813 42.2008 159.549C42.2008 147.285 52.1704 137.343 64.4685 137.343C76.7667 137.343 86.7363 147.285 86.7363 159.549C86.7363 171.813 76.7667 181.754 64.4685 181.754Z" fill="#FF8743"/>
<path fill-rule="evenodd" clip-rule="evenodd" d="M202.436 124.362L202.436 123.183C195.263 123.026 189.497 117.179 189.497 109.988C189.497 102.798 195.263 96.9505 202.436 96.7931L202.436 95.6136C195.263 95.4562 189.497 89.6088 189.497 82.4184C189.497 75.2281 195.263 69.3806 202.436 69.2232L202.436 68.0431C195.263 67.8857 189.497 62.0382 189.497 54.8479C189.497 47.6575 195.263 41.8101 202.436 41.6527L202.436 40.4725C195.263 40.3151 189.497 34.4677 189.497 27.2773C189.497 20.0869 195.263 14.2395 202.436 14.0821L202.436 12.9019C195.361 12.7466 189.655 7.05543 189.5 -5.6542e-07L188.317 -6.17135e-07C188.161 7.1539 182.296 12.9052 175.085 12.9052C167.874 12.9052 162.009 7.15389 161.853 -1.77393e-06L160.67 -1.82564e-06C160.513 7.15389 154.649 12.9052 147.437 12.9052C140.226 12.9052 134.362 7.15389 134.205 -2.98244e-06L133.022 -3.03415e-06C132.866 7.15389 127.001 12.9052 119.79 12.9052C112.579 12.9052 106.714 7.15389 106.558 -4.19095e-06L105.375 -4.24266e-06C105.218 7.15389 99.354 12.9052 92.1426 12.9052C84.9312 12.9052 79.0668 7.15389 78.9104 -5.39945e-06L77.7273 -5.45117e-06C77.5823 6.63026 72.5344 12.0558 66.0553 12.8145L66.521 14.2325C72.869 15.2048 77.7305 20.6749 77.7305 27.2773C77.7305 30.9157 76.2542 34.2102 73.8663 36.5977L79.1065 52.5534C80.1956 46.3578 85.6177 41.6494 92.1426 41.6494C99.4523 41.6494 105.378 47.5586 105.378 54.8479C105.378 62.1372 99.4523 68.0463 92.1426 68.0463C88.5924 68.0463 85.3688 66.6525 82.9919 64.3836L85.2198 71.1672C87.2338 69.9322 89.6048 69.22 92.1426 69.22C99.4523 69.22 105.378 75.1291 105.378 82.4184C105.378 89.3409 100.034 95.0186 93.2351 95.5726L93.6632 96.876C100.257 97.628 105.378 103.212 105.378 109.988C105.378 113.81 103.749 117.252 101.147 119.662L106.613 136.307C107.245 129.604 112.903 124.359 119.79 124.359C127.1 124.359 133.025 130.268 133.025 137.557C133.025 139.035 132.782 140.456 132.333 141.782L134.875 141.725C134.439 140.415 134.202 139.014 134.202 137.557C134.202 130.268 140.128 124.359 147.437 124.359C154.747 124.359 160.673 130.268 160.673 137.557C160.673 138.804 160.5 140.01 160.176 141.153L162.333 141.104C162.018 139.975 161.85 138.786 161.85 137.557C161.85 130.268 167.775 124.359 175.085 124.359C182.395 124.359 188.32 130.268 188.32 137.557C188.32 138.577 188.204 139.57 187.985 140.524L189.823 140.482C189.61 139.541 189.497 138.563 189.497 137.557C189.497 130.367 195.263 124.52 202.436 124.362ZM175.085 40.4758C167.775 40.4758 161.85 34.5666 161.85 27.2773C161.85 19.988 167.775 14.0789 175.085 14.0789C182.395 14.0789 188.32 19.988 188.32 27.2773C188.32 34.5666 182.395 40.4758 175.085 40.4758ZM106.555 27.2773C106.555 34.5666 112.48 40.4758 119.79 40.4758C127.1 40.4758 133.025 34.5666 133.025 27.2773C133.025 19.988 127.1 14.0789 119.79 14.0789C112.48 14.0789 106.555 19.988 106.555 27.2773ZM147.437 40.4758C140.128 40.4758 134.202 34.5666 134.202 27.2773C134.202 19.988 140.128 14.0789 147.437 14.0789C154.747 14.0789 160.673 19.988 160.673 27.2773C160.673 34.5666 154.747 40.4758 147.437 40.4758ZM78.9072 27.2773C78.9072 34.5666 84.8329 40.4758 92.1426 40.4758C99.4523 40.4758 105.378 34.5666 105.378 27.2773C105.378 19.988 99.4523 14.0789 92.1426 14.0789C84.8329 14.0789 78.9072 19.988 78.9072 27.2773ZM175.085 68.0463C167.775 68.0463 161.85 62.1372 161.85 54.8479C161.85 47.5586 167.775 41.6494 175.085 41.6494C182.395 41.6494 188.32 47.5586 188.32 54.8479C188.32 62.1372 182.395 68.0463 175.085 68.0463ZM106.555 54.8479C106.555 62.1372 112.48 68.0463 119.79 68.0463C127.1 68.0463 133.025 62.1372 133.025 54.8479C133.025 47.5586 127.1 41.6494 119.79 41.6494C112.48 41.6494 106.555 47.5586 106.555 54.8479ZM147.437 68.0463C140.128 68.0463 134.202 62.1372 134.202 54.8479C134.202 47.5586 140.128 41.6494 147.437 41.6494C154.747 41.6494 160.673 47.5586 160.673 54.8479C160.673 62.1372 154.747 68.0463 147.437 68.0463ZM175.085 95.6162C167.775 95.6162 161.85 89.707 161.85 82.4177C161.85 75.1284 167.775 69.2192 175.085 69.2192C182.395 69.2192 188.32 75.1284 188.32 82.4177C188.32 89.707 182.395 95.6162 175.085 95.6162ZM106.555 82.4177C106.555 89.707 112.48 95.6162 119.79 95.6162C127.1 95.6162 133.025 89.707 133.025 82.4177C133.025 75.1284 127.1 69.2192 119.79 69.2192C112.48 69.2192 106.555 75.1284 106.555 82.4177ZM147.437 95.6162C140.128 95.6162 134.202 89.707 134.202 82.4177C134.202 75.1284 140.128 69.2192 147.437 69.2192C154.747 69.2192 160.673 75.1284 160.673 82.4177C160.673 89.707 154.747 95.6162 147.437 95.6162ZM175.085 123.187C167.775 123.187 161.85 117.278 161.85 109.988C161.85 102.699 167.775 96.7898 175.085 96.7898C182.395 96.7898 188.32 102.699 188.32 109.988C188.32 117.278 182.395 123.187 175.085 123.187ZM106.555 109.988C106.555 117.278 112.48 123.187 119.79 123.187C127.1 123.187 133.025 117.278 133.025 109.988C133.025 102.699 127.1 96.7898 119.79 96.7898C112.48 96.7898 106.555 102.699 106.555 109.988ZM147.437 123.187C140.128 123.187 134.202 117.278 134.202 109.988C134.202 102.699 140.128 96.7898 147.437 96.7898C154.747 96.7898 160.673 102.699 160.673 109.988C160.673 117.278 154.747 123.187 147.437 123.187Z" fill="#0C422A"/>
</g>
</svg>
