<svg width="145" height="40" viewBox="0 0 145 40" fill="none" xmlns="http://www.w3.org/2000/svg">
<path d="M36.6182 24.8223H36.7654C39.5139 27.3744 43.6612 28.4297 46.5078 28.4297C49.1336 28.4297 50.7042 27.8898 50.7042 25.8775C50.7042 24.4051 49.5017 23.7425 46.8269 23.0063L43.4894 22.0492C38.8759 20.7241 36.8636 18.0492 36.8636 14.1719C36.8636 9.55832 40.4219 6 47.514 6C50.1398 6 53.8453 6.8589 55.3423 8.08591C55.3914 8.13499 55.4404 8.20861 55.4404 8.28223V14.2209H55.2932C53.2318 12.3314 49.5999 11.2761 46.925 11.2761C43.7839 11.2761 42.9986 12.405 42.9986 13.8038C42.9986 14.9326 43.5139 15.6688 46.0907 16.4296L49.6244 17.5093C55.1214 19.2271 56.8392 21.583 56.8392 25.4112C56.8392 29.7058 53.968 33.8285 46.2134 33.8285C42.7287 33.8285 38.8513 32.8224 36.7163 31.08C36.6672 31.0309 36.6182 30.9573 36.6182 30.8837V24.8223Z" fill="white"/>
<path d="M125.256 6.02441C117.526 6.02441 111.269 12.2821 111.269 20.0123C111.269 27.7424 117.526 34.0001 125.256 34.0001C132.987 34.0001 139.244 27.7424 139.244 20.0123C139.244 12.2821 132.987 6.02441 125.256 6.02441ZM125.232 32.2578C125.232 32.2578 125.232 20.0123 112.986 20.0123C112.986 20.0123 125.232 20.0123 125.232 7.76676C125.232 7.76676 125.232 20.0123 137.477 20.0123C137.477 20.0123 125.232 20.0123 125.232 32.2578Z" fill="white"/>
<path d="M101.797 22.4911C104.865 21.1414 106.607 18.5647 106.607 14.7364C106.607 11.0063 104.619 8.38055 101.576 7.32532C100.03 6.78544 97.6253 6.54004 95.0731 6.54004H86.4104C86.2632 6.54004 86.165 6.6382 86.165 6.78544V14.2456C86.165 14.2456 86.165 18.6629 90.5823 18.6629C90.5823 18.6629 86.165 18.6629 86.165 23.0801V32.9943C86.165 33.1415 86.2632 33.2397 86.4104 33.2397H91.9565C92.1037 33.2397 92.2019 33.1415 92.2019 32.9943V23.6445H96.0302L101.503 33.1415C101.552 33.2151 101.625 33.2642 101.723 33.2642H107.809C108.006 33.2642 108.128 33.0679 108.03 32.8961L101.797 22.4911ZM98.7787 18.1966C97.9198 18.5892 96.6191 18.7119 94.8277 18.7119H92.2019V11.7425H94.7295C96.1529 11.7425 97.5516 11.8898 98.4842 12.2088C99.8093 12.6751 100.496 13.6321 100.496 15.1045C100.472 16.6751 99.9811 17.6076 98.7787 18.1966Z" fill="white"/>
<path d="M59.6865 6.80998V11.718C59.6865 11.8652 59.7847 11.9634 59.9319 11.9634H71.7848C67.3676 11.9634 67.3676 16.3806 67.3676 16.3806V33.0434C67.3676 33.1906 67.4657 33.2888 67.613 33.2888H73.1345C73.2817 33.2888 73.3799 33.1906 73.3799 33.0434V11.9389H81.0364C81.1837 11.9389 81.2818 11.8407 81.2818 11.6935V6.78544C81.2818 6.6382 81.1837 6.54004 81.0364 6.54004H59.9319C59.8092 6.56458 59.6865 6.66274 59.6865 6.80998Z" fill="white"/>
<path d="M33.3779 32.9451L23.1937 6.71169C23.1692 6.61353 23.071 6.56445 22.9729 6.56445H17.4513C17.3532 6.56445 17.255 6.63807 17.2305 6.71169L7.0218 32.9451C6.94818 33.1169 7.07088 33.2886 7.24266 33.2886H13.0832C13.1814 33.2886 13.2795 33.215 13.3041 33.1414L15.4881 27.399C15.4881 27.399 15.4881 27.399 15.4881 27.3745L20.0526 14.2946L22.9974 22.2456C17.4023 22.2456 15.5863 27.08 15.4881 27.3745V27.399H24.7152L26.8993 33.1414C26.9238 33.2396 27.022 33.2886 27.1201 33.2886H33.1325C33.3288 33.2641 33.4515 33.0923 33.3779 32.9451Z" fill="white"/>
</svg>
