<svg width="104" height="40" viewBox="0 0 104 40" fill="none" xmlns="http://www.w3.org/2000/svg">
<path d="M52.2922 13.5187V26.4817C52.2916 26.5306 52.2716 26.5773 52.2366 26.6119C52.2015 26.6465 52.1542 26.6662 52.1047 26.6668H50.7393C50.4259 26.6671 50.1174 26.5897 49.8422 26.4417C49.567 26.2937 49.3337 26.08 49.1638 25.8199L42.9671 16.3631L43.1796 21.0866V26.4817C43.179 26.5306 43.159 26.5773 43.124 26.6119C43.089 26.6465 43.0416 26.6662 42.9921 26.6668H41.1866C41.137 26.6662 41.0897 26.6465 41.0547 26.6119C41.0196 26.5773 40.9997 26.5306 40.999 26.4817V13.5187C40.9997 13.4698 41.0196 13.423 41.0547 13.3884C41.0897 13.3539 41.137 13.3341 41.1866 13.3335H42.5445C42.8575 13.3337 43.1655 13.411 43.4406 13.5584C43.7158 13.7059 43.9492 13.9188 44.1199 14.1779L50.3167 23.6199L50.1241 18.9137V13.5187C50.1241 13.4696 50.1439 13.4225 50.179 13.3877C50.2142 13.353 50.2619 13.3335 50.3117 13.3335H52.1172C52.1645 13.3372 52.2087 13.3583 52.2411 13.3925C52.2735 13.4268 52.2917 13.4718 52.2922 13.5187Z" fill="white"/>
<path d="M70.7428 26.6665H68.8323C68.8024 26.6662 68.7731 26.6589 68.7466 26.6452C68.7202 26.6314 68.6975 26.6117 68.6804 26.5875C68.6633 26.5634 68.6522 26.5355 68.6482 26.5063C68.6442 26.4771 68.6473 26.4474 68.6572 26.4196L73.7187 13.511C73.7403 13.4569 73.7784 13.4108 73.8276 13.379C73.8769 13.3471 73.9349 13.3311 73.9937 13.3332H76.3869C76.4436 13.3337 76.4989 13.3508 76.5457 13.3825C76.5925 13.4142 76.6286 13.4589 76.6495 13.511L81.6959 26.4196C81.7059 26.4474 81.709 26.4771 81.7049 26.5063C81.7009 26.5355 81.6899 26.5634 81.6728 26.5875C81.6556 26.6117 81.6329 26.6314 81.6065 26.6452C81.5801 26.6589 81.5507 26.6662 81.5209 26.6665H79.6103C79.5721 26.6667 79.5347 26.6555 79.503 26.6343C79.4714 26.6132 79.4469 26.5831 79.4328 26.548L75.3541 15.9307C75.341 15.895 75.317 15.8641 75.2855 15.8422C75.2539 15.8204 75.2163 15.8087 75.1778 15.8087C75.1393 15.8087 75.1017 15.8204 75.0702 15.8422C75.0386 15.8641 75.0147 15.895 75.0015 15.9307L70.9229 26.548C70.9086 26.5835 70.8838 26.6138 70.8516 26.635C70.8194 26.6562 70.7815 26.6672 70.7428 26.6665Z" fill="white"/>
<path d="M94.9561 26.3681L91.1601 21.5804C93.3032 21.1804 94.556 19.7532 94.556 17.5631C94.556 15.0471 92.8981 13.3335 89.9647 13.3335H84.6707C84.5964 13.3335 84.5252 13.3626 84.4727 13.4145C84.4201 13.4664 84.3906 13.5367 84.3906 13.61C84.3906 13.8435 84.4372 14.0747 84.5277 14.2904C84.6182 14.5061 84.7508 14.702 84.918 14.8671C85.0852 15.0322 85.2837 15.1632 85.5021 15.2525C85.7206 15.3418 85.9547 15.3878 86.1911 15.3878H89.7447C91.5177 15.3878 92.3679 16.2841 92.3679 17.5779C92.3679 18.8718 91.5377 19.8002 89.7447 19.8002H84.6707C84.5962 19.8008 84.525 19.8305 84.4725 19.8828C84.42 19.935 84.3906 20.0056 84.3906 20.0792V26.4989C84.3906 26.548 84.4104 26.5951 84.4456 26.6299C84.4807 26.6646 84.5284 26.6841 84.5782 26.6841H86.3837C86.4332 26.6835 86.4806 26.6638 86.5156 26.6292C86.5506 26.5946 86.5706 26.5478 86.5712 26.4989V21.6965H88.6543L91.9478 25.9409C92.1242 26.168 92.3514 26.3518 92.6117 26.4777C92.872 26.6036 93.1583 26.6684 93.4482 26.6668H94.8186C94.8528 26.665 94.8858 26.6539 94.9141 26.6348C94.9424 26.6157 94.9648 26.5893 94.979 26.5586C94.9932 26.5278 94.9985 26.4937 94.9945 26.4602C94.9905 26.4266 94.9772 26.3947 94.9561 26.3681Z" fill="white"/>
<path d="M65.0308 13.3335H56.6534C56.5871 13.3335 56.5235 13.3595 56.4766 13.4058C56.4297 13.4521 56.4033 13.5149 56.4033 13.5804C56.4033 14.0604 56.5964 14.5208 56.9402 14.8602C57.284 15.1996 57.7502 15.3903 58.2363 15.3903H65.0308C65.0555 15.3906 65.08 15.3861 65.1029 15.3769C65.1259 15.3677 65.1467 15.3541 65.1642 15.3368C65.1816 15.3195 65.1954 15.299 65.2047 15.2764C65.2141 15.2537 65.2187 15.2295 65.2183 15.2051V13.5187C65.2183 13.4696 65.1986 13.4225 65.1634 13.3877C65.1282 13.353 65.0805 13.3335 65.0308 13.3335ZM65.0308 24.61H58.779C58.7295 24.6094 58.6821 24.5897 58.6471 24.5551C58.6121 24.5205 58.5921 24.4738 58.5914 24.4249V21.0816C58.5914 21.0325 58.6112 20.9854 58.6464 20.9507C58.6815 20.916 58.7293 20.8965 58.779 20.8965H64.5581C64.6079 20.8965 64.6556 20.877 64.6908 20.8422C64.7259 20.8075 64.7457 20.7604 64.7457 20.7113V19.0125C64.7457 18.9634 64.7259 18.9163 64.6908 18.8816C64.6556 18.8468 64.6079 18.8273 64.5581 18.8273H56.6834C56.6089 18.828 56.5377 18.8577 56.4852 18.9099C56.4327 18.9622 56.4033 19.0328 56.4033 19.1063V26.3804C56.4033 26.4538 56.4328 26.5241 56.4854 26.576C56.5379 26.6278 56.6091 26.657 56.6834 26.657H65.0308C65.0805 26.657 65.1282 26.6374 65.1634 26.6027C65.1986 26.568 65.2183 26.5209 65.2183 26.4718V24.7854C65.2164 24.7378 65.1957 24.6928 65.1606 24.6601C65.1256 24.6273 65.079 24.6094 65.0308 24.61Z" fill="white"/>
<path d="M27.5388 10.0171L22.8324 16.9134C22.7562 17.0129 22.7209 17.1373 22.7337 17.2615C22.7466 17.3856 22.8065 17.5004 22.9016 17.5827C22.9966 17.665 23.1197 17.7086 23.2461 17.705C23.3724 17.7013 23.4927 17.6505 23.5826 17.5628L28.214 13.6122C28.2407 13.588 28.274 13.5721 28.3097 13.5664C28.3455 13.5608 28.3822 13.5656 28.4152 13.5803C28.4482 13.595 28.4761 13.619 28.4955 13.6493C28.5148 13.6795 28.5248 13.7147 28.524 13.7504V26.1677C28.5237 26.2054 28.5116 26.2421 28.4896 26.2729C28.4675 26.3037 28.4365 26.3271 28.4006 26.3399C28.3647 26.3528 28.3257 26.3546 28.2888 26.345C28.2518 26.3354 28.2188 26.3149 28.194 26.2862L14.19 9.74304C13.9664 9.47745 13.6867 9.26337 13.3705 9.11579C13.0543 8.9682 12.7092 8.8907 12.3595 8.88872H11.8718C11.2358 8.88872 10.6258 9.13819 10.176 9.58226C9.7263 10.0263 9.47363 10.6286 9.47363 11.2566V28.743C9.47363 29.371 9.7263 29.9733 10.176 30.4174C10.6258 30.8615 11.2358 31.1109 11.8718 31.1109C12.2816 31.1109 12.6846 31.0071 13.0423 30.8096C13.3999 30.6121 13.7004 30.3273 13.9149 29.9825L18.6212 23.0862C18.6975 22.9867 18.7328 22.8624 18.7199 22.7382C18.7071 22.614 18.6471 22.4993 18.5521 22.417C18.457 22.3347 18.3339 22.291 18.2076 22.2947C18.0812 22.2984 17.961 22.3492 17.871 22.4369L13.2397 26.3875C13.213 26.4117 13.1797 26.4276 13.1439 26.4332C13.1082 26.4389 13.0715 26.4341 13.0385 26.4193C13.0054 26.4046 12.9775 26.3806 12.9582 26.3504C12.9388 26.3202 12.9289 26.285 12.9296 26.2492V13.8443C12.93 13.8066 12.942 13.7699 12.9641 13.7391C12.9861 13.7083 13.0172 13.6849 13.0531 13.6721C13.0889 13.6592 13.128 13.6574 13.1649 13.667C13.2018 13.6766 13.2349 13.6971 13.2597 13.7258L27.2637 30.269C27.489 30.5322 27.7697 30.7436 28.0863 30.8886C28.4029 31.0336 28.7477 31.1087 29.0967 31.1085H29.5969C29.9118 31.1085 30.2236 31.0472 30.5146 30.9282C30.8056 30.8092 31.0699 30.6348 31.2926 30.4149C31.5153 30.195 31.692 29.934 31.8125 29.6467C31.933 29.3594 31.995 29.0515 31.995 28.7406V11.2566C31.995 10.9444 31.9325 10.6353 31.8111 10.347C31.6896 10.0588 31.5116 9.79708 31.2873 9.577C31.063 9.35693 30.7969 9.18282 30.5042 9.06469C30.2115 8.94657 29.898 8.88676 29.5819 8.88872C29.172 8.88877 28.7691 8.99251 28.4114 9.19005C28.0537 9.38759 27.7533 9.67234 27.5388 10.0171Z" fill="white"/>
</svg>
