<svg width="1440" height="733" viewBox="0 0 1440 733" fill="none" xmlns="http://www.w3.org/2000/svg">
<rect x="-186" y="-86" width="1799" height="818" fill="#201F1F"/>
<path d="M1324.66 461.37C1328.57 433.314 1315.65 404.15 1288.67 375.396C1261.7 346.648 1220.76 318.404 1168.89 292.232C1065.16 239.891 917.856 195.912 751.574 172.728C585.293 149.544 431.578 151.555 317.485 173.526C260.435 184.512 213.334 200.481 179.528 220.755C145.715 241.034 125.307 265.55 121.395 293.607C117.483 321.663 130.407 350.827 157.384 379.581C184.355 408.329 225.292 436.573 277.161 462.745C380.893 515.086 528.196 559.065 694.477 582.249C860.759 605.433 1014.47 603.422 1128.57 581.451C1185.62 570.465 1232.72 554.496 1266.52 534.222C1300.34 513.943 1320.75 489.427 1324.66 461.37Z" stroke="white" stroke-width="1.5"/>
<path opacity="0.5" d="M1357.2 181.425C1349.84 153.962 1325.89 132.21 1288.61 116.464C1251.34 100.723 1200.86 91.0436 1140.73 87.6574C1020.46 80.8853 861.697 99.2911 692.966 144.502C524.236 189.714 377.542 253.154 276.772 319.153C226.384 352.155 187.515 385.773 163.108 418.041C138.693 450.318 128.83 481.13 136.189 508.593C143.547 536.056 167.495 557.808 204.777 573.554C242.048 589.295 292.519 598.974 352.658 602.361C472.927 609.133 631.687 590.727 800.417 545.516C969.148 500.304 1115.84 436.864 1216.61 370.865C1267 337.863 1305.87 304.245 1330.28 271.977C1354.69 239.7 1364.55 208.888 1357.2 181.425Z" stroke="white" stroke-width="1.5"/>
<path opacity="0.3" d="M1508.48 298.136C1504.43 196.686 1409.95 108.22 1259.89 47.3317C1109.9 -13.5277 904.679 -46.6995 679.775 -37.7195C454.87 -28.7394 252.943 20.6892 108.286 93.3133C-36.439 165.971 -123.564 261.689 -119.514 363.139C-115.463 464.589 -20.9834 553.056 129.074 613.943C279.061 674.803 484.286 707.975 709.19 698.995C934.095 690.015 1136.02 640.586 1280.68 567.962C1425.4 495.304 1512.53 399.586 1508.48 298.136Z" stroke="white" stroke-width="1.5"/>
<circle cx="344.158" cy="491.159" r="12" transform="rotate(-18.2805 344.158 491.159)" fill="#FF8743"/>
<circle cx="88.2109" cy="596.192" r="16" fill="#6038D0"/>
<circle cx="1013.11" cy="477.105" r="8" transform="rotate(-18.2805 1013.11 477.105)" fill="#19D992"/>
<circle cx="737.106" cy="171.105" r="8" transform="rotate(-18.2805 737.106 171.105)" fill="#19D992"/>
<circle cx="554.106" cy="593.105" r="8" transform="rotate(-18.2805 554.106 593.105)" fill="#19D992"/>
<circle cx="1339.21" cy="255.211" r="16" transform="rotate(-18.2805 1339.21 255.211)" fill="#6038D0"/>
<circle cx="281.211" cy="305.211" r="16" transform="rotate(-18.2805 281.211 305.211)" fill="#6038D0"/>
<circle cx="455.158" cy="157.159" r="12" transform="rotate(-18.2805 455.158 157.159)" fill="#FF8743"/>
<circle cx="1135.16" cy="581.159" r="12" transform="rotate(-18.2805 1135.16 581.159)" fill="#FF8743"/>
<path fill-rule="evenodd" clip-rule="evenodd" d="M1133.65 171C1133.74 178.591 1139.77 184.725 1147.22 184.793C1139.8 184.86 1133.79 190.948 1133.65 198.5L1133.65 198.5C1133.51 190.924 1127.46 184.821 1120 184.792C1127.48 184.763 1133.55 178.615 1133.65 171L1133.65 171Z" fill="white"/>
<path fill-rule="evenodd" clip-rule="evenodd" d="M54.6496 405C54.741 412.591 60.7724 418.725 68.2246 418.793C60.8004 418.86 54.7864 424.948 54.6509 432.5L54.6452 432.5C54.5093 424.924 48.457 418.821 40.9999 418.792C48.4847 418.763 54.5543 412.615 54.6465 405L54.6496 405Z" fill="white"/>
<path fill-rule="evenodd" clip-rule="evenodd" d="M1244.65 419C1244.74 426.591 1250.77 432.725 1258.22 432.793C1250.8 432.86 1244.79 438.948 1244.65 446.5L1244.65 446.5C1244.51 438.924 1238.46 432.821 1231 432.792C1238.48 432.763 1244.55 426.615 1244.65 419L1244.65 419Z" fill="white"/>
<path fill-rule="evenodd" clip-rule="evenodd" d="M328.65 88C328.741 95.5913 334.772 101.725 342.225 101.793C334.8 101.86 328.786 107.948 328.651 115.5L328.645 115.5C328.509 107.924 322.457 101.821 315 101.792C322.485 101.763 328.554 95.6151 328.646 88L328.65 88Z" fill="white"/>
</svg>
