<svg width="360" height="265" viewBox="0 0 360 265" fill="none" xmlns="http://www.w3.org/2000/svg">
<rect x="23" y="85.3931" width="301.607" height="103.925" rx="8" transform="rotate(-2.61158 23 85.3931)" fill="#E8E0FF"/>
<line x1="53.0684" y1="138.528" x2="297.014" y2="127.401" stroke="#6038D0" stroke-width="12"/>
<line x1="54.1641" y1="157.673" x2="210.803" y2="150.528" stroke="#6038D0" stroke-width="12"/>
<path d="M95.8208 185.88C185.669 224.325 280.252 218.097 294.592 179.274C308.932 140.451 266.601 89.0485 200.042 64.4631C138.122 41.5912 77.0473 49.9862 57.2887 82.5257" stroke="white" stroke-width="1.5"/>
<circle cx="297.534" cy="152.184" r="12" transform="rotate(-2.61158 297.534 152.184)" fill="#CFF9EA"/>
<path d="M303.411 149.367L293.525 149.818L291.152 157.134L301.3 156.671C301.502 156.662 303.411 149.367 303.411 149.367Z" fill="#0C422A"/>
<path fill-rule="evenodd" clip-rule="evenodd" d="M295.413 149.732L296.364 146.462C296.564 145.771 297.402 145.507 297.962 145.957C298.805 146.634 299.317 147.64 299.369 148.719L299.41 149.55L305.21 149.285C305.21 149.285 303.012 156.593 303.099 156.589L292.951 157.052L295.324 149.736L295.413 149.732Z" fill="#19D992"/>
<circle cx="229.891" cy="213.54" r="20" transform="rotate(-2.61158 229.891 213.54)" fill="#CFF9EA"/>
<path d="M239.687 208.844L223.209 209.596L219.256 221.789L236.169 221.017C236.505 221.002 239.687 208.844 239.687 208.844Z" fill="#0C422A"/>
<path fill-rule="evenodd" clip-rule="evenodd" d="M226.356 209.452L227.94 204.001C228.275 202.851 229.671 202.411 230.605 203.161C232.009 204.289 232.863 205.965 232.95 207.765L233.017 209.149L242.685 208.708C242.685 208.708 239.022 220.887 239.167 220.881L222.254 221.652L226.207 209.459L226.356 209.452Z" fill="#19D992"/>
<circle cx="131.891" cy="50.5401" r="20" transform="rotate(-2.61158 131.891 50.5401)" fill="#FFF3EC"/>
<path d="M123.218 57.9432L139.696 57.1916L143.65 44.9988L126.736 45.7702C126.4 45.7856 123.218 57.9432 123.218 57.9432Z" fill="#401700"/>
<path fill-rule="evenodd" clip-rule="evenodd" d="M136.627 57.331L135.265 62.0156C134.931 63.1658 133.535 63.6062 132.601 62.856C131.197 61.7276 130.343 60.0518 130.256 58.2525L130.225 57.623L120.221 58.0793C120.221 58.0793 123.885 45.8997 123.74 45.9064L140.653 45.1349L136.699 57.3277L136.627 57.331Z" fill="#FF8743"/>
<circle cx="199.534" cy="60.1844" r="12" transform="rotate(-2.61158 199.534 60.1844)" fill="#CFF9EA"/>
<path d="M205.411 57.3673L195.525 57.8182L193.152 65.1339L203.3 64.6711C203.502 64.6619 205.411 57.3673 205.411 57.3673Z" fill="#0C422A"/>
<path fill-rule="evenodd" clip-rule="evenodd" d="M197.413 57.7323L198.364 54.4616C198.564 53.7715 199.402 53.5072 199.962 53.9573C200.805 54.6344 201.317 55.6398 201.369 56.7195L201.41 57.55L207.21 57.2854C207.21 57.2854 205.012 64.5932 205.099 64.5892L194.951 65.0521L197.324 57.7364L197.413 57.7323Z" fill="#19D992"/>
<circle cx="155.534" cy="208.184" r="12" transform="rotate(-2.61158 155.534 208.184)" fill="#FFF3EC"/>
<path d="M150.331 212.626L160.218 212.175L162.59 204.859L152.442 205.322C152.24 205.331 150.331 212.626 150.331 212.626Z" fill="#401700"/>
<path fill-rule="evenodd" clip-rule="evenodd" d="M158.375 212.259L157.559 215.069C157.358 215.759 156.52 216.024 155.96 215.574C155.117 214.897 154.605 213.891 154.553 212.811L154.534 212.434L148.532 212.708C148.532 212.708 150.73 205.4 150.643 205.404L160.791 204.941L158.419 212.257L158.375 212.259Z" fill="#FF8743"/>
<mask id="mask0" mask-type="alpha" maskUnits="userSpaceOnUse" x="51" y="101" width="20" height="22">
<path fill-rule="evenodd" clip-rule="evenodd" d="M69.5279 101.585L55.5542 107.309L55.6825 110.125L51.9672 111.647L52.4749 122.783L66.4486 117.059L66.3203 114.243L70.0356 112.721L69.5279 101.585Z" fill="#ADD5E5"/>
</mask>
<g mask="url(#mask0)">
<path fill-rule="evenodd" clip-rule="evenodd" d="M69.5279 101.585L55.5542 107.309L55.6825 110.125L51.9672 111.647L52.4749 122.783L66.4486 117.059L66.3203 114.243L70.0356 112.721L69.5279 101.585Z" fill="#201F1F"/>
</g>
</svg>
