<svg width="360" height="265" viewBox="0 0 360 265" fill="none" xmlns="http://www.w3.org/2000/svg">
<rect x="138.953" y="204.725" width="83.0474" height="16" fill="#6038D0"/>
<rect x="138.953" y="162.059" width="83.0474" height="16" fill="#6038D0"/>
<rect x="78" y="209.296" width="60.9522" height="11.4285" fill="#6038D0"/>
<rect x="138.953" y="183.392" width="83.0474" height="16" fill="#6038D0"/>
<rect x="78" y="193.297" width="60.9522" height="11.4285" fill="#6038D0"/>
<rect x="78" y="177.297" width="60.9522" height="12.1904" fill="#6038D0"/>
<rect x="138.953" y="140.725" width="83.0474" height="16" fill="#6038D0"/>
<rect x="78" y="162.059" width="60.9522" height="11.4285" fill="#6038D0"/>
<rect x="222" y="209.297" width="60.9522" height="11.4285" fill="#6038D0"/>
<rect x="222" y="193.297" width="60.9522" height="11.4285" fill="#6038D0"/>
<rect x="222" y="177.297" width="60.9522" height="12.1904" fill="#6038D0"/>
<ellipse cx="179.457" cy="106.495" rx="16.7804" ry="19.5" transform="rotate(-25.0397 179.457 106.495)" fill="#FF8743"/>
<ellipse cx="183.457" cy="104.495" rx="16.7804" ry="19.5" transform="rotate(-25.0397 183.457 104.495)" fill="#E1FC31"/>
<path d="M52.8054 69.0005C52.4053 69.1077 52.1679 69.519 52.2751 69.9191L54.0221 76.4391C54.1294 76.8392 54.5406 77.0766 54.9407 76.9694C55.3408 76.8622 55.5782 76.4509 55.471 76.0508L53.9181 70.2553L59.7137 68.7024C60.1138 68.5952 60.3512 68.1839 60.244 67.7838C60.1368 67.3837 59.7255 67.1463 59.3254 67.2535L52.8054 69.0005ZM113.337 103.695L53.3746 69.0754L52.6246 70.3745L112.587 104.994L113.337 103.695Z" fill="white"/>
<path d="M313.649 69.9191C313.756 69.519 313.518 69.1077 313.118 69.0005L306.598 67.2535C306.198 67.1463 305.787 67.3837 305.68 67.7838C305.573 68.1839 305.81 68.5952 306.21 68.7024L312.006 70.2553L310.453 76.0508C310.346 76.4509 310.583 76.8622 310.983 76.9694C311.383 77.0766 311.794 76.8392 311.902 76.4391L313.649 69.9191ZM253.337 104.994L313.299 70.3745L312.549 69.0754L252.587 103.695L253.337 104.994Z" fill="white"/>
<path fill-rule="evenodd" clip-rule="evenodd" d="M183.095 48.5938C174.185 48.7004 166.995 55.8213 166.995 64.5899C166.995 64.6233 166.996 64.6566 166.996 64.6899L166.995 64.6899C166.995 64.6567 166.995 64.6234 166.995 64.5901C166.995 55.8556 159.862 48.7561 151 48.5956L151 48.5901C159.818 48.4303 166.925 41.4 166.995 32.7249C167.065 41.4345 174.228 48.4862 183.095 48.5917L183.095 48.5938Z" fill="#E8E0FF"/>
<path fill-rule="evenodd" clip-rule="evenodd" d="M144.009 86.7256C144.009 86.7006 144.009 86.6757 144.009 86.6507C144.009 80.0926 138.654 74.7622 132 74.6415L132 74.6373C138.621 74.5172 143.957 69.2387 144.009 62.7252C144.062 69.2647 149.44 74.5595 156.098 74.6385L156.098 74.6402C149.408 74.7203 144.01 80.0668 144.01 86.6506C144.01 86.6756 144.01 86.7006 144.01 86.7256L144.009 86.7256Z" fill="#E8E0FF"/>
<path d="M321.53 136.255C321.823 135.963 321.823 135.488 321.53 135.195L316.757 130.422C316.464 130.129 315.99 130.129 315.697 130.422C315.404 130.715 315.404 131.19 315.697 131.482L319.939 135.725L315.697 139.968C315.404 140.261 315.404 140.736 315.697 141.028C315.99 141.321 316.464 141.321 316.757 141.028L321.53 136.255ZM284 136.475H321V134.975H284V136.475Z" fill="white"/>
<path d="M45.4697 136.255C45.1768 135.963 45.1768 135.488 45.4697 135.195L50.2426 130.422C50.5355 130.129 51.0104 130.129 51.3033 130.422C51.5962 130.715 51.5962 131.19 51.3033 131.482L47.0607 135.725L51.3033 139.968C51.5962 140.261 51.5962 140.736 51.3033 141.028C51.0104 141.321 50.5355 141.321 50.2426 141.028L45.4697 136.255ZM84 136.475H46V134.975H84V136.475Z" fill="white"/>
</svg>
