<svg width="278" height="210" viewBox="0 0 278 210" fill="none" xmlns="http://www.w3.org/2000/svg">
<path d="M272.292 140.886C271.794 136.902 267.879 133.3 260.621 130.326C253.428 127.378 243.225 125.164 230.722 123.787C205.728 121.034 171.712 121.643 134.607 126.28C97.5027 130.917 64.383 138.699 40.8353 147.518C29.0558 151.93 19.7118 156.587 13.4651 161.214C7.16236 165.883 4.25412 170.338 4.7521 174.322C5.25009 178.307 9.16505 181.908 16.4231 184.883C23.6164 187.83 33.8192 190.044 46.3222 191.422C71.3161 194.174 105.332 193.565 142.437 188.928C179.541 184.291 212.661 176.51 236.209 167.69C247.988 163.279 257.332 158.622 263.579 153.994C269.882 149.325 272.79 144.871 272.292 140.886Z" stroke="white" stroke-width="1.5"/>
<circle cx="98.0827" cy="131.605" r="15.8795" fill="#E1FC31"/>
<circle cx="218.638" cy="169.605" r="15.8795" fill="#E1FC31"/>
<circle cx="29.8795" cy="187.605" r="15.8795" fill="#E1FC31"/>
<circle cx="186.88" cy="180.522" r="15.8795" fill="#E1FC31"/>
<circle cx="85.8795" cy="193.605" r="15.8795" fill="#E1FC31"/>
<path d="M95.8055 193.604C95.8055 199.086 91.362 203.529 85.8808 203.529C80.3995 203.529 75.9561 199.086 75.9561 193.604" stroke="#201F1F" stroke-width="1.5"/>
<circle cx="61.8795" cy="137.664" r="15.8795" fill="#E1FC31"/>
<path d="M71.8045 137.664C71.8045 143.145 67.3611 147.589 61.8798 147.589C56.3985 147.589 51.9551 143.145 51.9551 137.664" stroke="#201F1F" stroke-width="1.5"/>
<circle cx="242.88" cy="122.605" r="15.8795" fill="#E1FC31"/>
<path d="M252.805 122.604C252.805 128.086 248.361 132.529 242.88 132.529C237.399 132.529 232.955 128.086 232.955 122.604" stroke="#201F1F" stroke-width="1.5"/>
<mask id="mask0" mask-type="alpha" maskUnits="userSpaceOnUse" x="152" y="23" width="116" height="80">
<path fill-rule="evenodd" clip-rule="evenodd" d="M267.346 23.3987L190.217 30.8286L186.656 44.8864L166.148 46.862L152.068 102.449L229.197 95.0189L232.758 80.9611L253.265 78.9856L267.346 23.3987Z" fill="#6038D0"/>
</mask>
<g mask="url(#mask0)">
<path fill-rule="evenodd" clip-rule="evenodd" d="M267.346 23.3987L190.217 30.8286L186.656 44.8864L166.148 46.862L152.068 102.449L229.197 95.0189L232.758 80.9611L253.265 78.9856L267.346 23.3987Z" fill="#6038D0"/>
</g>
<line x1="166.966" y1="46.6851" x2="133.727" y2="177.909" stroke="white" stroke-width="1.5"/>
</svg>
