<svg width="83" height="111" viewBox="0 0 83 111" fill="none" xmlns="http://www.w3.org/2000/svg">
<path fill-rule="evenodd" clip-rule="evenodd" d="M54.97 68.7943C54.9701 68.7943 54.9703 68.7943 54.9704 68.7943C62.4805 68.7943 68.5793 62.6343 68.6706 55L68.6723 55C68.7639 62.634 74.8626 68.7938 82.3725 68.7938C82.401 68.7938 82.4295 68.7937 82.458 68.7935L82.458 68.7945C82.4295 68.7944 82.4009 68.7943 82.3723 68.7943C74.8914 68.7943 68.8109 74.9065 68.6735 82.4996L68.6692 82.4996C68.5318 74.9065 62.4513 68.7943 54.9704 68.7943C54.9703 68.7943 54.9701 68.7943 54.97 68.7943L54.97 68.7943Z" fill="#E1FC31"/>
<path fill-rule="evenodd" clip-rule="evenodd" d="M54.9466 96.7943C54.9467 96.7943 54.9468 96.7943 54.947 96.7943C62.457 96.7943 68.5558 90.6343 68.6471 83L68.6489 83C68.7405 90.634 74.8391 96.7938 82.349 96.7938C82.3776 96.7938 82.4061 96.7937 82.4346 96.7935L82.4346 96.7945C82.406 96.7944 82.3775 96.7943 82.3489 96.7943C74.868 96.7943 68.7874 102.906 68.6501 110.5L68.6458 110.5C68.5084 102.907 62.4278 96.7943 54.947 96.7943C54.9468 96.7943 54.9467 96.7943 54.9466 96.7943L54.9466 96.7943Z" fill="#E1FC31"/>
<path fill-rule="evenodd" clip-rule="evenodd" d="M68.6723 27.5C68.7637 35.1071 74.8199 41.2502 82.2933 41.2933C74.8483 41.3361 68.8098 47.4327 68.6735 54.9996L68.6693 54.9996C68.5328 47.4241 62.4807 41.3223 55.024 41.2932C62.5092 41.264 68.579 35.1156 68.6706 27.5L68.6723 27.5ZM82.458 41.2932C82.4558 41.2933 82.4536 41.2933 82.4515 41.2933C82.4536 41.2933 82.4558 41.2933 82.458 41.2933L82.458 41.2932Z" fill="#E1FC31"/>
<path fill-rule="evenodd" clip-rule="evenodd" d="M41.1371 27.5C41.2285 35.1071 47.2846 41.2502 54.7581 41.2933C47.3131 41.3361 41.2745 47.4327 41.1383 54.9996L41.1339 54.9996C40.9975 47.4241 34.9454 41.3223 27.4887 41.2932C34.9738 41.264 41.0436 35.1156 41.1352 27.5L41.1371 27.5ZM54.9229 41.2932C54.9206 41.2933 54.9184 41.2933 54.9162 41.2933C54.9184 41.2933 54.9206 41.2933 54.9229 41.2933L54.9229 41.2932Z" fill="#E1FC31"/>
<path fill-rule="evenodd" clip-rule="evenodd" d="M13.6487 27.5C13.7401 35.1071 19.7962 41.2502 27.2697 41.2933C19.8246 41.3361 13.7861 47.4327 13.6498 54.9996L13.6454 54.9996C13.509 47.4241 7.45685 41.3223 0.000163429 41.2932C7.4853 41.264 13.5551 35.1156 13.6467 27.5L13.6487 27.5ZM27.4346 41.2932C27.4323 41.2933 27.43 41.2933 27.4278 41.2933C27.43 41.2933 27.4323 41.2933 27.4346 41.2933L27.4346 41.2932Z" fill="#E1FC31"/>
<path fill-rule="evenodd" clip-rule="evenodd" d="M13.6967 -5.94777e-07C13.7884 7.59996 19.8338 13.7385 27.2979 13.7923C19.8615 13.8458 13.8332 19.9388 13.6976 27.4996L13.6934 27.4996C13.5575 19.9236 7.50517 13.8212 0.0481256 13.7921C7.5329 13.7629 13.6025 7.61514 13.6947 -5.94866e-07L13.6967 -5.94777e-07Z" fill="#E1FC31"/>
<path fill-rule="evenodd" clip-rule="evenodd" d="M68.6722 -5.94054e-07C68.7637 7.59447 74.8003 13.7297 82.2568 13.7924C74.8282 13.855 68.8089 19.9445 68.6734 27.4996L68.6691 27.4996C68.5333 19.9236 62.4809 13.8212 55.0239 13.7921C62.5086 13.7629 68.5782 7.61514 68.6704 -5.94133e-07L68.6722 -5.94054e-07Z" fill="#E1FC31"/>
</svg>
