<svg width="83" height="110" viewBox="0 0 83 110" fill="none" xmlns="http://www.w3.org/2000/svg">
<path fill-rule="evenodd" clip-rule="evenodd" d="M68.7034 110C68.5661 102.413 62.4956 96.3045 55.0234 96.2943C62.5248 96.284 68.6135 90.1279 68.7047 82.5L68.7065 82.5C68.7981 90.134 74.8967 96.2938 82.4066 96.2938C82.4352 96.2938 82.4637 96.2937 82.4922 96.2935L82.4922 96.2945C82.4636 96.2944 82.4351 96.2943 82.4065 96.2943C74.9256 96.2943 68.845 102.406 68.7077 110L68.7034 110Z" fill="#19D992"/>
<path fill-rule="evenodd" clip-rule="evenodd" d="M41.168 110C41.0308 102.413 34.9603 96.3045 27.488 96.2943C34.9895 96.284 41.0781 90.1279 41.1694 82.5L41.1712 82.5C41.2628 90.134 47.3615 96.2938 54.8714 96.2938C54.9 96.2938 54.9285 96.2937 54.957 96.2935L54.957 96.2945C54.9284 96.2944 54.8998 96.2943 54.8711 96.2943C47.3903 96.2943 41.3097 102.406 41.1723 110L41.168 110Z" fill="#19D992"/>
<path fill-rule="evenodd" clip-rule="evenodd" d="M13.6795 110C13.5423 102.413 7.47177 96.3045 -0.000483162 96.2943C7.50094 96.284 13.5896 90.1279 13.6809 82.5L13.6829 82.5C13.7744 90.134 19.8731 96.2938 27.383 96.2938C27.4116 96.2938 27.4402 96.2937 27.4687 96.2935L27.4687 96.2945C27.4401 96.2944 27.4114 96.2943 27.3827 96.2943C19.9018 96.2943 13.8212 102.406 13.6838 110L13.6795 110Z" fill="#19D992"/>
<path fill-rule="evenodd" clip-rule="evenodd" d="M41.1693 55C41.2607 62.6071 47.3168 68.7502 54.7903 68.7933C47.3453 68.8361 41.3067 74.9327 41.1705 82.4996L41.1661 82.4996C41.0297 74.9265 34.9815 68.8262 27.5281 68.7932C35.0099 68.76 41.0758 62.6132 41.1674 55L41.1693 55ZM54.9551 68.7932C54.9529 68.7933 54.9506 68.7933 54.9484 68.7933C54.9506 68.7933 54.9529 68.7933 54.9551 68.7933L54.9551 68.7932Z" fill="#19D992"/>
<path fill-rule="evenodd" clip-rule="evenodd" d="M13.7309 27.5C13.8226 35.0999 19.868 41.2384 27.332 41.2923C19.8956 41.3457 13.8674 47.4388 13.7318 54.9996L13.7275 54.9996C13.5918 47.426 7.5433 41.325 0.0895399 41.292C7.57096 41.2588 13.6367 35.1126 13.7288 27.5L13.7309 27.5Z" fill="#19D992"/>
<path fill-rule="evenodd" clip-rule="evenodd" d="M0.0256571 13.7939C7.53556 13.7939 13.6343 7.63407 13.7257 -6.02944e-07L13.7278 -6.02856e-07C13.8193 7.63401 19.918 13.7937 27.4279 13.7937C27.4565 13.7937 27.4851 13.7936 27.5137 13.7935L27.5137 13.7947C27.4851 13.7945 27.4564 13.7944 27.4278 13.7944C19.947 13.7944 13.8664 19.9066 13.729 27.4996L13.7244 27.4996C13.5869 19.9066 7.50645 13.7945 0.0256571 13.7944L0.0256571 13.7939Z" fill="#19D992"/>
<path fill-rule="evenodd" clip-rule="evenodd" d="M41.2129 27.4996C41.0755 19.9066 34.9949 13.7944 27.5141 13.7944C27.5141 13.7944 27.514 13.7944 27.5139 13.7944L27.5139 13.7939C27.514 13.7939 27.5141 13.7939 27.5141 13.7939C35.024 13.7939 41.1228 7.63409 41.2143 -6.02934e-07L41.2159 -6.02864e-07C41.3074 7.63401 47.4061 13.7937 54.916 13.7937C54.9447 13.7937 54.9733 13.7936 55.002 13.7935L55.002 13.7947C54.9734 13.7945 54.9449 13.7944 54.9163 13.7944C47.4355 13.7944 41.3549 19.9066 41.2175 27.4996L41.2129 27.4996Z" fill="#19D992"/>
<path fill-rule="evenodd" clip-rule="evenodd" d="M68.7064 27.5C68.7979 35.0944 74.8345 41.2296 82.291 41.2924C74.8624 41.3549 68.8431 47.4445 68.7076 54.9996L68.7033 54.9996C68.5675 47.426 62.519 41.3251 55.0653 41.292C62.5467 41.2588 68.6124 35.1126 68.7046 27.5L68.7064 27.5Z" fill="#19D992"/>
<path fill-rule="evenodd" clip-rule="evenodd" d="M41.1693 27.5C41.2608 35.0944 47.2974 41.2296 54.7539 41.2924C47.3253 41.3549 41.306 47.4445 41.1705 54.9996L41.1661 54.9996C41.0303 47.426 34.9818 41.325 27.5281 41.292C35.0095 41.2588 41.0752 35.1126 41.1673 27.5L41.1693 27.5Z" fill="#19D992"/>
</svg>
