<svg width="82" height="110" viewBox="0 0 82 110" fill="none" xmlns="http://www.w3.org/2000/svg">
<path fill-rule="evenodd" clip-rule="evenodd" d="M68.2945 0.0664062C68.2943 0.0945984 68.2942 0.122811 68.2942 0.151043C68.2942 7.63192 74.4065 13.7125 81.9996 13.8499L81.9996 13.8547C74.4129 13.992 68.3045 20.0625 68.2943 27.5347C68.284 20.0333 62.1279 13.9446 54.5 13.8534L54.5 13.8518C62.134 13.7603 68.2938 7.6616 68.2938 0.151704C68.2938 0.123251 68.2937 0.0948184 68.2935 0.0664062L68.2945 0.0664062Z" fill="#FF8743"/>
<path fill-rule="evenodd" clip-rule="evenodd" d="M27 13.8518C34.6071 13.7605 40.7502 7.70433 40.7933 0.23088C40.8361 7.67594 46.9327 13.7145 54.4996 13.8508L54.4996 13.8547C46.9265 13.9911 40.8262 20.0393 40.7932 27.4927C40.76 20.0109 34.6132 13.945 27 13.8534L27 13.8518ZM40.7932 0.0664062C40.7933 0.068523 40.7933 0.0706398 40.7933 0.0727568C40.7933 0.0706398 40.7933 0.068523 40.7933 0.0664062L40.7932 0.0664062Z" fill="#FF8743"/>
<path fill-rule="evenodd" clip-rule="evenodd" d="M81.9996 68.7849C74.4129 68.9222 68.3045 74.9927 68.2943 82.4649C68.284 74.9635 62.1279 68.8748 54.5 68.7836L54.5 68.7818C62.134 68.6902 68.2938 62.5915 68.2938 55.0816C68.2938 55.0531 68.2937 55.0246 68.2935 54.9961L68.2945 54.9961C68.2944 55.0246 68.2943 55.0532 68.2943 55.0818C68.2943 62.5627 74.4065 68.6432 81.9996 68.7806L81.9996 68.7849Z" fill="#FF8743"/>
<path fill-rule="evenodd" clip-rule="evenodd" d="M81.9996 96.3202C74.4129 96.4575 68.3045 102.528 68.2943 110C68.284 102.499 62.1279 96.4101 54.5 96.3189L54.5 96.317C62.134 96.2255 68.2938 90.1268 68.2938 82.6169C68.2938 82.5883 68.2937 82.5598 68.2935 82.5312L68.2945 82.5312C68.2944 82.5599 68.2943 82.5885 68.2943 82.6171C68.2943 90.098 74.4065 96.1786 81.9996 96.316L81.9996 96.3202Z" fill="#FF8743"/>
<path fill-rule="evenodd" clip-rule="evenodd" d="M27 96.319C34.6071 96.2276 40.7502 90.1714 40.7933 82.698C40.8361 90.143 46.9327 96.1815 54.4996 96.3178L54.4996 96.3222C46.9265 96.4585 40.8262 102.507 40.7932 109.96C40.76 102.478 34.6132 96.4124 27 96.3209L27 96.319ZM40.7932 82.5332C40.7933 82.5354 40.7933 82.5376 40.7933 82.5398C40.7933 82.5376 40.7933 82.5354 40.7933 82.5332H40.7932Z" fill="#FF8743"/>
<path fill-rule="evenodd" clip-rule="evenodd" d="M-2.54386e-10 96.319C7.60708 96.2276 13.7502 90.1714 13.7933 82.698C13.8361 90.143 19.9327 96.1815 27.4996 96.3178L27.4996 96.3222C19.9265 96.4585 13.8262 102.507 13.7932 109.96C13.76 102.478 7.61319 96.4124 -2.54421e-10 96.3209L-2.54386e-10 96.319ZM13.7932 82.5332C13.7933 82.5354 13.7933 82.5376 13.7933 82.5398C13.7933 82.5376 13.7933 82.5354 13.7933 82.5332H13.7932Z" fill="#FF8743"/>
<path fill-rule="evenodd" clip-rule="evenodd" d="M27 41.295L27 41.2937C34.6165 41.202 40.7653 35.1308 40.7931 27.6444C40.8209 35.1023 46.9232 41.1557 54.4996 41.2921L54.4996 41.2963C46.9241 41.4327 40.8222 47.4848 40.7931 54.9416C40.7639 47.4564 34.6156 41.3866 27 41.295ZM40.7933 27.5078C40.7932 27.5193 40.7931 27.5308 40.7931 27.5424C40.793 27.5308 40.793 27.5193 40.7929 27.5078L40.7933 27.5078Z" fill="#FF8743"/>
</svg>
