<svg width="83" height="83" viewBox="0 0 83 83" fill="none" xmlns="http://www.w3.org/2000/svg">
<path fill-rule="evenodd" clip-rule="evenodd" d="M55.0237 68.7943C55.0238 68.7943 55.024 68.7943 55.0241 68.7943C62.5342 68.7943 68.633 62.6343 68.7243 55L68.726 55C68.8176 62.634 74.9163 68.7938 82.4262 68.7938C82.4547 68.7938 82.4832 68.7937 82.5117 68.7935L82.5117 68.7945C82.4832 68.7944 82.4546 68.7943 82.426 68.7943C74.9452 68.7943 68.8646 74.9065 68.7272 82.4996L68.7229 82.4996C68.5855 74.9065 62.505 68.7943 55.0241 68.7943C55.024 68.7943 55.0238 68.7943 55.0237 68.7943L55.0237 68.7943Z" fill="#F6E3DD"/>
<path fill-rule="evenodd" clip-rule="evenodd" d="M0.000266426 68.7943C0.000272148 68.7943 0.000275963 68.7943 0.000281685 68.7943C7.51033 68.7943 13.6091 62.6343 13.7004 55L13.7024 55C13.794 62.634 19.8927 68.7938 27.4025 68.7938C27.4311 68.7938 27.4597 68.7937 27.4883 68.7935L27.4883 68.7945C27.4596 68.7944 27.4309 68.7943 27.4022 68.7943C19.9213 68.7943 13.8408 74.9065 13.7034 82.4996L13.6991 82.4996C13.5617 74.9065 7.48114 68.7943 0.000279778 68.7943L0.000266426 68.7943Z" fill="#F6E3DD"/>
<path fill-rule="evenodd" clip-rule="evenodd" d="M68.7261 27.501C68.8174 35.1081 74.8736 41.2512 82.3471 41.2943C74.902 41.3371 68.8635 47.4337 68.7272 55.0006L68.723 55.0006C68.5865 47.4251 62.5344 41.3233 55.0777 41.2942C62.5629 41.2649 68.6327 35.1166 68.7243 27.501L68.7261 27.501ZM82.5117 41.2942C82.5095 41.2942 82.5074 41.2943 82.5052 41.2943C82.5074 41.2943 82.5095 41.2943 82.5117 41.2943L82.5117 41.2942Z" fill="#F6E3DD"/>
<path fill-rule="evenodd" clip-rule="evenodd" d="M41.1908 27.501C41.2822 35.1081 47.3383 41.2512 54.8118 41.2943C47.3668 41.3371 41.3283 47.4337 41.192 55.0006L41.1876 55.0006C41.0512 47.4251 34.9991 41.3233 27.5424 41.2942C35.0275 41.265 41.0973 35.1166 41.1889 27.501L41.1908 27.501ZM54.9766 41.2942C54.9744 41.2942 54.9721 41.2943 54.9699 41.2943C54.9721 41.2943 54.9744 41.2943 54.9766 41.2943L54.9766 41.2942Z" fill="#F6E3DD"/>
<path fill-rule="evenodd" clip-rule="evenodd" d="M13.7024 27.501C13.7938 35.108 19.8499 41.2511 27.3234 41.2943C19.8783 41.3371 13.8398 47.4336 13.7035 55.0006L13.6991 55.0006C13.5627 47.4251 7.51055 41.3233 0.0538725 41.2942C7.539 41.2649 13.6088 35.1166 13.7004 27.501L13.7024 27.501ZM27.4883 41.2942C27.486 41.2942 27.4838 41.2942 27.4815 41.2943C27.4838 41.2943 27.486 41.2943 27.4883 41.2943L27.4883 41.2942Z" fill="#F6E3DD"/>
<path fill-rule="evenodd" clip-rule="evenodd" d="M13.7504 -5.94777e-07C13.8421 7.59996 19.8875 13.7385 27.3516 13.7923C19.9152 13.8458 13.8869 19.9388 13.7513 27.4996L13.7471 27.4996C13.6112 19.9236 7.55888 13.8212 0.101835 13.7921C7.58661 13.7629 13.6562 7.61514 13.7484 -5.94866e-07L13.7504 -5.94777e-07Z" fill="#F6E3DD"/>
<path fill-rule="evenodd" clip-rule="evenodd" d="M68.7259 -5.94054e-07C68.8174 7.59447 74.854 13.7297 82.3105 13.7924C74.8819 13.855 68.8626 19.9445 68.7272 27.4996L68.7228 27.4996C68.587 19.9236 62.5346 13.8212 55.0776 13.7921C62.5624 13.7629 68.632 7.61514 68.7241 -5.94133e-07L68.7259 -5.94054e-07Z" fill="#F6E3DD"/>
<path fill-rule="evenodd" clip-rule="evenodd" d="M41.1907 -5.94053e-07C41.2823 7.59447 47.3188 13.7297 54.7754 13.7924C47.3468 13.855 41.3275 19.9445 41.192 27.4996L41.1876 27.4996C41.0517 19.9236 34.9994 13.8212 27.5423 13.7921C35.0271 13.7629 41.0967 7.61514 41.1888 -5.94137e-07L41.1907 -5.94053e-07Z" fill="#F6E3DD"/>
</svg>
