<svg width="43" height="10" viewBox="0 0 43 10" fill="none" xmlns="http://www.w3.org/2000/svg">
<path d="M8.88889 0.138889V9.86111C8.88838 9.8978 8.87266 9.93285 8.84509 9.95879C8.81751 9.98473 8.78026 9.99952 8.74127 10H7.66657C7.4199 10.0002 7.17712 9.94213 6.96047 9.83115C6.74383 9.72018 6.56024 9.55984 6.42653 9.36481L1.54906 2.27222L1.71637 5.81482V9.86111C1.71586 9.8978 1.70014 9.93285 1.67257 9.95879C1.64499 9.98473 1.60774 9.99952 1.56874 10H0.147623C0.10863 9.99952 0.0713766 9.98473 0.0438016 9.95879C0.0162266 9.93285 0.000509785 9.8978 0 9.86111V0.138889C0.000509785 0.102202 0.0162266 0.0671535 0.0438016 0.04121C0.0713766 0.0152666 0.10863 0.000479623 0.147623 0H1.21641C1.4628 0.000123286 1.70527 0.0581124 1.92181 0.168708C2.13835 0.279303 2.32212 0.439006 2.45645 0.633333L7.33392 7.71482L7.18236 4.18518V0.138889C7.18236 0.102053 7.19792 0.0667262 7.2256 0.0406795C7.25329 0.0146328 7.29083 0 7.32999 0H8.75111C8.78836 0.00277407 8.82316 0.0185679 8.84867 0.0442724C8.87416 0.0699768 8.88851 0.10373 8.88889 0.138889Z" fill="#201F1F"/>
<path d="M22.7165 9.99998H21.2536C21.2307 9.99977 21.2082 9.99428 21.188 9.98398C21.1678 9.97368 21.1504 9.95886 21.1373 9.94074C21.1242 9.92263 21.1157 9.90175 21.1126 9.87985C21.1096 9.85794 21.1119 9.83564 21.1195 9.8148L24.995 0.133461C25.0116 0.0929254 25.0407 0.0583471 25.0785 0.0344739C25.1162 0.0106008 25.1606 -0.00139668 25.2056 0.000129468H27.0381C27.0815 0.000491539 27.1238 0.0133719 27.1596 0.037123C27.1954 0.0608741 27.2231 0.0944166 27.2391 0.133461L31.1031 9.8148C31.1107 9.83564 31.1131 9.85794 31.11 9.87985C31.1069 9.90175 31.0985 9.92263 31.0854 9.94074C31.0723 9.95886 31.0549 9.97368 31.0346 9.98398C31.0144 9.99428 30.9919 9.99977 30.9691 9.99998H29.5062C29.4769 10.0001 29.4483 9.99169 29.424 9.97583C29.3998 9.95998 29.381 9.93741 29.3703 9.91109L26.2473 1.94825C26.2372 1.92144 26.2189 1.89827 26.1947 1.8819C26.1706 1.86553 26.1418 1.85675 26.1123 1.85675C26.0828 1.85675 26.054 1.86553 26.0299 1.8819C26.0057 1.89827 25.9874 1.92144 25.9773 1.94825L22.8543 9.91109C22.8434 9.93771 22.8244 9.96048 22.7997 9.97636C22.7751 9.99224 22.7461 10.0005 22.7165 9.99998Z" fill="#201F1F"/>
<path d="M42.1887 9.76327L39.0069 6.17718C40.8032 5.87757 41.8533 4.80858 41.8533 3.16812C41.8533 1.28352 40.4637 0 38.005 0H33.5678C33.5055 0 33.4458 0.0218236 33.4018 0.0606697C33.3577 0.0995158 33.333 0.152202 33.333 0.207139C33.333 0.382008 33.372 0.555165 33.4479 0.716723C33.5237 0.878281 33.6349 1.02508 33.775 1.14873C33.9152 1.27238 34.0815 1.37046 34.2646 1.43738C34.4477 1.5043 34.644 1.53875 34.8421 1.53875H37.8206C39.3067 1.53875 40.0193 2.2101 40.0193 3.17921C40.0193 4.14833 39.3234 4.84372 37.8206 4.84372H33.5678C33.5053 4.84421 33.4456 4.86644 33.4016 4.90558C33.3577 4.94472 33.333 4.9976 33.333 5.05271V9.86129C33.333 9.89808 33.3496 9.93336 33.3791 9.95937C33.4085 9.98539 33.4485 10 33.4902 10H35.0035C35.0451 9.99952 35.0847 9.98475 35.1141 9.95884C35.1435 9.93293 35.1602 9.89793 35.1607 9.86129V6.2641H36.9067L39.6672 9.44331C39.815 9.61344 40.0055 9.75106 40.2237 9.84539C40.4418 9.93972 40.6818 9.98821 40.9248 9.98705H42.0734C42.1021 9.98565 42.1297 9.97736 42.1534 9.96306C42.1771 9.94876 42.1959 9.92901 42.2078 9.90596C42.2197 9.8829 42.2242 9.85741 42.2208 9.83226C42.2174 9.8071 42.2063 9.78325 42.1887 9.76327Z" fill="#201F1F"/>
<path d="M18.7475 0H12.4118C12.3616 0 12.3135 0.0195248 12.278 0.0542796C12.2426 0.0890343 12.2227 0.136172 12.2227 0.185322C12.2227 0.545596 12.3687 0.891114 12.6287 1.14587C12.8887 1.40062 13.2413 1.54374 13.6089 1.54374H18.7475C18.7662 1.54399 18.7847 1.54056 18.802 1.53366C18.8194 1.52677 18.8351 1.51654 18.8483 1.50358C18.8616 1.49063 18.872 1.4752 18.879 1.45823C18.8861 1.44125 18.8896 1.42307 18.8893 1.40474V0.138992C18.8893 0.102129 18.8744 0.0667757 18.8478 0.0407097C18.8212 0.0146436 18.7851 0 18.7475 0ZM18.7475 8.46368H14.0193C13.9819 8.4632 13.9461 8.4484 13.9196 8.42244C13.8931 8.39647 13.878 8.3614 13.8775 8.32469V5.81542C13.8775 5.77856 13.8924 5.7432 13.919 5.71714C13.9456 5.69107 13.9817 5.67643 14.0193 5.67643H18.39C18.4276 5.67643 18.4637 5.66178 18.4903 5.63572C18.5169 5.60965 18.5319 5.5743 18.5319 5.53743V4.26242C18.5319 4.22555 18.5169 4.1902 18.4903 4.16413C18.4637 4.13807 18.4276 4.12343 18.39 4.12343H12.4345C12.3781 4.12391 12.3243 4.14619 12.2846 4.18541C12.2449 4.22463 12.2227 4.27762 12.2227 4.33284V9.79244C12.2227 9.84749 12.245 9.90028 12.2847 9.93921C12.3244 9.97813 12.3783 10 12.4345 10H18.7475C18.7851 10 18.8212 9.98536 18.8478 9.95929C18.8744 9.93322 18.8893 9.89787 18.8893 9.86101V8.59525C18.8878 8.55953 18.8722 8.52579 18.8457 8.50121C18.8192 8.47663 18.7839 8.46316 18.7475 8.46368Z" fill="#201F1F"/>
</svg>
