<svg width="163" height="63" viewBox="0 0 163 63" fill="none" xmlns="http://www.w3.org/2000/svg">
<path d="M81.394 21.2332V41.5935C81.3929 41.6704 81.3616 41.7438 81.3065 41.7981C81.2515 41.8524 81.1772 41.8834 81.0994 41.8844H78.9548C78.4626 41.8848 77.9781 41.7632 77.5458 41.5308C77.1135 41.2984 76.7472 40.9626 76.4803 40.5542L66.7474 25.7009L67.0812 33.1198V41.5935C67.0802 41.6704 67.0489 41.7438 66.9938 41.7981C66.9388 41.8524 66.8645 41.8834 66.7867 41.8844H63.9508C63.873 41.8834 63.7987 41.8524 63.7437 41.7981C63.6886 41.7438 63.6573 41.6704 63.6562 41.5935V21.2332C63.6573 21.1564 63.6886 21.083 63.7437 21.0287C63.7987 20.9744 63.873 20.9434 63.9508 20.9424H66.0836C66.5753 20.9426 67.0591 21.0641 67.4912 21.2957C67.9233 21.5273 68.29 21.8618 68.5581 22.2687L78.291 37.0988L77.9886 29.707V21.2332C77.9886 21.1561 78.0196 21.0821 78.0749 21.0276C78.1301 20.973 78.205 20.9424 78.2832 20.9424H81.119C81.1933 20.9482 81.2628 20.9813 81.3137 21.0351C81.3646 21.0889 81.3932 21.1596 81.394 21.2332Z" fill="white"/>
<path d="M110.373 41.8837H107.372C107.325 41.8833 107.279 41.8718 107.237 41.8502C107.196 41.8286 107.16 41.7976 107.133 41.7597C107.106 41.7217 107.089 41.678 107.083 41.6321C107.076 41.5862 107.081 41.5395 107.097 41.4959L115.047 21.2209C115.081 21.136 115.14 21.0636 115.218 21.0136C115.295 20.9636 115.386 20.9385 115.479 20.9417H119.238C119.327 20.9424 119.413 20.9694 119.487 21.0192C119.56 21.0689 119.617 21.1391 119.65 21.2209L127.576 41.4959C127.592 41.5395 127.597 41.5862 127.59 41.6321C127.584 41.678 127.567 41.7217 127.54 41.7597C127.513 41.7976 127.477 41.8286 127.436 41.8502C127.394 41.8718 127.348 41.8833 127.301 41.8837H124.3C124.24 41.884 124.182 41.8664 124.132 41.8331C124.082 41.7999 124.044 41.7527 124.022 41.6976L117.615 25.0215C117.595 24.9653 117.557 24.9168 117.508 24.8825C117.458 24.8483 117.399 24.8299 117.339 24.8299C117.278 24.8299 117.219 24.8483 117.169 24.8825C117.12 24.9168 117.082 24.9653 117.062 25.0215L110.655 41.6976C110.633 41.7533 110.594 41.801 110.544 41.8342C110.493 41.8675 110.433 41.8848 110.373 41.8837Z" fill="white"/>
<path d="M148.404 41.4152L142.442 33.8954C145.808 33.2672 147.776 31.0256 147.776 27.5857C147.776 23.6338 145.172 20.9424 140.565 20.9424H132.249C132.133 20.9424 132.021 20.9881 131.938 21.0696C131.856 21.1511 131.81 21.2615 131.81 21.3767C131.81 21.7434 131.883 22.1065 132.025 22.4453C132.167 22.7841 132.375 23.0919 132.638 23.3512C132.9 23.6105 133.212 23.8161 133.555 23.9565C133.898 24.0968 134.266 24.169 134.638 24.169H140.219C143.004 24.169 144.339 25.5768 144.339 27.6089C144.339 29.6411 143.035 31.0993 140.219 31.0993H132.249C132.132 31.1003 132.021 31.1469 131.938 31.229C131.856 31.3111 131.81 31.4219 131.81 31.5375V41.6207C131.81 41.6978 131.841 41.7718 131.896 41.8264C131.951 41.8809 132.026 41.9116 132.104 41.9116H134.94C135.018 41.9106 135.092 41.8796 135.147 41.8253C135.202 41.7709 135.234 41.6975 135.235 41.6207V34.0777H138.506L143.679 40.7442C143.956 41.101 144.313 41.3895 144.722 41.5874C145.131 41.7852 145.581 41.8868 146.036 41.8844H148.188C148.242 41.8815 148.294 41.8641 148.338 41.8341C148.383 41.8041 148.418 41.7627 148.44 41.7144C148.462 41.666 148.471 41.6126 148.465 41.5598C148.458 41.5071 148.437 41.457 148.404 41.4152Z" fill="white"/>
<path d="M101.402 20.9424H88.2443C88.1402 20.9424 88.0403 20.9832 87.9666 21.056C87.8929 21.1287 87.8516 21.2273 87.8516 21.3302C87.8516 22.0841 88.1549 22.8072 88.6948 23.3403C89.2347 23.8734 89.967 24.1729 90.7306 24.1729H101.402C101.441 24.1734 101.48 24.1662 101.516 24.1518C101.552 24.1374 101.584 24.116 101.612 24.0889C101.639 24.0617 101.661 24.0295 101.676 23.9939C101.69 23.9584 101.697 23.9204 101.697 23.882V21.2332C101.697 21.1561 101.666 21.0821 101.611 21.0276C101.555 20.973 101.48 20.9424 101.402 20.9424ZM101.402 38.6539H91.5829C91.5051 38.6529 91.4308 38.6219 91.3758 38.5676C91.3207 38.5133 91.2894 38.4399 91.2883 38.3631V33.112C91.2883 33.0349 91.3194 32.9609 91.3746 32.9064C91.4299 32.8518 91.5048 32.8212 91.5829 32.8212H100.66C100.738 32.8212 100.813 32.7905 100.868 32.736C100.924 32.6814 100.955 32.6074 100.955 32.5303V29.8621C100.955 29.785 100.924 29.711 100.868 29.6565C100.813 29.6019 100.738 29.5713 100.66 29.5713H88.2915C88.1744 29.5723 88.0626 29.6189 87.9802 29.701C87.8978 29.7831 87.8516 29.8939 87.8516 30.0095V41.4345C87.8516 41.5497 87.8979 41.6602 87.9804 41.7417C88.0629 41.8231 88.1748 41.8689 88.2915 41.8689H101.402C101.48 41.8689 101.555 41.8383 101.611 41.7837C101.666 41.7292 101.697 41.6552 101.697 41.578V38.9293C101.694 38.8545 101.661 38.7839 101.606 38.7325C101.551 38.681 101.478 38.6528 101.402 38.6539Z" fill="white"/>
<path d="M42.5147 15.7333L35.1227 26.565C35.0029 26.7213 34.9475 26.9167 34.9676 27.1117C34.9878 27.3067 35.082 27.487 35.2313 27.6162C35.3806 27.7454 35.5739 27.814 35.7724 27.8082C35.9708 27.8025 36.1597 27.7227 36.301 27.585L43.5752 21.3799C43.6171 21.3419 43.6694 21.317 43.7256 21.3081C43.7818 21.2992 43.8394 21.3068 43.8912 21.3299C43.9431 21.353 43.9869 21.3907 44.0173 21.4382C44.0477 21.4857 44.0633 21.5409 44.0622 21.5971V41.1003C44.0616 41.1595 44.0427 41.2172 44.0081 41.2655C43.9734 41.3138 43.9247 41.3506 43.8683 41.3708C43.8119 41.3911 43.7507 41.3938 43.6927 41.3787C43.6347 41.3637 43.5827 41.3315 43.5437 41.2865L21.5484 15.3029C21.1972 14.8857 20.7579 14.5495 20.2613 14.3177C19.7646 14.0859 19.2226 13.9641 18.6732 13.961H17.9073C16.9083 13.961 15.9503 14.3528 15.2439 15.0503C14.5375 15.7478 14.1406 16.6938 14.1406 17.6802V45.1453C14.1406 46.1316 14.5375 47.0776 15.2439 47.7751C15.9503 48.4726 16.9083 48.8644 17.9073 48.8644C18.551 48.8643 19.1839 48.7014 19.7457 48.3911C20.3075 48.0808 20.7794 47.6336 21.1163 47.0921L28.5083 36.2604C28.6281 36.1041 28.6835 35.9087 28.6633 35.7137C28.6432 35.5187 28.549 35.3384 28.3997 35.2092C28.2504 35.08 28.0571 35.0114 27.8586 35.0172C27.6602 35.023 27.4713 35.1027 27.33 35.2404L20.0558 41.4455C20.0139 41.4835 19.9616 41.5084 19.9054 41.5173C19.8492 41.5262 19.7916 41.5187 19.7397 41.4955C19.6879 41.4724 19.644 41.4348 19.6136 41.3873C19.5833 41.3398 19.5676 41.2845 19.5688 41.2283V21.7445C19.5694 21.6853 19.5882 21.6276 19.6229 21.5793C19.6575 21.531 19.7063 21.4942 19.7627 21.474C19.819 21.4537 19.8803 21.451 19.9383 21.466C19.9963 21.4811 20.0483 21.5133 20.0872 21.5583L42.0826 47.5419C42.4364 47.9553 42.8774 48.2875 43.3746 48.5152C43.8719 48.743 44.4135 48.8608 44.9617 48.8605H45.7472C46.2419 48.8605 46.7317 48.7643 47.1887 48.5774C47.6457 48.3905 48.0609 48.1166 48.4107 47.7712C48.7604 47.4258 49.0379 47.0159 49.2272 46.5646C49.4165 46.1134 49.5139 45.6298 49.5139 45.1414V17.6802C49.5139 17.1898 49.4157 16.7043 49.225 16.2515C49.0342 15.7988 48.7546 15.3877 48.4024 15.0421C48.0501 14.6964 47.6321 14.4229 47.1723 14.2374C46.7126 14.0519 46.2203 13.9579 45.7236 13.961C45.08 13.9611 44.447 14.124 43.8853 14.4343C43.3235 14.7446 42.8516 15.1918 42.5147 15.7333Z" fill="white"/>
</svg>
