<svg width="24" height="24" viewBox="0 0 24 24" fill="none" xmlns="http://www.w3.org/2000/svg">
<path fill-rule="evenodd" clip-rule="evenodd" d="M17.1079 19.8233C17.3655 20.0057 17.6975 20.0513 17.9935 19.9393C18.2895 19.8265 18.5071 19.5737 18.5727 19.2673C19.2679 16.0001 20.9543 7.73052 21.5871 4.75852C21.6351 4.53452 21.5551 4.30172 21.3791 4.15212C21.2031 4.00252 20.9591 3.95932 20.7415 4.04012C17.3871 5.28172 7.05671 9.15772 2.83431 10.7201C2.56631 10.8193 2.39191 11.0769 2.40071 11.3593C2.41031 11.6425 2.60071 11.8881 2.87511 11.9705C4.76871 12.5369 7.25431 13.3249 7.25431 13.3249C7.25431 13.3249 8.41592 16.8329 9.02152 18.6169C9.09752 18.8409 9.27272 19.0169 9.50392 19.0777C9.73432 19.1377 9.98072 19.0745 10.1527 18.9121C11.1255 17.9937 12.6295 16.5737 12.6295 16.5737C12.6295 16.5737 15.4871 18.6689 17.1079 19.8233ZM8.29992 12.8817L9.64312 17.3121L9.94152 14.5065C9.94152 14.5065 15.1311 9.82573 18.0895 7.15772C18.1759 7.07932 18.1879 6.94812 18.1159 6.85612C18.0447 6.76412 17.9135 6.74252 17.8151 6.80492C14.3863 8.99452 8.29992 12.8817 8.29992 12.8817Z" fill="white"/>
</svg>
