<svg width="48" height="56" viewBox="0 0 48 56" fill="none" xmlns="http://www.w3.org/2000/svg">
<mask id="mask0" mask-type="alpha" maskUnits="userSpaceOnUse" x="-1" y="0" width="50" height="56">
<path fill-rule="evenodd" clip-rule="evenodd" d="M48.0009 0.96875L10.0811 14.4365V21.9079L-0.000976562 25.4887V55.0308L37.9189 41.5631V34.0917L48.0009 30.5109V0.96875Z" fill="#ADD5E5"/>
</mask>
<g mask="url(#mask0)">
<path fill-rule="evenodd" clip-rule="evenodd" d="M48.0009 0.96875L10.0811 14.4365V21.9079L-0.000976562 25.4887V55.0308L37.9189 41.5631V34.0917L48.0009 30.5109V0.96875Z" fill="#19D992"/>
<path fill-rule="evenodd" clip-rule="evenodd" d="M48.1865 24.6162L48.1865 24.0903C44.9681 24.0206 42.3807 21.4132 42.3807 18.2069C42.3807 15.0007 44.9681 12.3933 48.1865 12.3236L48.1865 11.7975C44.9681 11.7279 42.3807 9.12048 42.3807 5.91422C42.3807 2.70796 44.9681 0.10059 48.1865 0.030899L48.1865 -0.495161C44.9681 -0.564852 42.3807 -3.17222 42.3807 -6.37848C42.3807 -9.58475 44.9681 -12.1921 48.1865 -12.2618L48.1865 -12.7877C44.9681 -12.8574 42.3807 -15.4648 42.3807 -18.671C42.3807 -21.8773 44.9681 -24.4847 48.1865 -24.5544L48.1865 -25.0803C45.0119 -25.149 42.4512 -27.6868 42.3821 -30.833L41.8509 -30.833C41.7808 -27.6433 39.1497 -25.0789 35.9143 -25.0789C32.6788 -25.0789 30.0477 -27.6433 29.9776 -30.833L29.4472 -30.833C29.3771 -27.6433 26.746 -25.0789 23.5106 -25.0789C20.2751 -25.0789 17.644 -27.6433 17.5739 -30.833L17.0427 -30.833C16.9726 -27.6433 14.3415 -25.0789 11.1061 -25.0789C7.87061 -25.0789 5.23953 -27.6433 5.16942 -30.833L4.63821 -30.833C4.5681 -27.6433 1.93702 -25.0789 -1.29843 -25.0789C-4.53388 -25.0789 -7.16496 -27.6433 -7.23507 -30.833L-7.76413 -30.833C-7.82911 -27.8768 -10.0939 -25.4577 -13.0008 -25.1194L-12.7919 -24.4873C-9.94383 -24.0538 -7.7627 -21.6148 -7.7627 -18.671C-7.7627 -17.0488 -8.42507 -15.5798 -9.49642 -14.5153L-7.14652 -7.40473C-6.6566 -10.1655 -4.2247 -12.2632 -1.29843 -12.2632C1.98108 -12.2632 4.63965 -9.62854 4.63965 -6.37848C4.63965 -3.12842 1.98108 -0.493731 -1.29843 -0.493731C-2.89002 -0.493731 -4.33537 -1.11428 -5.40155 -2.12457L-4.40304 0.896867C-3.4997 0.346729 -2.43645 0.0294702 -1.29843 0.0294702C1.98108 0.0294703 4.63965 2.66416 4.63965 5.91422C4.63965 9.00019 2.24275 11.5314 -0.806711 11.7791L-0.614473 12.3608C2.34289 12.6969 4.63965 15.1861 4.63965 18.2069C4.63965 19.9101 3.90953 21.4443 2.74255 22.5189L5.19461 29.9387C5.47956 26.9517 8.01743 24.6147 11.1061 24.6147C14.3856 24.6147 17.0441 27.2494 17.0441 30.4995C17.0441 31.1582 16.9349 31.7916 16.7335 32.3829L17.8745 32.3573C17.6786 31.7733 17.5725 31.1487 17.5725 30.4995C17.5725 27.2494 20.2311 24.6147 23.5106 24.6147C26.7901 24.6147 29.4486 27.2494 29.4486 30.4995C29.4486 31.0551 29.3709 31.5927 29.2257 32.1022L30.1929 32.0805C30.0517 31.5774 29.9762 31.0472 29.9762 30.4995C29.9762 27.2494 32.6348 24.6147 35.9143 24.6147C39.1938 24.6147 41.8523 27.2494 41.8523 30.4995C41.8523 30.9542 41.8003 31.3968 41.7018 31.8219L42.5269 31.8033C42.4312 31.3839 42.3807 30.9476 42.3807 30.4995C42.3807 27.2932 44.9681 24.6859 48.1865 24.6162ZM35.9143 -12.7863C32.6348 -12.7863 29.9762 -15.421 29.9762 -18.671C29.9762 -21.9211 32.6348 -24.5558 35.9143 -24.5558C39.1938 -24.5558 41.8523 -21.9211 41.8523 -18.671C41.8523 -15.421 39.1938 -12.7863 35.9143 -12.7863ZM5.16799 -18.671C5.16799 -15.421 7.82656 -12.7863 11.1061 -12.7863C14.3856 -12.7863 17.0441 -15.421 17.0441 -18.671C17.0441 -21.9211 14.3856 -24.5558 11.1061 -24.5558C7.82656 -24.5558 5.16799 -21.9211 5.16799 -18.671ZM23.5106 -12.7863C20.231 -12.7863 17.5725 -15.421 17.5725 -18.671C17.5725 -21.9211 20.231 -24.5558 23.5106 -24.5558C26.7901 -24.5558 29.4486 -21.9211 29.4486 -18.671C29.4486 -15.421 26.7901 -12.7863 23.5106 -12.7863ZM-7.2365 -18.671C-7.2365 -15.421 -4.57794 -12.7863 -1.29843 -12.7863C1.98108 -12.7863 4.63965 -15.421 4.63965 -18.671C4.63965 -21.9211 1.98108 -24.5558 -1.29843 -24.5558C-4.57793 -24.5558 -7.2365 -21.9211 -7.2365 -18.671ZM35.9143 -0.493731C32.6348 -0.493731 29.9762 -3.12842 29.9762 -6.37848C29.9762 -9.62854 32.6348 -12.2632 35.9143 -12.2632C39.1938 -12.2632 41.8523 -9.62854 41.8523 -6.37848C41.8523 -3.12842 39.1938 -0.493731 35.9143 -0.493731ZM5.16799 -6.37848C5.16799 -3.12842 7.82656 -0.49373 11.1061 -0.49373C14.3856 -0.49373 17.0441 -3.12842 17.0441 -6.37848C17.0441 -9.62855 14.3856 -12.2632 11.1061 -12.2632C7.82656 -12.2632 5.16799 -9.62855 5.16799 -6.37848ZM23.5106 -0.49373C20.2311 -0.49373 17.5725 -3.12842 17.5725 -6.37848C17.5725 -9.62854 20.2311 -12.2632 23.5106 -12.2632C26.7901 -12.2632 29.4486 -9.62854 29.4486 -6.37848C29.4486 -3.12842 26.7901 -0.49373 23.5106 -0.49373ZM35.9143 11.799C32.6348 11.799 29.9762 9.16428 29.9762 5.91422C29.9762 2.66416 32.6348 0.0294679 35.9143 0.029468C39.1938 0.0294681 41.8523 2.66416 41.8523 5.91422C41.8523 9.16428 39.1938 11.799 35.9143 11.799ZM5.16799 5.91422C5.16799 9.16428 7.82656 11.799 11.1061 11.799C14.3856 11.799 17.0441 9.16428 17.0441 5.91423C17.0441 2.66416 14.3856 0.0294709 11.1061 0.0294707C7.82656 0.0294706 5.16799 2.66416 5.16799 5.91422ZM23.5106 11.799C20.231 11.799 17.5725 9.16428 17.5725 5.91423C17.5725 2.66416 20.231 0.0294711 23.5106 0.0294713C26.7901 0.0294714 29.4486 2.66416 29.4486 5.91423C29.4486 9.16428 26.7901 11.799 23.5106 11.799ZM35.9143 24.0917C32.6348 24.0917 29.9762 21.457 29.9762 18.2069C29.9762 14.9569 32.6348 12.3222 35.9143 12.3222C39.1938 12.3222 41.8523 14.9569 41.8523 18.2069C41.8523 21.457 39.1938 24.0917 35.9143 24.0917ZM5.16799 18.2069C5.16799 21.457 7.82656 24.0917 11.1061 24.0917C14.3856 24.0917 17.0441 21.457 17.0441 18.2069C17.0441 14.9569 14.3856 12.3222 11.1061 12.3222C7.82656 12.3222 5.16799 14.9569 5.16799 18.2069ZM23.5106 24.0917C20.231 24.0917 17.5725 21.457 17.5725 18.2069C17.5725 14.9569 20.231 12.3222 23.5106 12.3222C26.7901 12.3222 29.4486 14.9569 29.4486 18.2069C29.4486 21.457 26.7901 24.0917 23.5106 24.0917Z" fill="#E1FC31"/>
<path fill-rule="evenodd" clip-rule="evenodd" d="M18.3672 54.7953L18.3672 54.4827C16.4547 54.4408 14.9173 52.8913 14.9173 50.9859C14.9173 49.0805 16.4547 47.5309 18.3672 47.489L18.3672 47.1765C16.4547 47.1345 14.9173 45.585 14.9173 43.6796C14.9173 41.7742 16.4547 40.2247 18.3672 40.1827L18.3672 39.87C16.4547 39.8281 14.9173 38.2785 14.9173 36.3731C14.9173 34.4677 16.4547 32.9182 18.3672 32.8763L18.3672 32.5636C16.4547 32.5216 14.9173 30.9721 14.9173 29.0667C14.9173 27.1613 16.4547 25.6118 18.3672 25.5698L18.3672 25.2572C16.4808 25.2157 14.9594 23.7075 14.9184 21.8379L14.6025 21.8379C14.5608 23.7338 12.9969 25.2579 11.0739 25.2579C9.15085 25.2579 7.58702 23.7338 7.54532 21.8379L7.22962 21.8379C7.18792 23.7338 5.62409 25.2579 3.70104 25.2579C1.778 25.2579 0.214167 23.7338 0.17247 21.8379L-0.143234 21.8379C-0.184931 23.7338 -1.74876 25.2579 -3.67181 25.2579C-5.59485 25.2579 -7.15869 23.7338 -7.20038 21.8379L-7.51511 21.8379C-7.55681 23.7338 -9.12064 25.2579 -11.0437 25.2579C-12.9667 25.2579 -14.5306 23.7338 -14.5723 21.8379L-14.888 21.8379C-14.9266 23.5951 -16.2729 25.033 -18.0009 25.2339L-17.8767 25.6096C-16.1837 25.8671 -14.8871 27.3169 -14.8871 29.0667C-14.8871 30.0311 -15.2809 30.9043 -15.9178 31.537L-14.5202 35.7662C-14.2302 34.1238 -12.7841 32.8754 -11.0437 32.8754C-9.09443 32.8754 -7.51425 34.4414 -7.51425 36.3731C-7.51425 38.3049 -9.09443 39.8709 -11.0437 39.8709C-11.9908 39.8709 -12.8508 39.5011 -13.4848 38.8994L-12.8903 40.6982C-12.3531 40.3707 -11.7206 40.1819 -11.0437 40.1819C-9.09443 40.1819 -7.51425 41.7479 -7.51425 43.6796C-7.51425 45.5143 -8.9397 47.0191 -10.7529 47.1656L-10.6388 47.5109C-8.88025 47.7099 -7.51425 49.1898 -7.51425 50.9859C-7.51425 51.9988 -7.94873 52.9112 -8.64308 53.5499L-7.18556 57.9603C-7.01689 56.1842 -5.50812 54.7944 -3.67181 54.7944C-1.72256 54.7944 -0.142377 56.3604 -0.142378 58.2921C-0.142378 58.6837 -0.207292 59.0602 -0.327038 59.4117L0.351126 59.3964C0.234671 59.0493 0.171618 58.678 0.171618 58.2921C0.171618 56.3604 1.7518 54.7944 3.70105 54.7944C5.6503 54.7944 7.23047 56.3604 7.23047 58.2921C7.23047 58.6224 7.18429 58.942 7.09797 59.2448L7.67332 59.2319C7.58935 58.9329 7.54447 58.6177 7.54447 58.2921C7.54447 56.3604 9.12465 54.7944 11.0739 54.7944C13.0231 54.7944 14.6033 56.3604 14.6033 58.2921C14.6033 58.5624 14.5724 58.8255 14.5138 59.0782L15.0043 59.0672C14.9474 58.8179 14.9173 58.5585 14.9173 58.2921C14.9173 56.3868 16.4547 54.8372 18.3672 54.7953ZM11.0739 32.5644C9.12465 32.5644 7.54447 30.9984 7.54447 29.0667C7.54447 27.1349 9.12465 25.569 11.0739 25.569C13.0231 25.569 14.6033 27.1349 14.6033 29.0667C14.6033 30.9984 13.0231 32.5644 11.0739 32.5644ZM-7.20124 29.0667C-7.20124 30.9984 -5.62106 32.5644 -3.67181 32.5644C-1.72256 32.5644 -0.142378 30.9984 -0.142378 29.0667C-0.142378 27.1349 -1.72256 25.569 -3.67181 25.569C-5.62106 25.569 -7.20124 27.1349 -7.20124 29.0667ZM3.70105 32.5644C1.7518 32.5644 0.171617 30.9984 0.171617 29.0667C0.171617 27.1349 1.7518 25.569 3.70105 25.569C5.6503 25.569 7.23047 27.1349 7.23047 29.0667C7.23047 30.9984 5.65029 32.5644 3.70105 32.5644ZM-14.5731 29.0667C-14.5731 30.9984 -12.9929 32.5644 -11.0437 32.5644C-9.09443 32.5644 -7.51425 30.9984 -7.51425 29.0667C-7.51425 27.1349 -9.09443 25.569 -11.0437 25.569C-12.9929 25.569 -14.5731 27.1349 -14.5731 29.0667ZM11.0739 39.8709C9.12465 39.8709 7.54447 38.3049 7.54447 36.3731C7.54447 34.4414 9.12465 32.8754 11.0739 32.8754C13.0231 32.8754 14.6033 34.4414 14.6033 36.3731C14.6033 38.3049 13.0231 39.8709 11.0739 39.8709ZM-7.20124 36.3731C-7.20124 38.3049 -5.62106 39.8709 -3.67181 39.8709C-1.72256 39.8709 -0.142379 38.3049 -0.142378 36.3731C-0.142378 34.4414 -1.72256 32.8754 -3.67181 32.8754C-5.62106 32.8754 -7.20124 34.4414 -7.20124 36.3731ZM3.70105 39.8709C1.7518 39.8709 0.171619 38.3049 0.171619 36.3731C0.171619 34.4414 1.7518 32.8754 3.70105 32.8754C5.6503 32.8754 7.23047 34.4414 7.23047 36.3731C7.23047 38.3049 5.6503 39.8709 3.70105 39.8709ZM11.0739 47.1771C9.12465 47.1771 7.54447 45.6111 7.54447 43.6794C7.54447 41.7476 9.12465 40.1816 11.0739 40.1816C13.0231 40.1816 14.6033 41.7476 14.6033 43.6794C14.6033 45.6111 13.0231 47.1771 11.0739 47.1771ZM-7.20123 43.6794C-7.20123 45.6111 -5.62105 47.1771 -3.67181 47.1771C-1.72256 47.1771 -0.142377 45.6111 -0.142377 43.6794C-0.142377 41.7476 -1.72256 40.1816 -3.67181 40.1816C-5.62105 40.1816 -7.20123 41.7476 -7.20123 43.6794ZM3.70105 47.1771C1.7518 47.1771 0.171618 45.6111 0.171618 43.6794C0.171619 41.7476 1.7518 40.1816 3.70105 40.1816C5.6503 40.1816 7.23047 41.7476 7.23047 43.6794C7.23047 45.6111 5.6503 47.1771 3.70105 47.1771ZM11.0739 54.4836C9.12465 54.4836 7.54447 52.9176 7.54447 50.9859C7.54447 49.0541 9.12465 47.4881 11.0739 47.4881C13.0231 47.4881 14.6033 49.0541 14.6033 50.9859C14.6033 52.9176 13.0231 54.4836 11.0739 54.4836ZM-7.20123 50.9859C-7.20123 52.9176 -5.62106 54.4836 -3.67181 54.4836C-1.72256 54.4836 -0.142377 52.9176 -0.142377 50.9859C-0.142377 49.0541 -1.72256 47.4882 -3.67181 47.4882C-5.62105 47.4882 -7.20123 49.0541 -7.20123 50.9859ZM3.70105 54.4836C1.7518 54.4836 0.171618 52.9176 0.171618 50.9859C0.171618 49.0541 1.7518 47.4881 3.70105 47.4881C5.6503 47.4881 7.23047 49.0541 7.23047 50.9859C7.23047 52.9176 5.65029 54.4836 3.70105 54.4836Z" fill="#6038D0"/>
</g>
</svg>
