<svg width="48" height="55" viewBox="0 0 48 55" fill="none" xmlns="http://www.w3.org/2000/svg">
<mask id="mask0" mask-type="alpha" maskUnits="userSpaceOnUse" x="-1" y="0" width="50" height="55">
<path fill-rule="evenodd" clip-rule="evenodd" d="M48.0009 0L10.0811 13.5519V21.07L-0.000976562 24.6731V54.3999L37.9189 40.848V33.3299L48.0009 29.7268V0Z" fill="#ADD5E5"/>
</mask>
<g mask="url(#mask0)">
<path fill-rule="evenodd" clip-rule="evenodd" d="M48.0009 0L10.0811 13.5519V21.07L-0.000976562 24.6731V54.3999L37.9189 40.848V33.3299L48.0009 29.7268V0Z" fill="#FF8743"/>
<path fill-rule="evenodd" clip-rule="evenodd" d="M48.1865 23.7956L48.1865 23.2665C44.9681 23.1963 42.3807 20.5727 42.3807 17.3464C42.3807 14.1201 44.9681 11.4964 48.1865 11.4263L48.1865 10.8969C44.9681 10.8268 42.3807 8.20314 42.3807 4.97684C42.3807 1.75055 44.9681 -0.873112 48.1865 -0.943237L48.1865 -1.47259C44.9681 -1.54271 42.3807 -4.16638 42.3807 -7.39267C42.3807 -10.619 44.9681 -13.2426 48.1865 -13.3128L48.1865 -13.8419C44.9681 -13.9121 42.3807 -16.5357 42.3807 -19.762C42.3807 -22.9883 44.9681 -25.612 48.1865 -25.6821L48.1865 -26.2113C45.0119 -26.2805 42.4512 -28.8341 42.3821 -32L41.8509 -32C41.7808 -28.7903 39.1497 -26.2099 35.9143 -26.2099C32.6788 -26.2099 30.0477 -28.7903 29.9776 -32L29.4472 -32C29.3771 -28.7903 26.746 -26.2099 23.5106 -26.2099C20.2751 -26.2099 17.644 -28.7903 17.5739 -32L17.0427 -32C16.9726 -28.7903 14.3415 -26.2099 11.1061 -26.2099C7.87061 -26.2099 5.23953 -28.7903 5.16942 -32L4.63821 -32C4.5681 -28.7903 1.93702 -26.2099 -1.29843 -26.2099C-4.53388 -26.2099 -7.16496 -28.7903 -7.23507 -32L-7.76413 -32C-7.82911 -29.0253 -10.0939 -26.5911 -13.0008 -26.2506L-12.7919 -25.6146C-9.94383 -25.1784 -7.7627 -22.7242 -7.7627 -19.762C-7.7627 -18.1296 -8.42507 -16.6515 -9.49642 -15.5804L-7.14652 -8.42533C-6.6566 -11.2034 -4.2247 -13.3142 -1.29843 -13.3142C1.98108 -13.3142 4.63965 -10.663 4.63965 -7.39267C4.63965 -4.1223 1.98108 -1.47115 -1.29843 -1.47115C-2.89002 -1.47115 -4.33537 -2.09558 -5.40155 -3.11218L-4.40304 -0.0718578C-3.4997 -0.625433 -2.43645 -0.944676 -1.29843 -0.944676C1.98108 -0.944676 4.63965 1.70648 4.63965 4.97685C4.63965 8.0821 2.24275 10.6291 -0.806711 10.8784L-0.614473 11.4637C2.34289 11.8019 4.63965 14.3067 4.63965 17.3464C4.63965 19.0602 3.90953 20.604 2.74255 21.6853L5.1946 29.1514C5.47956 26.1457 8.01743 23.7942 11.1061 23.7942C14.3856 23.7942 17.0441 26.4454 17.0441 29.7157C17.0441 30.3785 16.9349 31.0159 16.7335 31.6109L17.8745 31.5851C17.6786 30.9975 17.5725 30.369 17.5725 29.7157C17.5725 26.4454 20.231 23.7942 23.5106 23.7942C26.7901 23.7942 29.4486 26.4454 29.4486 29.7157C29.4486 30.2748 29.3709 30.8157 29.2257 31.3285L30.1929 31.3066C30.0517 30.8004 29.9762 30.2668 29.9762 29.7157C29.9762 26.4454 32.6348 23.7942 35.9143 23.7942C39.1938 23.7942 41.8523 26.4454 41.8523 29.7157C41.8523 30.1733 41.8003 30.6187 41.7018 31.0464L42.5269 31.0277C42.4312 30.6057 42.3807 30.1666 42.3807 29.7157C42.3807 26.4894 44.9681 23.8658 48.1865 23.7956ZM35.9143 -13.8405C32.6348 -13.8405 29.9762 -16.4917 29.9762 -19.762C29.9762 -23.0324 32.6348 -25.6836 35.9143 -25.6836C39.1938 -25.6836 41.8523 -23.0324 41.8523 -19.762C41.8523 -16.4917 39.1938 -13.8405 35.9143 -13.8405ZM5.16799 -19.762C5.16799 -16.4917 7.82656 -13.8405 11.1061 -13.8405C14.3856 -13.8405 17.0441 -16.4917 17.0441 -19.762C17.0441 -23.0324 14.3856 -25.6836 11.1061 -25.6836C7.82656 -25.6836 5.16799 -23.0324 5.16799 -19.762ZM23.5106 -13.8405C20.231 -13.8405 17.5725 -16.4917 17.5725 -19.762C17.5725 -23.0324 20.231 -25.6836 23.5106 -25.6836C26.7901 -25.6836 29.4486 -23.0324 29.4486 -19.762C29.4486 -16.4917 26.7901 -13.8405 23.5106 -13.8405ZM-7.2365 -19.762C-7.2365 -16.4917 -4.57794 -13.8405 -1.29843 -13.8405C1.98108 -13.8405 4.63965 -16.4917 4.63965 -19.762C4.63965 -23.0324 1.98108 -25.6836 -1.29843 -25.6836C-4.57793 -25.6836 -7.2365 -23.0324 -7.2365 -19.762ZM35.9143 -1.47115C32.6348 -1.47115 29.9762 -4.12231 29.9762 -7.39267C29.9762 -10.663 32.6348 -13.3142 35.9143 -13.3142C39.1938 -13.3142 41.8523 -10.663 41.8523 -7.39267C41.8523 -4.12231 39.1938 -1.47115 35.9143 -1.47115ZM5.16799 -7.39267C5.16799 -4.1223 7.82656 -1.47115 11.1061 -1.47115C14.3856 -1.47115 17.0441 -4.1223 17.0441 -7.39267C17.0441 -10.663 14.3856 -13.3142 11.1061 -13.3142C7.82656 -13.3142 5.16799 -10.663 5.16799 -7.39267ZM23.5106 -1.47115C20.231 -1.47115 17.5725 -4.1223 17.5725 -7.39267C17.5725 -10.663 20.231 -13.3142 23.5106 -13.3142C26.7901 -13.3142 29.4486 -10.663 29.4486 -7.39267C29.4486 -4.1223 26.7901 -1.47115 23.5106 -1.47115ZM35.9143 10.8984C32.6348 10.8984 29.9762 8.24721 29.9762 4.97684C29.9762 1.70648 32.6348 -0.944678 35.9143 -0.944678C39.1938 -0.944678 41.8523 1.70648 41.8523 4.97684C41.8523 8.24721 39.1938 10.8984 35.9143 10.8984ZM5.16799 4.97685C5.16799 8.24722 7.82656 10.8984 11.1061 10.8984C14.3856 10.8984 17.0441 8.24722 17.0441 4.97685C17.0441 1.70648 14.3856 -0.944675 11.1061 -0.944675C7.82656 -0.944675 5.16799 1.70648 5.16799 4.97685ZM23.5106 10.8984C20.231 10.8984 17.5725 8.24722 17.5725 4.97685C17.5725 1.70648 20.231 -0.944675 23.5106 -0.944675C26.7901 -0.944674 29.4486 1.70648 29.4486 4.97685C29.4486 8.24722 26.7901 10.8984 23.5106 10.8984ZM35.9143 23.2679C32.6348 23.2679 29.9762 20.6167 29.9762 17.3464C29.9762 14.076 32.6348 11.4248 35.9143 11.4248C39.1938 11.4248 41.8523 14.076 41.8523 17.3464C41.8523 20.6167 39.1938 23.2679 35.9143 23.2679ZM5.16799 17.3464C5.16799 20.6167 7.82656 23.2679 11.1061 23.2679C14.3856 23.2679 17.0441 20.6167 17.0441 17.3464C17.0441 14.076 14.3856 11.4248 11.1061 11.4248C7.82656 11.4248 5.16799 14.076 5.16799 17.3464ZM23.5106 23.2679C20.231 23.2679 17.5725 20.6167 17.5725 17.3464C17.5725 14.076 20.231 11.4248 23.5106 11.4248C26.7901 11.4248 29.4486 14.076 29.4486 17.3464C29.4486 20.6167 26.7901 23.2679 23.5106 23.2679Z" fill="#E1FC31"/>
<path fill-rule="evenodd" clip-rule="evenodd" d="M36.3672 41.7629L36.3672 41.4484C34.4547 41.4063 32.9173 39.847 32.9173 37.9297C32.9173 36.0124 34.4547 34.4532 36.3672 34.411L36.3672 34.0965C34.4547 34.0543 32.9173 32.4951 32.9173 30.5778C32.9173 28.6605 34.4547 27.1013 36.3672 27.0591L36.3672 26.7444C34.4547 26.7022 32.9173 25.143 32.9173 23.2257C32.9173 21.3084 34.4547 19.7491 36.3672 19.7069L36.3672 19.3923C34.4547 19.3501 32.9173 17.7909 32.9173 15.8736C32.9173 13.9563 34.4547 12.397 36.3672 12.3549L36.3672 12.0403C34.4808 11.9986 32.9594 10.4809 32.9184 8.59961L32.6025 8.59961C32.5608 10.5073 30.9969 12.041 29.0739 12.041C27.1509 12.041 25.587 10.5073 25.5453 8.59961L25.2296 8.59961C25.1879 10.5073 23.6241 12.041 21.701 12.041C19.778 12.041 18.2142 10.5073 18.1725 8.59961L17.8568 8.59961C17.8151 10.5073 16.2512 12.041 14.3282 12.041C12.4051 12.041 10.8413 10.5073 10.7996 8.59961L10.4849 8.59961C10.4432 10.5073 8.87936 12.041 6.95632 12.041C5.03327 12.041 3.46944 10.5073 3.42775 8.59961L3.11204 8.59961C3.07339 10.3678 1.72709 11.8147 -0.000866086 12.0169L0.123291 12.3949C1.8163 12.654 3.1129 14.1128 3.1129 15.8736C3.1129 16.844 2.71909 17.7226 2.08215 18.3593L3.47982 22.615C3.76975 20.9623 5.21592 19.7061 6.95632 19.7061C8.90556 19.7061 10.4857 21.2818 10.4857 23.2257C10.4857 25.1695 8.90556 26.7452 6.95632 26.7452C6.00918 26.7452 5.14917 26.3732 4.51525 25.7677L5.10973 27.5778C5.64692 27.2483 6.27936 27.0582 6.95632 27.0582C8.90557 27.0582 10.4857 28.634 10.4857 30.5778C10.4857 32.424 9.0603 33.9382 7.24706 34.0856L7.36117 34.433C9.11975 34.6333 10.4857 36.1224 10.4857 37.9297C10.4857 38.949 10.0513 39.8671 9.35692 40.5098L10.8144 44.9477C10.9831 43.1605 12.4919 41.7621 14.3282 41.7621C16.2774 41.7621 17.8576 43.3378 17.8576 45.2816C17.8576 45.6756 17.7927 46.0545 17.673 46.4082L18.3511 46.3928C18.2347 46.0435 18.1716 45.6699 18.1716 45.2816C18.1716 43.3378 19.7518 41.7621 21.701 41.7621C23.6503 41.7621 25.2305 43.3378 25.2305 45.2817C25.2305 45.614 25.1843 45.9355 25.098 46.2403L25.6733 46.2273C25.5893 45.9264 25.5445 45.6092 25.5445 45.2817C25.5445 43.3378 27.1246 41.7621 29.0739 41.7621C31.0231 41.7621 32.6033 43.3378 32.6033 45.2817C32.6033 45.5536 32.5724 45.8184 32.5138 46.0726L33.0043 46.0615C32.9474 45.8107 32.9173 45.5497 32.9173 45.2817C32.9173 43.3643 34.4547 41.8051 36.3672 41.7629ZM29.0739 19.3932C27.1246 19.3932 25.5445 17.8174 25.5445 15.8736C25.5445 13.9298 27.1246 12.354 29.0739 12.354C31.0231 12.354 32.6033 13.9298 32.6033 15.8736C32.6033 17.8174 31.0231 19.3932 29.0739 19.3932ZM10.7988 15.8736C10.7988 17.8174 12.3789 19.3932 14.3282 19.3932C16.2774 19.3932 17.8576 17.8174 17.8576 15.8736C17.8576 13.9298 16.2774 12.354 14.3282 12.354C12.3789 12.354 10.7988 13.9298 10.7988 15.8736ZM21.701 19.3932C19.7518 19.3932 18.1716 17.8174 18.1716 15.8736C18.1716 13.9298 19.7518 12.354 21.701 12.354C23.6503 12.354 25.2305 13.9298 25.2305 15.8736C25.2305 17.8174 23.6503 19.3932 21.701 19.3932ZM3.42689 15.8736C3.42689 17.8174 5.00707 19.3932 6.95632 19.3932C8.90557 19.3932 10.4857 17.8174 10.4857 15.8736C10.4857 13.9298 8.90557 12.354 6.95632 12.354C5.00707 12.354 3.42689 13.9298 3.42689 15.8736ZM29.0739 26.7453C27.1246 26.7453 25.5445 25.1695 25.5445 23.2257C25.5445 21.2818 27.1246 19.7061 29.0739 19.7061C31.0231 19.7061 32.6033 21.2818 32.6033 23.2257C32.6033 25.1695 31.0231 26.7453 29.0739 26.7453ZM10.7988 23.2257C10.7988 25.1695 12.3789 26.7452 14.3282 26.7452C16.2774 26.7452 17.8576 25.1695 17.8576 23.2257C17.8576 21.2818 16.2774 19.7061 14.3282 19.7061C12.3789 19.7061 10.7988 21.2818 10.7988 23.2257ZM21.701 26.7453C19.7518 26.7452 18.1716 25.1695 18.1716 23.2257C18.1716 21.2818 19.7518 19.7061 21.701 19.7061C23.6503 19.7061 25.2305 21.2818 25.2305 23.2257C25.2305 25.1695 23.6503 26.7453 21.701 26.7453ZM29.0739 34.0972C27.1246 34.0972 25.5445 32.5214 25.5445 30.5776C25.5445 28.6338 27.1246 27.058 29.0739 27.058C31.0231 27.058 32.6033 28.6338 32.6033 30.5776C32.6033 32.5214 31.0231 34.0972 29.0739 34.0972ZM10.7988 30.5776C10.7988 32.5214 12.3789 34.0972 14.3282 34.0972C16.2774 34.0972 17.8576 32.5214 17.8576 30.5776C17.8576 28.6338 16.2774 27.058 14.3282 27.058C12.3789 27.058 10.7988 28.6338 10.7988 30.5776ZM21.701 34.0972C19.7518 34.0972 18.1716 32.5214 18.1716 30.5776C18.1716 28.6338 19.7518 27.058 21.701 27.058C23.6503 27.058 25.2305 28.6338 25.2305 30.5776C25.2305 32.5214 23.6503 34.0972 21.701 34.0972ZM29.0739 41.4493C27.1246 41.4493 25.5445 39.8735 25.5445 37.9297C25.5445 35.9859 27.1246 34.4101 29.0739 34.4101C31.0231 34.4101 32.6033 35.9859 32.6033 37.9297C32.6033 39.8736 31.0231 41.4493 29.0739 41.4493ZM10.7988 37.9297C10.7988 39.8736 12.3789 41.4493 14.3282 41.4493C16.2774 41.4493 17.8576 39.8736 17.8576 37.9297C17.8576 35.9859 16.2774 34.4101 14.3282 34.4101C12.3789 34.4101 10.7988 35.9859 10.7988 37.9297ZM21.701 41.4493C19.7518 41.4493 18.1716 39.8735 18.1716 37.9297C18.1716 35.9859 19.7518 34.4101 21.701 34.4101C23.6503 34.4101 25.2305 35.9859 25.2305 37.9297C25.2305 39.8735 23.6503 41.4493 21.701 41.4493Z" fill="#0C422A"/>
</g>
</svg>
