<svg width="48" height="55" viewBox="0 0 48 55" fill="none" xmlns="http://www.w3.org/2000/svg">
<mask id="mask0" mask-type="alpha" maskUnits="userSpaceOnUse" x="-1" y="0" width="50" height="55">
<path fill-rule="evenodd" clip-rule="evenodd" d="M48.0009 0L10.0811 13.5519V21.07L-0.000976562 24.6731V54.3999L37.9189 40.848V33.3299L48.0009 29.7268V0Z" fill="#ADD5E5"/>
</mask>
<g mask="url(#mask0)">
<path fill-rule="evenodd" clip-rule="evenodd" d="M48.0009 0L10.0811 13.5519V21.07L-0.000976562 24.6731V54.3999L37.9189 40.848V33.3299L48.0009 29.7268V0Z" fill="#E1FC31"/>
<path fill-rule="evenodd" clip-rule="evenodd" d="M28.1865 50.9968L28.1865 50.4676C24.9681 50.3975 22.3807 47.7738 22.3807 44.5475C22.3807 41.3212 24.9681 38.6976 28.1865 38.6275L28.1865 38.0981C24.9681 38.028 22.3807 35.4043 22.3807 32.178C22.3807 28.9517 24.9681 26.3281 28.1865 26.2579L28.1865 25.7286C24.9681 25.6585 22.3807 23.0348 22.3807 19.8085C22.3807 16.5822 24.9681 13.9585 28.1865 13.8884L28.1865 13.3592C24.9681 13.2891 22.3807 10.6654 22.3807 7.43914C22.3807 4.21284 24.9681 1.58918 28.1865 1.51905L28.1865 0.989866C25.0119 0.92072 22.4512 -1.63296 22.3821 -4.79883L21.8509 -4.79883C21.7808 -1.58917 19.1497 0.991231 15.9143 0.99123C12.6788 0.99123 10.0477 -1.58917 9.97763 -4.79883L9.4472 -4.79883C9.37709 -1.58917 6.74601 0.991231 3.51056 0.99123C0.275106 0.99123 -2.35597 -1.58917 -2.42608 -4.79883L-2.95729 -4.79883C-3.0274 -1.58917 -5.65849 0.99123 -8.89394 0.99123C-12.1294 0.99123 -14.7605 -1.58917 -14.8306 -4.79883L-15.3618 -4.79883C-15.4319 -1.58917 -18.063 0.99123 -21.2984 0.99123C-24.5339 0.99123 -27.165 -1.58917 -27.2351 -4.79883L-27.7641 -4.79883C-27.8291 -1.8241 -30.0939 0.610116 -33.0008 0.950522L-32.7919 1.58654C-29.9438 2.02276 -27.7627 4.47694 -27.7627 7.43914C-27.7627 9.07153 -28.4251 10.5496 -29.4964 11.6208L-27.1465 18.7758C-26.6566 15.9978 -24.2247 13.887 -21.2984 13.887C-18.0189 13.887 -15.3604 16.5381 -15.3604 19.8085C-15.3604 23.0789 -18.0189 25.73 -21.2984 25.73C-22.89 25.73 -24.3354 25.1056 -25.4016 24.089L-24.403 27.1293C-23.4997 26.5757 -22.4364 26.2565 -21.2984 26.2565C-18.0189 26.2565 -15.3604 28.9077 -15.3604 32.178C-15.3604 35.2833 -17.7572 37.8303 -20.8067 38.0795L-20.6145 38.6649C-17.6571 39.0031 -15.3603 41.5078 -15.3603 44.5475C-15.3603 46.2614 -16.0905 47.8052 -17.2575 48.8864L-14.8054 56.3526C-14.5204 53.3469 -11.9826 50.9954 -8.89393 50.9954C-5.61442 50.9954 -2.95586 53.6465 -2.95586 56.9169C-2.95586 57.5797 -3.06506 58.2171 -3.2665 58.8121L-2.12555 58.7863C-2.32145 58.1987 -2.42752 57.5701 -2.42752 56.9169C-2.42752 53.6465 0.23105 50.9954 3.51056 50.9954C6.79007 50.9954 9.44863 53.6465 9.44863 56.9169C9.44863 57.476 9.37094 58.0169 9.22574 58.5296L10.1929 58.5078C10.0517 58.0015 9.97619 57.468 9.97619 56.9169C9.97619 53.6465 12.6348 50.9954 15.9143 50.9954C19.1938 50.9954 21.8523 53.6465 21.8523 56.9169C21.8523 57.3744 21.8003 57.8198 21.7018 58.2476L22.5269 58.2289C22.4312 57.8069 22.3807 57.3678 22.3807 56.9169C22.3807 53.6906 24.9681 51.0669 28.1865 50.9968ZM15.9143 13.3607C12.6348 13.3607 9.97619 10.7095 9.97619 7.43914C9.97619 4.16877 12.6348 1.51761 15.9143 1.51761C19.1938 1.51761 21.8523 4.16877 21.8523 7.43914C21.8523 10.7095 19.1938 13.3607 15.9143 13.3607ZM-14.832 7.43914C-14.832 10.7095 -12.1734 13.3607 -8.89393 13.3607C-5.61443 13.3607 -2.95586 10.7095 -2.95586 7.43914C-2.95586 4.16877 -5.61443 1.51761 -8.89393 1.51761C-12.1734 1.51761 -14.832 4.16877 -14.832 7.43914ZM3.51056 13.3607C0.231048 13.3607 -2.42752 10.7095 -2.42752 7.43914C-2.42752 4.16877 0.231048 1.51761 3.51056 1.51761C6.79007 1.51761 9.44863 4.16877 9.44863 7.43914C9.44863 10.7095 6.79006 13.3607 3.51056 13.3607ZM-27.2365 7.43914C-27.2365 10.7095 -24.5779 13.3607 -21.2984 13.3607C-18.0189 13.3607 -15.3604 10.7095 -15.3604 7.43914C-15.3604 4.16877 -18.0189 1.51761 -21.2984 1.51761C-24.5779 1.51761 -27.2365 4.16877 -27.2365 7.43914ZM15.9143 25.73C12.6348 25.73 9.97619 23.0789 9.97619 19.8085C9.97619 16.5381 12.6348 13.887 15.9143 13.887C19.1938 13.887 21.8523 16.5381 21.8523 19.8085C21.8523 23.0789 19.1938 25.73 15.9143 25.73ZM-14.832 19.8085C-14.832 23.0789 -12.1734 25.73 -8.89393 25.73C-5.61443 25.73 -2.95586 23.0789 -2.95586 19.8085C-2.95586 16.5381 -5.61443 13.887 -8.89393 13.887C-12.1734 13.887 -14.832 16.5381 -14.832 19.8085ZM3.51056 25.73C0.231049 25.73 -2.42752 23.0789 -2.42752 19.8085C-2.42752 16.5381 0.23105 13.887 3.51056 13.887C6.79007 13.887 9.44863 16.5381 9.44863 19.8085C9.44863 23.0789 6.79007 25.73 3.51056 25.73ZM15.9143 38.0995C12.6348 38.0995 9.97619 35.4484 9.97619 32.178C9.97619 28.9076 12.6348 26.2565 15.9143 26.2565C19.1938 26.2565 21.8523 28.9076 21.8523 32.178C21.8523 35.4484 19.1938 38.0995 15.9143 38.0995ZM-14.832 32.178C-14.832 35.4484 -12.1734 38.0995 -8.89393 38.0995C-5.61443 38.0995 -2.95586 35.4484 -2.95586 32.178C-2.95586 28.9077 -5.61443 26.2565 -8.89393 26.2565C-12.1734 26.2565 -14.832 28.9077 -14.832 32.178ZM3.51056 38.0995C0.231049 38.0995 -2.42752 35.4484 -2.42752 32.178C-2.42752 28.9077 0.231049 26.2565 3.51056 26.2565C6.79007 26.2565 9.44863 28.9077 9.44863 32.178C9.44863 35.4484 6.79007 38.0995 3.51056 38.0995ZM15.9143 50.4691C12.6348 50.4691 9.97619 47.8179 9.97619 44.5475C9.97619 41.2772 12.6348 38.626 15.9143 38.626C19.1938 38.626 21.8523 41.2772 21.8523 44.5475C21.8523 47.8179 19.1938 50.4691 15.9143 50.4691ZM-14.832 44.5475C-14.832 47.8179 -12.1734 50.4691 -8.89393 50.4691C-5.61442 50.4691 -2.95586 47.8179 -2.95586 44.5475C-2.95586 41.2772 -5.61442 38.626 -8.89393 38.626C-12.1734 38.626 -14.832 41.2772 -14.832 44.5475ZM3.51056 50.4691C0.231048 50.4691 -2.42752 47.8179 -2.42752 44.5475C-2.42752 41.2772 0.231049 38.626 3.51056 38.626C6.79007 38.626 9.44863 41.2772 9.44863 44.5475C9.44863 47.8179 6.79007 50.4691 3.51056 50.4691Z" fill="#F6E3DD"/>
<path fill-rule="evenodd" clip-rule="evenodd" d="M48.3672 20.3645L48.3672 20.05C46.4547 20.0078 44.9173 18.4486 44.9173 16.5313C44.9173 14.614 46.4547 13.0548 48.3672 13.0126L48.3672 12.6981C46.4547 12.6559 44.9173 11.0967 44.9173 9.17936C44.9173 7.26205 46.4547 5.70282 48.3672 5.66064L48.3672 5.34593C46.4547 5.30375 44.9173 3.74452 44.9173 1.82722C44.9173 -0.0900814 46.4547 -1.64931 48.3672 -1.69149L48.3672 -2.00614C46.4547 -2.04832 44.9173 -3.60755 44.9173 -5.52486C44.9173 -7.44216 46.4547 -9.00139 48.3672 -9.04357L48.3672 -9.35816C46.4808 -9.39987 44.9594 -10.9175 44.9184 -12.7988L44.6025 -12.7988C44.5608 -10.8911 42.9969 -9.35742 41.0739 -9.35742C39.1509 -9.35742 37.587 -10.8911 37.5453 -12.7988L37.2296 -12.7988C37.1879 -10.8911 35.6241 -9.35742 33.701 -9.35742C31.778 -9.35742 30.2142 -10.8911 30.1725 -12.7988L29.8568 -12.7988C29.8151 -10.8911 28.2512 -9.35742 26.3282 -9.35742C24.4051 -9.35742 22.8413 -10.8911 22.7996 -12.7988L22.4849 -12.7988C22.4432 -10.8911 20.8794 -9.35742 18.9563 -9.35742C17.0333 -9.35742 15.4694 -10.8911 15.4277 -12.7988L15.112 -12.7988C15.0734 -11.0306 13.7271 -9.58373 11.9991 -9.38158L12.1233 -9.00354C13.8163 -8.74442 15.1129 -7.28563 15.1129 -5.52485C15.1129 -4.55447 14.7191 -3.67581 14.0822 -3.03913L15.4798 1.21656C15.7698 -0.436184 17.2159 -1.69237 18.9563 -1.69237C20.9056 -1.69237 22.4857 -0.116595 22.4857 1.82722C22.4857 3.77104 20.9056 5.34681 18.9563 5.34681C18.0092 5.34681 17.1492 4.97477 16.5152 4.36925L17.1097 6.17934C17.6469 5.84982 18.2794 5.65977 18.9563 5.65977C20.9056 5.65977 22.4857 7.23554 22.4857 9.17936C22.4857 11.0255 21.0603 12.5397 19.2471 12.6872L19.3612 13.0346C21.1197 13.2349 22.4857 14.724 22.4857 16.5313C22.4857 17.5506 22.0513 18.4686 21.3569 19.1114L22.8144 23.5493C22.9831 21.7621 24.4919 20.3636 26.3282 20.3636C28.2774 20.3636 29.8576 21.9394 29.8576 23.8832C29.8576 24.2772 29.7927 24.656 29.673 25.0097L30.3511 24.9944C30.2347 24.6451 30.1716 24.2715 30.1716 23.8832C30.1716 21.9394 31.7518 20.3636 33.701 20.3636C35.6503 20.3636 37.2305 21.9394 37.2305 23.8832C37.2305 24.2155 37.1843 24.5371 37.098 24.8418L37.6733 24.8288C37.5893 24.5279 37.5445 24.2108 37.5445 23.8832C37.5445 21.9394 39.1246 20.3636 41.0739 20.3636C43.0231 20.3636 44.6033 21.9394 44.6033 23.8832C44.6033 24.1552 44.5724 24.4199 44.5138 24.6742L45.0043 24.6631C44.9474 24.4122 44.9173 24.1512 44.9173 23.8832C44.9173 21.9659 46.4547 20.4067 48.3672 20.3645ZM41.0739 -2.00526C39.1246 -2.00526 37.5445 -3.58104 37.5445 -5.52486C37.5445 -7.46867 39.1246 -9.04445 41.0739 -9.04445C43.0231 -9.04445 44.6033 -7.46867 44.6033 -5.52485C44.6033 -3.58104 43.0231 -2.00526 41.0739 -2.00526ZM22.7988 -5.52485C22.7988 -3.58104 24.3789 -2.00526 26.3282 -2.00526C28.2774 -2.00526 29.8576 -3.58104 29.8576 -5.52485C29.8576 -7.46867 28.2774 -9.04445 26.3282 -9.04445C24.3789 -9.04445 22.7988 -7.46867 22.7988 -5.52485ZM33.701 -2.00526C31.7518 -2.00526 30.1716 -3.58104 30.1716 -5.52485C30.1716 -7.46867 31.7518 -9.04445 33.701 -9.04445C35.6503 -9.04445 37.2305 -7.46867 37.2305 -5.52485C37.2305 -3.58104 35.6503 -2.00526 33.701 -2.00526ZM15.4269 -5.52486C15.4269 -3.58104 17.0071 -2.00526 18.9563 -2.00526C20.9056 -2.00526 22.4857 -3.58104 22.4857 -5.52485C22.4857 -7.46867 20.9056 -9.04445 18.9563 -9.04445C17.0071 -9.04445 15.4269 -7.46867 15.4269 -5.52486ZM41.0739 5.34681C39.1246 5.34681 37.5445 3.77104 37.5445 1.82722C37.5445 -0.116596 39.1246 -1.69237 41.0739 -1.69237C43.0231 -1.69237 44.6033 -0.116595 44.6033 1.82722C44.6033 3.77104 43.0231 5.34681 41.0739 5.34681ZM22.7988 1.82722C22.7988 3.77104 24.3789 5.34681 26.3282 5.34681C28.2774 5.34681 29.8576 3.77104 29.8576 1.82722C29.8576 -0.116597 28.2774 -1.69237 26.3282 -1.69237C24.3789 -1.69237 22.7988 -0.116597 22.7988 1.82722ZM33.701 5.34681C31.7518 5.34681 30.1716 3.77104 30.1716 1.82722C30.1716 -0.116596 31.7518 -1.69237 33.701 -1.69237C35.6503 -1.69237 37.2305 -0.116596 37.2305 1.82722C37.2305 3.77104 35.6503 5.34681 33.701 5.34681ZM41.0739 12.6987C39.1246 12.6987 37.5445 11.123 37.5445 9.17914C37.5445 7.23532 39.1246 5.65954 41.0739 5.65954C43.0231 5.65954 44.6033 7.23532 44.6033 9.17914C44.6033 11.123 43.0231 12.6987 41.0739 12.6987ZM22.7988 9.17914C22.7988 11.123 24.3789 12.6987 26.3282 12.6987C28.2774 12.6987 29.8576 11.123 29.8576 9.17914C29.8576 7.23532 28.2774 5.65955 26.3282 5.65954C24.3789 5.65954 22.7988 7.23532 22.7988 9.17914ZM33.701 12.6987C31.7518 12.6987 30.1716 11.123 30.1716 9.17914C30.1716 7.23532 31.7518 5.65954 33.701 5.65954C35.6503 5.65954 37.2305 7.23532 37.2305 9.17914C37.2305 11.123 35.6503 12.6987 33.701 12.6987ZM41.0739 20.0509C39.1246 20.0509 37.5445 18.4751 37.5445 16.5313C37.5445 14.5875 39.1246 13.0117 41.0739 13.0117C43.0231 13.0117 44.6033 14.5875 44.6033 16.5313C44.6033 18.4751 43.0231 20.0509 41.0739 20.0509ZM22.7988 16.5313C22.7988 18.4751 24.3789 20.0509 26.3282 20.0509C28.2774 20.0509 29.8576 18.4751 29.8576 16.5313C29.8576 14.5875 28.2774 13.0117 26.3282 13.0117C24.3789 13.0117 22.7988 14.5875 22.7988 16.5313ZM33.701 20.0509C31.7518 20.0509 30.1716 18.4751 30.1716 16.5313C30.1716 14.5875 31.7518 13.0117 33.701 13.0117C35.6503 13.0117 37.2305 14.5875 37.2305 16.5313C37.2305 18.4751 35.6503 20.0509 33.701 20.0509Z" fill="#0C422A"/>
</g>
</svg>
