<svg width="49" height="56" viewBox="0 0 49 56" fill="none" xmlns="http://www.w3.org/2000/svg">
<mask id="mask0" mask-type="alpha" maskUnits="userSpaceOnUse" x="-1" y="0" width="50" height="56">
<path fill-rule="evenodd" clip-rule="evenodd" d="M48.0024 0.799805L10.0814 14.3517V21.8698L-0.000976562 25.4729V55.1997L37.9201 41.6478V34.1297L48.0024 30.5266V0.799805Z" fill="#ADD5E5"/>
</mask>
<g mask="url(#mask0)">
<path fill-rule="evenodd" clip-rule="evenodd" d="M48.0024 0.799805L10.0814 14.3517V21.8698L-0.000976562 25.4729V55.1997L37.9201 41.6478V34.1297L48.0024 30.5266V0.799805Z" fill="#6038D0"/>
<path fill-rule="evenodd" clip-rule="evenodd" d="M41.8672 49.7956L41.8672 49.2665C38.6486 49.1963 36.0612 46.5727 36.0612 43.3464C36.0612 40.1201 38.6486 37.4964 41.8672 37.4263L41.8672 36.8969C38.6486 36.8268 36.0612 34.2031 36.0612 30.9768C36.0612 27.7505 38.6486 25.1269 41.8672 25.0568L41.8672 24.5274C38.6486 24.4573 36.0612 21.8336 36.0612 18.6073C36.0612 15.381 38.6487 12.7574 41.8672 12.6872L41.8672 12.1581C38.6487 12.0879 36.0612 9.46426 36.0612 6.23797C36.0612 3.01167 38.6487 0.388008 41.8672 0.317882L41.8672 -0.211306C38.6924 -0.280452 36.1317 -2.83414 36.0626 -6L35.5314 -6C35.4613 -2.79034 32.8301 -0.209941 29.5946 -0.209941C26.359 -0.209942 23.7279 -2.79034 23.6577 -6L23.1273 -6C23.0572 -2.79034 20.426 -0.209941 17.1905 -0.209942C13.9549 -0.209942 11.3238 -2.79034 11.2537 -6L10.7224 -6C10.6523 -2.79034 8.02116 -0.209941 4.78561 -0.209942C1.55006 -0.209942 -1.0811 -2.79034 -1.15121 -6L-1.68243 -6C-1.75254 -2.79034 -4.38371 -0.209941 -7.61925 -0.209942C-10.8548 -0.209942 -13.486 -2.79034 -13.5561 -6L-14.0851 -6C-14.1501 -3.02527 -16.415 -0.591054 -19.322 -0.250649L-19.1131 0.385366C-16.2649 0.821586 -14.0837 3.27577 -14.0837 6.23797C-14.0837 7.87036 -14.7461 9.34848 -15.8175 10.4196L-13.4675 17.5747C-12.9776 14.7966 -10.5456 12.6858 -7.61925 12.6858C-4.33965 12.6858 -1.681 15.337 -1.681 18.6073C-1.681 21.8777 -4.33965 24.5289 -7.61925 24.5289C-9.2109 24.5289 -10.6563 23.9044 -11.7225 22.8878L-10.724 25.9281C-9.82059 25.3746 -8.75731 25.0553 -7.61925 25.0553C-4.33965 25.0553 -1.681 27.7065 -1.681 30.9768C-1.681 34.0821 -4.07796 36.6291 -7.12752 36.8784L-6.93528 37.4637C-3.97783 37.8019 -1.681 40.3067 -1.681 43.3464C-1.681 45.0602 -2.41114 46.604 -3.57815 47.6853L-1.12602 55.1514C-0.841059 52.1457 1.69689 49.7942 4.78562 49.7942C8.06522 49.7942 10.7239 52.4454 10.7239 55.7157C10.7239 56.3785 10.6147 57.0159 10.4132 57.6109L11.5542 57.5851C11.3583 56.9975 11.2522 56.369 11.2522 55.7157C11.2522 52.4454 13.9109 49.7942 17.1905 49.7942C20.4701 49.7942 23.1287 52.4454 23.1287 55.7157C23.1287 56.2748 23.051 56.8157 22.9058 57.3285L23.8731 57.3066C23.7318 56.8004 23.6563 56.2668 23.6563 55.7157C23.6563 52.4454 26.315 49.7942 29.5946 49.7942C32.8742 49.7942 35.5328 52.4454 35.5328 55.7157C35.5328 56.1733 35.4808 56.6187 35.3823 57.0464L36.2074 57.0277C36.1117 56.6057 36.0612 56.1666 36.0612 55.7157C36.0612 52.4894 38.6486 49.8658 41.8672 49.7956ZM29.5946 12.1595C26.315 12.1595 23.6563 9.50834 23.6563 6.23797C23.6563 2.9676 26.315 0.316443 29.5946 0.316443C32.8742 0.316443 35.5328 2.9676 35.5328 6.23797C35.5328 9.50834 32.8742 12.1595 29.5946 12.1595ZM-1.15264 6.23797C-1.15264 9.50834 1.50601 12.1595 4.78562 12.1595C8.06522 12.1595 10.7239 9.50834 10.7239 6.23797C10.7239 2.9676 8.06522 0.316443 4.78562 0.316443C1.50601 0.316443 -1.15264 2.9676 -1.15264 6.23797ZM17.1905 12.1595C13.9109 12.1595 11.2522 9.50833 11.2522 6.23797C11.2522 2.9676 13.9109 0.316442 17.1905 0.316442C20.4701 0.316443 23.1287 2.9676 23.1287 6.23797C23.1287 9.50834 20.4701 12.1595 17.1905 12.1595ZM-13.5575 6.23797C-13.5575 9.50833 -10.8989 12.1595 -7.61925 12.1595C-4.33965 12.1595 -1.681 9.50834 -1.681 6.23797C-1.681 2.9676 -4.33965 0.316442 -7.61925 0.316442C-10.8989 0.316442 -13.5575 2.9676 -13.5575 6.23797ZM29.5946 24.5289C26.315 24.5289 23.6563 21.8777 23.6563 18.6073C23.6563 15.337 26.315 12.6858 29.5946 12.6858C32.8742 12.6858 35.5328 15.337 35.5328 18.6073C35.5328 21.8777 32.8742 24.5289 29.5946 24.5289ZM-1.15264 18.6073C-1.15264 21.8777 1.50601 24.5289 4.78562 24.5289C8.06522 24.5289 10.7239 21.8777 10.7239 18.6073C10.7239 15.337 8.06522 12.6858 4.78562 12.6858C1.50601 12.6858 -1.15264 15.337 -1.15264 18.6073ZM17.1905 24.5289C13.9109 24.5289 11.2522 21.8777 11.2522 18.6073C11.2522 15.337 13.9109 12.6858 17.1905 12.6858C20.4701 12.6858 23.1287 15.337 23.1287 18.6073C23.1287 21.8777 20.4701 24.5289 17.1905 24.5289ZM29.5946 36.8984C26.315 36.8984 23.6563 34.2472 23.6563 30.9768C23.6563 27.7065 26.315 25.0553 29.5946 25.0553C32.8742 25.0553 35.5328 27.7065 35.5328 30.9768C35.5328 34.2472 32.8742 36.8984 29.5946 36.8984ZM-1.15264 30.9768C-1.15264 34.2472 1.50601 36.8984 4.78562 36.8984C8.06522 36.8984 10.7239 34.2472 10.7239 30.9768C10.7239 27.7065 8.06522 25.0553 4.78562 25.0553C1.50601 25.0553 -1.15264 27.7065 -1.15264 30.9768ZM17.1905 36.8984C13.9109 36.8984 11.2522 34.2472 11.2522 30.9768C11.2522 27.7065 13.9109 25.0553 17.1905 25.0553C20.4701 25.0553 23.1287 27.7065 23.1287 30.9768C23.1287 34.2472 20.4701 36.8984 17.1905 36.8984ZM29.5946 49.2679C26.315 49.2679 23.6563 46.6167 23.6563 43.3464C23.6563 40.076 26.315 37.4248 29.5946 37.4248C32.8742 37.4248 35.5328 40.076 35.5328 43.3464C35.5328 46.6167 32.8742 49.2679 29.5946 49.2679ZM-1.15264 43.3464C-1.15264 46.6167 1.50601 49.2679 4.78562 49.2679C8.06522 49.2679 10.7239 46.6167 10.7239 43.3464C10.7239 40.076 8.06522 37.4248 4.78562 37.4248C1.50601 37.4248 -1.15264 40.076 -1.15264 43.3464ZM17.1905 49.2679C13.9109 49.2679 11.2522 46.6167 11.2522 43.3464C11.2522 40.076 13.9109 37.4248 17.1905 37.4248C20.4701 37.4248 23.1287 40.076 23.1287 43.3464C23.1287 46.6167 20.4701 49.2679 17.1905 49.2679Z" fill="#19D992"/>
<path fill-rule="evenodd" clip-rule="evenodd" d="M53.9834 33.9631L53.9834 33.6486C52.0708 33.6065 50.5334 32.0472 50.5334 30.1299C50.5334 28.2126 52.0708 26.6534 53.9834 26.6112L53.9834 26.2967C52.0708 26.2545 50.5334 24.6953 50.5334 22.778C50.5334 20.8607 52.0708 19.3015 53.9834 19.2593L53.9834 18.9446C52.0708 18.9024 50.5334 17.3432 50.5334 15.4259C50.5334 13.5086 52.0708 11.9493 53.9834 11.9071L53.9834 11.5925C52.0708 11.5503 50.5334 9.99108 50.5334 8.07378C50.5334 6.15648 52.0708 4.59724 53.9834 4.55506L53.9834 4.24047C52.0969 4.19877 50.5755 2.68114 50.5345 0.799805L50.2186 0.799805C50.1769 2.70751 48.613 4.24121 46.6899 4.24121C44.7668 4.24121 43.2029 2.70751 43.1612 0.799804L42.8455 0.799804C42.8038 2.70751 41.2399 4.24121 39.3168 4.24121C37.3937 4.24121 35.8298 2.70751 35.7881 0.799804L35.4724 0.799804C35.4307 2.70751 33.8668 4.24121 31.9437 4.24121C30.0206 4.24121 28.4568 2.70751 28.4151 0.799804L28.1003 0.799804C28.0586 2.70751 26.4947 4.24121 24.5716 4.24121C22.6485 4.24121 21.0847 2.70751 21.043 0.799803L20.7273 0.799803C20.6886 2.56801 19.3423 4.0149 17.6143 4.21706L17.7384 4.5951C19.4315 4.85422 20.7281 6.313 20.7281 8.07378C20.7281 9.04416 20.3343 9.92282 19.6973 10.5595L21.095 14.8152C21.385 13.1624 22.8312 11.9063 24.5716 11.9063C26.5209 11.9063 28.1012 13.482 28.1012 15.4259C28.1012 17.3697 26.5209 18.9454 24.5716 18.9454C23.6245 18.9454 22.7644 18.5734 22.1305 17.9679L22.725 19.778C23.2622 19.4485 23.8947 19.2584 24.5716 19.2584C26.521 19.2584 28.1012 20.8342 28.1012 22.778C28.1012 24.6242 26.6757 26.1384 24.8624 26.2858L24.9765 26.6332C26.7351 26.8335 28.1012 28.3226 28.1012 30.1299C28.1012 31.1492 27.6667 32.0673 26.9723 32.71L28.4299 37.1479C28.5986 35.3607 30.1074 33.9623 31.9437 33.9623C33.893 33.9623 35.4733 35.538 35.4733 37.4818C35.4733 37.8758 35.4084 38.2547 35.2886 38.6084L35.9668 38.593C35.8503 38.2437 35.7873 37.8701 35.7873 37.4818C35.7873 35.538 37.3675 33.9623 39.3168 33.9623C41.2661 33.9623 42.8463 35.538 42.8463 37.4818C42.8463 37.8142 42.8002 38.1357 42.7138 38.4405L43.2892 38.4275C43.2052 38.1266 43.1604 37.8094 43.1604 37.4818C43.1604 35.538 44.7406 33.9623 46.6899 33.9623C48.6392 33.9623 50.2194 35.538 50.2194 37.4818C50.2194 37.7538 50.1885 38.0186 50.1299 38.2728L50.6204 38.2617C50.5635 38.0109 50.5334 37.7499 50.5334 37.4818C50.5334 35.5645 52.0708 34.0053 53.9834 33.9631ZM46.6899 11.5934C44.7406 11.5934 43.1604 10.0176 43.1604 8.07378C43.1604 6.12996 44.7406 4.55419 46.6899 4.55419C48.6392 4.55419 50.2194 6.12996 50.2194 8.07378C50.2194 10.0176 48.6392 11.5934 46.6899 11.5934ZM28.4142 8.07378C28.4142 10.0176 29.9944 11.5934 31.9437 11.5934C33.893 11.5934 35.4733 10.0176 35.4733 8.07378C35.4733 6.12996 33.893 4.55419 31.9437 4.55419C29.9944 4.55419 28.4142 6.12996 28.4142 8.07378ZM39.3168 11.5934C37.3675 11.5934 35.7873 10.0176 35.7873 8.07378C35.7873 6.12996 37.3675 4.55419 39.3168 4.55419C41.2661 4.55419 42.8463 6.12996 42.8463 8.07378C42.8463 10.0176 41.2661 11.5934 39.3168 11.5934ZM21.0421 8.07378C21.0421 10.0176 22.6223 11.5934 24.5716 11.5934C26.521 11.5934 28.1012 10.0176 28.1012 8.07378C28.1012 6.12996 26.521 4.55419 24.5716 4.55419C22.6223 4.55419 21.0421 6.12996 21.0421 8.07378ZM46.6899 18.9454C44.7406 18.9454 43.1604 17.3697 43.1604 15.4259C43.1604 13.482 44.7406 11.9063 46.6899 11.9063C48.6392 11.9063 50.2194 13.482 50.2194 15.4259C50.2194 17.3697 48.6392 18.9454 46.6899 18.9454ZM28.4142 15.4259C28.4142 17.3697 29.9944 18.9454 31.9437 18.9454C33.893 18.9454 35.4733 17.3697 35.4733 15.4259C35.4733 13.482 33.893 11.9063 31.9437 11.9063C29.9944 11.9063 28.4142 13.482 28.4142 15.4259ZM39.3168 18.9454C37.3675 18.9454 35.7873 17.3697 35.7873 15.4259C35.7873 13.482 37.3675 11.9063 39.3168 11.9063C41.2661 11.9063 42.8463 13.482 42.8463 15.4259C42.8463 17.3697 41.2661 18.9454 39.3168 18.9454ZM46.6899 26.2974C44.7406 26.2974 43.1604 24.7216 43.1604 22.7778C43.1604 20.834 44.7406 19.2582 46.6899 19.2582C48.6392 19.2582 50.2194 20.834 50.2194 22.7778C50.2194 24.7216 48.6392 26.2974 46.6899 26.2974ZM28.4142 22.7778C28.4142 24.7216 29.9944 26.2974 31.9437 26.2974C33.893 26.2974 35.4733 24.7216 35.4733 22.7778C35.4733 20.834 33.893 19.2582 31.9437 19.2582C29.9944 19.2582 28.4142 20.834 28.4142 22.7778ZM39.3168 26.2974C37.3675 26.2974 35.7873 24.7216 35.7873 22.7778C35.7873 20.834 37.3675 19.2582 39.3168 19.2582C41.2661 19.2582 42.8463 20.834 42.8463 22.7778C42.8463 24.7216 41.2661 26.2974 39.3168 26.2974ZM46.6899 33.6495C44.7406 33.6495 43.1604 32.0737 43.1604 30.1299C43.1604 28.1861 44.7406 26.6103 46.6899 26.6103C48.6392 26.6103 50.2194 28.1861 50.2194 30.1299C50.2194 32.0737 48.6392 33.6495 46.6899 33.6495ZM28.4142 30.1299C28.4142 32.0737 29.9944 33.6495 31.9437 33.6495C33.893 33.6495 35.4733 32.0737 35.4733 30.1299C35.4733 28.1861 33.893 26.6103 31.9437 26.6103C29.9944 26.6103 28.4142 28.1861 28.4142 30.1299ZM39.3168 33.6495C37.3675 33.6495 35.7873 32.0737 35.7873 30.1299C35.7873 28.1861 37.3675 26.6103 39.3168 26.6103C41.2661 26.6103 42.8463 28.1861 42.8463 30.1299C42.8463 32.0737 41.2661 33.6495 39.3168 33.6495Z" fill="#E8E0FF"/>
</g>
</svg>
