<svg width="49" height="56" viewBox="0 0 49 56" fill="none" xmlns="http://www.w3.org/2000/svg">
<mask id="mask0" mask-type="alpha" maskUnits="userSpaceOnUse" x="-1" y="0" width="50" height="56">
<path fill-rule="evenodd" clip-rule="evenodd" d="M48.0024 0.799805L10.0814 14.3517V21.8698L-0.000976562 25.4729V55.1997L37.9201 41.6478V34.1297L48.0024 30.5266V0.799805Z" fill="#ADD5E5"/>
</mask>
<g mask="url(#mask0)">
<path fill-rule="evenodd" clip-rule="evenodd" d="M48.0024 0.799805L10.0814 14.3517V21.8698L-0.000976562 25.4729V55.1997L37.9201 41.6478V34.1297L48.0024 30.5266V0.799805Z" fill="#F6E3DD"/>
<path fill-rule="evenodd" clip-rule="evenodd" d="M41.8672 49.7956L41.8672 49.2665C38.6486 49.1963 36.0612 46.5727 36.0612 43.3464C36.0612 40.1201 38.6486 37.4964 41.8672 37.4263L41.8672 36.8969C38.6486 36.8268 36.0612 34.2031 36.0612 30.9768C36.0612 27.7505 38.6486 25.1269 41.8672 25.0568L41.8672 24.5274C38.6486 24.4573 36.0612 21.8336 36.0612 18.6073C36.0612 15.381 38.6487 12.7574 41.8672 12.6872L41.8672 12.1581C38.6487 12.0879 36.0612 9.46426 36.0612 6.23797C36.0612 3.01167 38.6487 0.388008 41.8672 0.317882L41.8672 -0.211306C38.6924 -0.280452 36.1317 -2.83414 36.0626 -6L35.5314 -6C35.4613 -2.79034 32.8301 -0.209941 29.5946 -0.209941C26.359 -0.209942 23.7279 -2.79034 23.6577 -6L23.1273 -6C23.0572 -2.79034 20.426 -0.209941 17.1905 -0.209942C13.9549 -0.209942 11.3238 -2.79034 11.2537 -6L10.7224 -6C10.6523 -2.79034 8.02116 -0.209941 4.78561 -0.209942C1.55006 -0.209942 -1.0811 -2.79034 -1.15121 -6L-1.68243 -6C-1.75254 -2.79034 -4.38371 -0.209941 -7.61925 -0.209942C-10.8548 -0.209942 -13.486 -2.79034 -13.5561 -6L-14.0851 -6C-14.1501 -3.02527 -16.415 -0.591054 -19.322 -0.250649L-19.1131 0.385366C-16.2649 0.821586 -14.0837 3.27577 -14.0837 6.23797C-14.0837 7.87036 -14.7461 9.34848 -15.8175 10.4196L-13.4675 17.5747C-12.9776 14.7966 -10.5456 12.6858 -7.61925 12.6858C-4.33965 12.6858 -1.681 15.337 -1.681 18.6073C-1.681 21.8777 -4.33965 24.5289 -7.61925 24.5289C-9.2109 24.5289 -10.6563 23.9044 -11.7225 22.8878L-10.724 25.9281C-9.82059 25.3746 -8.75731 25.0553 -7.61925 25.0553C-4.33965 25.0553 -1.681 27.7065 -1.681 30.9768C-1.681 34.0821 -4.07796 36.6291 -7.12752 36.8784L-6.93528 37.4637C-3.97783 37.8019 -1.681 40.3067 -1.681 43.3464C-1.681 45.0602 -2.41114 46.604 -3.57815 47.6853L-1.12602 55.1514C-0.841059 52.1457 1.69689 49.7942 4.78562 49.7942C8.06522 49.7942 10.7239 52.4454 10.7239 55.7157C10.7239 56.3785 10.6147 57.0159 10.4132 57.6109L11.5542 57.5851C11.3583 56.9975 11.2522 56.369 11.2522 55.7157C11.2522 52.4454 13.9109 49.7942 17.1905 49.7942C20.4701 49.7942 23.1287 52.4454 23.1287 55.7157C23.1287 56.2748 23.051 56.8157 22.9058 57.3285L23.8731 57.3066C23.7318 56.8004 23.6563 56.2668 23.6563 55.7157C23.6563 52.4454 26.315 49.7942 29.5946 49.7942C32.8742 49.7942 35.5328 52.4454 35.5328 55.7157C35.5328 56.1733 35.4808 56.6187 35.3823 57.0464L36.2074 57.0277C36.1117 56.6057 36.0612 56.1666 36.0612 55.7157C36.0612 52.4894 38.6486 49.8658 41.8672 49.7956ZM29.5946 12.1595C26.315 12.1595 23.6563 9.50834 23.6563 6.23797C23.6563 2.9676 26.315 0.316443 29.5946 0.316443C32.8742 0.316443 35.5328 2.9676 35.5328 6.23797C35.5328 9.50834 32.8742 12.1595 29.5946 12.1595ZM-1.15264 6.23797C-1.15264 9.50834 1.50601 12.1595 4.78562 12.1595C8.06522 12.1595 10.7239 9.50834 10.7239 6.23797C10.7239 2.9676 8.06522 0.316443 4.78562 0.316443C1.50601 0.316443 -1.15264 2.9676 -1.15264 6.23797ZM17.1905 12.1595C13.9109 12.1595 11.2522 9.50833 11.2522 6.23797C11.2522 2.9676 13.9109 0.316442 17.1905 0.316442C20.4701 0.316443 23.1287 2.9676 23.1287 6.23797C23.1287 9.50834 20.4701 12.1595 17.1905 12.1595ZM-13.5575 6.23797C-13.5575 9.50833 -10.8989 12.1595 -7.61925 12.1595C-4.33965 12.1595 -1.681 9.50834 -1.681 6.23797C-1.681 2.9676 -4.33965 0.316442 -7.61925 0.316442C-10.8989 0.316442 -13.5575 2.9676 -13.5575 6.23797ZM29.5946 24.5289C26.315 24.5289 23.6563 21.8777 23.6563 18.6073C23.6563 15.337 26.315 12.6858 29.5946 12.6858C32.8742 12.6858 35.5328 15.337 35.5328 18.6073C35.5328 21.8777 32.8742 24.5289 29.5946 24.5289ZM-1.15264 18.6073C-1.15264 21.8777 1.50601 24.5289 4.78562 24.5289C8.06522 24.5289 10.7239 21.8777 10.7239 18.6073C10.7239 15.337 8.06522 12.6858 4.78562 12.6858C1.50601 12.6858 -1.15264 15.337 -1.15264 18.6073ZM17.1905 24.5289C13.9109 24.5289 11.2522 21.8777 11.2522 18.6073C11.2522 15.337 13.9109 12.6858 17.1905 12.6858C20.4701 12.6858 23.1287 15.337 23.1287 18.6073C23.1287 21.8777 20.4701 24.5289 17.1905 24.5289ZM29.5946 36.8984C26.315 36.8984 23.6563 34.2472 23.6563 30.9768C23.6563 27.7065 26.315 25.0553 29.5946 25.0553C32.8742 25.0553 35.5328 27.7065 35.5328 30.9768C35.5328 34.2472 32.8742 36.8984 29.5946 36.8984ZM-1.15264 30.9768C-1.15264 34.2472 1.50601 36.8984 4.78562 36.8984C8.06522 36.8984 10.7239 34.2472 10.7239 30.9768C10.7239 27.7065 8.06522 25.0553 4.78562 25.0553C1.50601 25.0553 -1.15264 27.7065 -1.15264 30.9768ZM17.1905 36.8984C13.9109 36.8984 11.2522 34.2472 11.2522 30.9768C11.2522 27.7065 13.9109 25.0553 17.1905 25.0553C20.4701 25.0553 23.1287 27.7065 23.1287 30.9768C23.1287 34.2472 20.4701 36.8984 17.1905 36.8984ZM29.5946 49.2679C26.315 49.2679 23.6563 46.6167 23.6563 43.3464C23.6563 40.076 26.315 37.4248 29.5946 37.4248C32.8742 37.4248 35.5328 40.076 35.5328 43.3464C35.5328 46.6167 32.8742 49.2679 29.5946 49.2679ZM-1.15264 43.3464C-1.15264 46.6167 1.50601 49.2679 4.78562 49.2679C8.06522 49.2679 10.7239 46.6167 10.7239 43.3464C10.7239 40.076 8.06522 37.4248 4.78562 37.4248C1.50601 37.4248 -1.15264 40.076 -1.15264 43.3464ZM17.1905 49.2679C13.9109 49.2679 11.2522 46.6167 11.2522 43.3464C11.2522 40.076 13.9109 37.4248 17.1905 37.4248C20.4701 37.4248 23.1287 40.076 23.1287 43.3464C23.1287 46.6167 20.4701 49.2679 17.1905 49.2679Z" fill="#0C422A"/>
<path fill-rule="evenodd" clip-rule="evenodd" d="M36.3682 56.9622L36.3682 56.6477C34.4556 56.6055 32.9182 55.0463 32.9182 53.129C32.9182 51.2117 34.4556 49.6524 36.3682 49.6102L36.3682 49.2957C34.4556 49.2535 32.9182 47.6943 32.9182 45.777C32.9182 43.8597 34.4556 42.3005 36.3682 42.2583L36.3682 41.9436C34.4556 41.9014 32.9182 40.3422 32.9182 38.4249C32.9182 36.5076 34.4556 34.9483 36.3682 34.9062L36.3682 34.5915C34.4556 34.5493 32.9182 32.9901 32.9182 31.0728C32.9182 29.1555 34.4556 27.5963 36.3682 27.5541L36.3682 27.2395C34.4817 27.1978 32.9603 25.6802 32.9192 23.7988L32.6033 23.7988C32.5616 25.7065 30.9978 27.2402 29.0747 27.2402C27.1516 27.2402 25.5877 25.7065 25.546 23.7988L25.2303 23.7988C25.1886 25.7065 23.6247 27.2402 21.7016 27.2402C19.7785 27.2402 18.2146 25.7065 18.1729 23.7988L17.8572 23.7988C17.8155 25.7065 16.2516 27.2402 14.3285 27.2402C12.4054 27.2402 10.8415 25.7065 10.7998 23.7988L10.4851 23.7988C10.4434 25.7065 8.87951 27.2402 6.95641 27.2402C5.03331 27.2402 3.46943 25.7065 3.42773 23.7988L3.11202 23.7988C3.07338 25.567 1.72703 27.0139 -0.000980527 27.2161L0.12318 27.5941C1.81624 27.8532 3.11288 29.312 3.11288 31.0728C3.11288 32.0432 2.71905 32.9218 2.0821 33.5585L3.47982 37.8142C3.76975 36.1615 5.21597 34.9053 6.95641 34.9053C8.90572 34.9053 10.4859 36.4811 10.4859 38.4249C10.4859 40.3687 8.90572 41.9445 6.95641 41.9445C6.00924 41.9445 5.14921 41.5724 4.51527 40.9669L5.10977 42.777C5.64698 42.4475 6.27944 42.2574 6.95641 42.2574C8.90572 42.2574 10.4859 43.8332 10.4859 45.777C10.4859 47.6232 9.06046 49.1374 7.24716 49.2848L7.36127 49.6323C9.11991 49.8325 10.4859 51.3217 10.4859 53.129C10.4859 54.1482 10.0515 55.0663 9.35709 55.709L10.8147 60.1469C10.9833 58.3597 12.4921 56.9613 14.3285 56.9613C16.2778 56.9613 17.858 58.5371 17.858 60.4809C17.858 60.8748 17.7931 61.2537 17.6734 61.6074L18.3516 61.5921C18.2351 61.2428 18.172 60.8692 18.172 60.4809C18.172 58.5371 19.7523 56.9613 21.7016 56.9613C23.6509 56.9613 25.2311 58.5371 25.2311 60.4809C25.2311 60.8132 25.1849 61.1347 25.0986 61.4395L25.674 61.4265C25.59 61.1256 25.5451 60.8085 25.5451 60.4809C25.5451 58.5371 27.1253 56.9613 29.0747 56.9613C31.024 56.9613 32.6042 58.5371 32.6042 60.4809C32.6042 60.7528 32.5733 61.0176 32.5147 61.2718L33.0051 61.2607C32.9482 61.0099 32.9182 60.7489 32.9182 60.4809C32.9182 58.5636 34.4556 57.0043 36.3682 56.9622ZM29.0747 34.5924C27.1253 34.5924 25.5451 33.0166 25.5451 31.0728C25.5451 29.129 27.1253 27.5532 29.0747 27.5532C31.024 27.5532 32.6042 29.129 32.6042 31.0728C32.6042 33.0166 31.024 34.5924 29.0747 34.5924ZM10.799 31.0728C10.799 33.0166 12.3792 34.5924 14.3285 34.5924C16.2778 34.5924 17.858 33.0166 17.858 31.0728C17.858 29.129 16.2778 27.5532 14.3285 27.5532C12.3792 27.5532 10.799 29.129 10.799 31.0728ZM21.7016 34.5924C19.7523 34.5924 18.172 33.0166 18.172 31.0728C18.172 29.129 19.7523 27.5532 21.7016 27.5532C23.6509 27.5532 25.2311 29.129 25.2311 31.0728C25.2311 33.0166 23.6509 34.5924 21.7016 34.5924ZM3.42688 31.0728C3.42688 33.0166 5.0071 34.5924 6.95641 34.5924C8.90572 34.5924 10.4859 33.0166 10.4859 31.0728C10.4859 29.129 8.90572 27.5532 6.95641 27.5532C5.0071 27.5532 3.42688 29.129 3.42688 31.0728ZM29.0747 41.9445C27.1253 41.9445 25.5451 40.3687 25.5451 38.4249C25.5451 36.4811 27.1253 34.9053 29.0747 34.9053C31.024 34.9053 32.6042 36.4811 32.6042 38.4249C32.6042 40.3687 31.024 41.9445 29.0747 41.9445ZM10.799 38.4249C10.799 40.3687 12.3792 41.9445 14.3285 41.9445C16.2778 41.9445 17.858 40.3687 17.858 38.4249C17.858 36.4811 16.2778 34.9053 14.3285 34.9053C12.3792 34.9053 10.799 36.4811 10.799 38.4249ZM21.7016 41.9445C19.7523 41.9445 18.172 40.3687 18.172 38.4249C18.172 36.4811 19.7523 34.9053 21.7016 34.9053C23.6509 34.9053 25.2311 36.4811 25.2311 38.4249C25.2311 40.3687 23.6509 41.9445 21.7016 41.9445ZM29.0747 49.2964C27.1253 49.2964 25.5451 47.7206 25.5451 45.7768C25.5451 43.833 27.1253 42.2572 29.0747 42.2572C31.024 42.2572 32.6042 43.833 32.6042 45.7768C32.6042 47.7206 31.024 49.2964 29.0747 49.2964ZM10.799 45.7768C10.799 47.7206 12.3792 49.2964 14.3285 49.2964C16.2778 49.2964 17.858 47.7206 17.858 45.7768C17.858 43.833 16.2778 42.2572 14.3285 42.2572C12.3792 42.2572 10.799 43.833 10.799 45.7768ZM21.7016 49.2964C19.7523 49.2964 18.172 47.7206 18.172 45.7768C18.172 43.833 19.7523 42.2572 21.7016 42.2572C23.6509 42.2572 25.2311 43.833 25.2311 45.7768C25.2311 47.7206 23.6509 49.2964 21.7016 49.2964ZM29.0747 56.6485C27.1253 56.6485 25.5451 55.0728 25.5451 53.129C25.5451 51.1851 27.1253 49.6094 29.0747 49.6094C31.024 49.6094 32.6042 51.1851 32.6042 53.129C32.6042 55.0728 31.024 56.6485 29.0747 56.6485ZM10.799 53.129C10.799 55.0728 12.3792 56.6485 14.3285 56.6485C16.2778 56.6485 17.858 55.0728 17.858 53.129C17.858 51.1851 16.2778 49.6094 14.3285 49.6094C12.3792 49.6094 10.799 51.1851 10.799 53.129ZM21.7016 56.6485C19.7523 56.6485 18.172 55.0728 18.172 53.129C18.172 51.1851 19.7523 49.6094 21.7016 49.6094C23.6509 49.6094 25.2311 51.1851 25.2311 53.129C25.2311 55.0728 23.6509 56.6485 21.7016 56.6485Z" fill="#6038D0"/>
</g>
</svg>
