<svg width="181" height="204" viewBox="0 0 181 204" fill="none" xmlns="http://www.w3.org/2000/svg">
<mask id="mask0" mask-type="alpha" maskUnits="userSpaceOnUse" x="0" y="0" width="181" height="204">
<path fill-rule="evenodd" clip-rule="evenodd" d="M180.007 0L37.8076 50.8197V79.0127L0 92.5245V204L142.2 153.18V124.987L180.007 111.475V0Z" fill="#ADD5E5"/>
</mask>
<g mask="url(#mask0)">
<path fill-rule="evenodd" clip-rule="evenodd" d="M180.007 0L37.8076 50.8197V79.0127L0 92.5245V204L142.2 153.18V124.987L180.007 111.475V0Z" fill="#0C422A"/>
<path fill-rule="evenodd" clip-rule="evenodd" d="M157.002 183.733L157.002 181.749C144.933 181.486 135.23 171.647 135.23 159.549C135.23 147.45 144.933 137.611 157.002 137.348L157.002 135.363C144.933 135.1 135.23 125.262 135.23 113.163C135.23 101.064 144.933 91.2256 157.002 90.9627L157.002 88.9776C144.933 88.7146 135.23 78.8759 135.23 66.7773C135.23 54.6786 144.933 44.8399 157.002 44.5769L157.002 42.5926C144.933 42.3296 135.23 32.4909 135.23 20.3922C135.23 8.29362 144.933 -1.54511 157.002 -1.80808L157.002 -3.79301C145.097 -4.05236 135.495 -13.6283 135.235 -25.5L133.243 -25.5C132.979 -13.464 123.113 -3.78778 110.98 -3.78778C98.8475 -3.78778 88.981 -13.464 88.7179 -25.5L86.7309 -25.5C86.4678 -13.464 76.6013 -3.78778 64.4685 -3.78778C52.3358 -3.78778 42.4693 -13.464 42.2062 -25.5L40.2134 -25.5C39.9502 -13.464 30.0837 -3.78778 17.951 -3.78778C5.81819 -3.78778 -4.04826 -13.464 -4.31143 -25.5L-6.30421 -25.5C-6.56738 -13.464 -16.4339 -3.78778 -28.5666 -3.78778C-40.6994 -3.78778 -50.5658 -13.464 -50.829 -25.5L-52.813 -25.5C-53.0569 -14.345 -61.5498 -5.21687 -72.4507 -3.94042L-71.6672 -1.55502C-60.9869 0.080801 -52.8076 9.284 -52.8076 20.3922C-52.8076 26.5137 -55.2915 32.0567 -59.3091 36.0735L-50.497 62.9049C-48.6598 52.4871 -39.5402 44.5715 -28.5666 44.5715C-16.2685 44.5715 -6.29883 54.5134 -6.29883 66.7773C-6.29883 79.0411 -16.2685 88.983 -28.5666 88.983C-34.5352 88.983 -39.9552 86.6413 -43.9534 82.829L-40.2089 94.2304C-36.8214 92.1544 -32.8342 90.9573 -28.5666 90.9573C-16.2685 90.9573 -6.29883 100.899 -6.29883 113.163C-6.29883 124.808 -15.2872 134.359 -26.7227 135.294L-26.0018 137.489C-14.9117 138.757 -6.29882 148.15 -6.29882 159.549C-6.29882 165.976 -9.03678 171.765 -13.413 175.82L-4.21719 203.819C-3.1495 192.547 6.36793 183.728 17.951 183.728C30.2491 183.728 40.2188 193.67 40.2188 205.934C40.2188 208.419 39.8092 210.81 39.0538 213.041L43.3332 212.944C42.5985 210.741 42.2008 208.383 42.2008 205.934C42.2008 193.67 52.1704 183.728 64.4685 183.728C76.7667 183.728 86.7363 193.67 86.7363 205.934C86.7363 208.03 86.445 210.059 85.9004 211.982L89.5253 211.9C88.9956 210.001 88.7125 208.001 88.7125 205.934C88.7125 193.67 98.6821 183.728 110.98 183.728C123.278 183.728 133.248 193.67 133.248 205.934C133.248 207.65 133.053 209.32 132.684 210.924L135.779 210.854C135.42 209.271 135.23 207.625 135.23 205.934C135.23 193.835 144.933 183.996 157.002 183.733ZM110.98 42.598C98.6821 42.598 88.7125 32.6561 88.7125 20.3922C88.7125 8.12836 98.6821 -1.81348 110.98 -1.81348C123.278 -1.81348 133.248 8.12836 133.248 20.3922C133.248 32.6561 123.278 42.598 110.98 42.598ZM-4.31682 20.3922C-4.31682 32.6561 5.6528 42.598 17.951 42.598C30.2491 42.598 40.2187 32.6561 40.2187 20.3922C40.2187 8.12836 30.2491 -1.81348 17.951 -1.81348C5.6528 -1.81348 -4.31682 8.12836 -4.31682 20.3922ZM64.4685 42.598C52.1704 42.598 42.2008 32.6561 42.2008 20.3922C42.2008 8.12836 52.1704 -1.81348 64.4685 -1.81348C76.7667 -1.81348 86.7363 8.12836 86.7363 20.3922C86.7363 32.6561 76.7667 42.598 64.4685 42.598ZM-50.8344 20.3922C-50.8344 32.6561 -40.8648 42.598 -28.5666 42.598C-16.2685 42.598 -6.29883 32.6561 -6.29883 20.3922C-6.29883 8.12836 -16.2685 -1.81348 -28.5666 -1.81348C-40.8648 -1.81348 -50.8344 8.12836 -50.8344 20.3922ZM110.98 88.983C98.6821 88.983 88.7125 79.0411 88.7125 66.7772C88.7125 54.5134 98.6821 44.5715 110.98 44.5715C123.278 44.5715 133.248 54.5134 133.248 66.7773C133.248 79.0411 123.278 88.983 110.98 88.983ZM-4.31682 66.7773C-4.31682 79.0411 5.6528 88.983 17.951 88.983C30.2491 88.983 40.2187 79.0411 40.2187 66.7773C40.2187 54.5134 30.2491 44.5715 17.951 44.5715C5.6528 44.5715 -4.31682 54.5134 -4.31682 66.7773ZM64.4685 88.983C52.1704 88.983 42.2008 79.0411 42.2008 66.7773C42.2008 54.5134 52.1704 44.5715 64.4685 44.5715C76.7667 44.5715 86.7363 54.5134 86.7363 66.7773C86.7363 79.0411 76.7667 88.983 64.4685 88.983ZM110.98 135.369C98.6821 135.369 88.7125 125.427 88.7125 113.163C88.7125 100.899 98.6821 90.9573 110.98 90.9573C123.278 90.9573 133.248 100.899 133.248 113.163C133.248 125.427 123.278 135.369 110.98 135.369ZM-4.31682 113.163C-4.31682 125.427 5.65279 135.369 17.951 135.369C30.2491 135.369 40.2187 125.427 40.2187 113.163C40.2187 100.899 30.2491 90.9573 17.951 90.9573C5.6528 90.9573 -4.31682 100.899 -4.31682 113.163ZM64.4685 135.369C52.1704 135.369 42.2008 125.427 42.2008 113.163C42.2008 100.899 52.1704 90.9573 64.4685 90.9573C76.7667 90.9573 86.7363 100.899 86.7363 113.163C86.7363 125.427 76.7667 135.369 64.4685 135.369ZM110.98 181.754C98.6821 181.754 88.7125 171.813 88.7125 159.549C88.7125 147.285 98.6821 137.343 110.98 137.343C123.278 137.343 133.248 147.285 133.248 159.549C133.248 171.813 123.278 181.754 110.98 181.754ZM-4.31681 159.549C-4.31681 171.813 5.65281 181.754 17.951 181.754C30.2491 181.754 40.2188 171.813 40.2188 159.549C40.2188 147.285 30.2491 137.343 17.951 137.343C5.65281 137.343 -4.31681 147.285 -4.31681 159.549ZM64.4685 181.754C52.1704 181.754 42.2008 171.813 42.2008 159.549C42.2008 147.285 52.1704 137.343 64.4685 137.343C76.7667 137.343 86.7363 147.285 86.7363 159.549C86.7363 171.813 76.7667 181.754 64.4685 181.754Z" fill="#E1FC31"/>
<path fill-rule="evenodd" clip-rule="evenodd" d="M90.3799 190.362L90.3799 189.183C83.2073 189.026 77.4414 183.179 77.4414 175.988C77.4414 168.798 83.2073 162.95 90.3799 162.793L90.3799 161.614C83.2073 161.456 77.4414 155.609 77.4414 148.418C77.4414 141.228 83.2073 135.381 90.3799 135.223L90.3799 134.043C83.2073 133.886 77.4414 128.038 77.4414 120.848C77.4414 113.658 83.2073 107.81 90.3799 107.653L90.3799 106.473C83.2073 106.315 77.4414 100.468 77.4414 93.2773C77.4414 86.0869 83.2073 80.2395 90.3799 80.0821L90.3799 78.9019C83.3051 78.7466 77.5989 73.0554 77.4446 66L76.2614 66C76.1051 73.1539 70.2407 78.9052 63.0293 78.9052C55.8179 78.9052 49.9535 73.1539 49.7971 66L48.614 66C48.4576 73.1539 42.5932 78.9052 35.3818 78.9052C28.1704 78.9052 22.3061 73.1539 22.1497 66L20.9665 66C20.8101 73.1539 14.9458 78.9052 7.73437 78.9052C0.522956 78.9052 -5.3414 73.1539 -5.49778 66L-6.68094 66C-6.83731 73.1539 -12.7017 78.9052 -19.9131 78.9052C-27.1245 78.9052 -32.9889 73.1539 -33.1452 66L-34.3284 66C-34.4733 72.6303 -39.5212 78.0558 -46.0004 78.8145L-45.5347 80.2325C-39.1866 81.2048 -34.3252 86.6749 -34.3252 93.2773C-34.3252 96.9157 -35.8015 100.21 -38.1894 102.598L-32.9492 118.553C-31.8601 112.358 -26.438 107.649 -19.9131 107.649C-12.6034 107.649 -6.67774 113.559 -6.67774 120.848C-6.67774 128.137 -12.6034 134.046 -19.9131 134.046C-23.4632 134.046 -26.6869 132.652 -29.0638 130.384L-26.8359 137.167C-24.8218 135.932 -22.4509 135.22 -19.9131 135.22C-12.6034 135.22 -6.67774 141.129 -6.67774 148.418C-6.67774 155.341 -12.022 161.019 -18.8206 161.573L-18.3925 162.876C-11.799 163.628 -6.67773 169.212 -6.67773 175.988C-6.67773 179.81 -8.30629 183.252 -10.909 185.662L-5.44237 202.307C-4.81075 195.604 0.847544 190.359 7.73437 190.359C15.0441 190.359 20.9697 196.268 20.9697 203.557C20.9697 205.035 20.7263 206.456 20.2772 207.782L22.8197 207.725C22.383 206.415 22.1465 205.014 22.1465 203.557C22.1465 196.268 28.0721 190.359 35.3818 190.359C42.6915 190.359 48.6172 196.268 48.6172 203.557C48.6172 204.804 48.444 206.01 48.1202 207.153L50.2772 207.104C49.9623 205.975 49.7939 204.786 49.7939 203.557C49.7939 196.268 55.7196 190.359 63.0293 190.359C70.339 190.359 76.2646 196.268 76.2646 203.557C76.2646 204.577 76.1486 205.57 75.929 206.524L77.7675 206.482C77.5541 205.541 77.4414 204.563 77.4414 203.557C77.4414 196.367 83.2073 190.52 90.3799 190.362ZM63.0293 106.476C55.7196 106.476 49.7939 100.567 49.7939 93.2773C49.7939 85.988 55.7196 80.0789 63.0293 80.0789C70.339 80.0789 76.2646 85.988 76.2646 93.2773C76.2646 100.567 70.339 106.476 63.0293 106.476ZM-5.50099 93.2773C-5.50099 100.567 0.424681 106.476 7.73437 106.476C15.0441 106.476 20.9697 100.567 20.9697 93.2773C20.9697 85.988 15.0441 80.0789 7.73437 80.0789C0.424682 80.0789 -5.50099 85.988 -5.50099 93.2773ZM35.3818 106.476C28.0721 106.476 22.1465 100.567 22.1465 93.2773C22.1465 85.988 28.0721 80.0789 35.3818 80.0789C42.6915 80.0789 48.6172 85.988 48.6172 93.2773C48.6172 100.567 42.6915 106.476 35.3818 106.476ZM-33.1484 93.2773C-33.1484 100.567 -27.2228 106.476 -19.9131 106.476C-12.6034 106.476 -6.67774 100.567 -6.67774 93.2773C-6.67774 85.988 -12.6034 80.0789 -19.9131 80.0789C-27.2228 80.0789 -33.1484 85.988 -33.1484 93.2773ZM63.0293 134.046C55.7196 134.046 49.7939 128.137 49.7939 120.848C49.7939 113.559 55.7196 107.649 63.0293 107.649C70.339 107.649 76.2646 113.559 76.2646 120.848C76.2646 128.137 70.339 134.046 63.0293 134.046ZM-5.50099 120.848C-5.50099 128.137 0.42468 134.046 7.73436 134.046C15.044 134.046 20.9697 128.137 20.9697 120.848C20.9697 113.559 15.0441 107.649 7.73437 107.649C0.424681 107.649 -5.50099 113.559 -5.50099 120.848ZM35.3818 134.046C28.0721 134.046 22.1465 128.137 22.1465 120.848C22.1465 113.559 28.0721 107.649 35.3818 107.649C42.6915 107.649 48.6172 113.559 48.6172 120.848C48.6172 128.137 42.6915 134.046 35.3818 134.046ZM63.0293 161.616C55.7196 161.616 49.7939 155.707 49.7939 148.418C49.7939 141.128 55.7196 135.219 63.0293 135.219C70.339 135.219 76.2646 141.128 76.2646 148.418C76.2646 155.707 70.339 161.616 63.0293 161.616ZM-5.50099 148.418C-5.50099 155.707 0.424678 161.616 7.73436 161.616C15.044 161.616 20.9697 155.707 20.9697 148.418C20.9697 141.128 15.044 135.219 7.73436 135.219C0.42468 135.219 -5.50099 141.128 -5.50099 148.418ZM35.3818 161.616C28.0721 161.616 22.1465 155.707 22.1465 148.418C22.1465 141.128 28.0721 135.219 35.3818 135.219C42.6915 135.219 48.6172 141.128 48.6172 148.418C48.6172 155.707 42.6915 161.616 35.3818 161.616ZM63.0293 189.187C55.7196 189.187 49.7939 183.278 49.7939 175.988C49.7939 168.699 55.7196 162.79 63.0293 162.79C70.339 162.79 76.2646 168.699 76.2646 175.988C76.2646 183.278 70.339 189.187 63.0293 189.187ZM-5.50098 175.988C-5.50098 183.278 0.424685 189.187 7.73437 189.187C15.0441 189.187 20.9697 183.278 20.9697 175.988C20.9697 168.699 15.0441 162.79 7.73437 162.79C0.424686 162.79 -5.50098 168.699 -5.50098 175.988ZM35.3818 189.187C28.0721 189.187 22.1465 183.278 22.1465 175.988C22.1465 168.699 28.0721 162.79 35.3818 162.79C42.6915 162.79 48.6172 168.699 48.6172 175.988C48.6172 183.278 42.6915 189.187 35.3818 189.187Z" fill="#F6E3DD"/>
</g>
</svg>
