<svg width="181" height="204" viewBox="0 0 181 204" fill="none" xmlns="http://www.w3.org/2000/svg">
<mask id="mask0" mask-type="alpha" maskUnits="userSpaceOnUse" x="0" y="0" width="181" height="204">
<path fill-rule="evenodd" clip-rule="evenodd" d="M180.007 0L37.8076 50.8197V79.0127L0 92.5245V204L142.2 153.18V124.987L180.007 111.475V0Z" fill="#ADD5E5"/>
</mask>
<g mask="url(#mask0)">
<path fill-rule="evenodd" clip-rule="evenodd" d="M180.007 0L37.8076 50.8197V79.0127L0 92.5245V204L142.2 153.18V124.987L180.007 111.475V0Z" fill="#0C422A"/>
<path fill-rule="evenodd" clip-rule="evenodd" d="M157.002 183.733L157.002 181.749C144.933 181.486 135.23 171.647 135.23 159.549C135.23 147.45 144.933 137.611 157.002 137.348L157.002 135.363C144.933 135.1 135.23 125.262 135.23 113.163C135.23 101.064 144.933 91.2256 157.002 90.9627L157.002 88.9776C144.933 88.7146 135.23 78.8759 135.23 66.7773C135.23 54.6786 144.933 44.8399 157.002 44.5769L157.002 42.5926C144.933 42.3296 135.23 32.4909 135.23 20.3922C135.23 8.29362 144.933 -1.54511 157.002 -1.80808L157.002 -3.79301C145.097 -4.05236 135.495 -13.6283 135.235 -25.5L133.243 -25.5C132.979 -13.464 123.113 -3.78778 110.98 -3.78778C98.8475 -3.78778 88.981 -13.464 88.7179 -25.5L86.7309 -25.5C86.4678 -13.464 76.6013 -3.78778 64.4685 -3.78778C52.3358 -3.78778 42.4693 -13.464 42.2062 -25.5L40.2134 -25.5C39.9502 -13.464 30.0837 -3.78778 17.951 -3.78778C5.81819 -3.78778 -4.04826 -13.464 -4.31143 -25.5L-6.30421 -25.5C-6.56738 -13.464 -16.4339 -3.78778 -28.5666 -3.78778C-40.6994 -3.78778 -50.5658 -13.464 -50.829 -25.5L-52.813 -25.5C-53.0569 -14.345 -61.5498 -5.21687 -72.4507 -3.94042L-71.6672 -1.55502C-60.9869 0.080801 -52.8076 9.284 -52.8076 20.3922C-52.8076 26.5137 -55.2915 32.0567 -59.3091 36.0735L-50.497 62.9049C-48.6598 52.4871 -39.5402 44.5715 -28.5666 44.5715C-16.2685 44.5715 -6.29883 54.5134 -6.29883 66.7773C-6.29883 79.0411 -16.2685 88.983 -28.5666 88.983C-34.5352 88.983 -39.9552 86.6413 -43.9534 82.829L-40.2089 94.2304C-36.8214 92.1544 -32.8342 90.9573 -28.5666 90.9573C-16.2685 90.9573 -6.29883 100.899 -6.29883 113.163C-6.29883 124.808 -15.2872 134.359 -26.7227 135.294L-26.0018 137.489C-14.9117 138.757 -6.29882 148.15 -6.29882 159.549C-6.29882 165.976 -9.03678 171.765 -13.413 175.82L-4.21719 203.819C-3.1495 192.547 6.36793 183.728 17.951 183.728C30.2491 183.728 40.2188 193.67 40.2188 205.934C40.2188 208.419 39.8092 210.81 39.0538 213.041L43.3332 212.944C42.5985 210.741 42.2008 208.383 42.2008 205.934C42.2008 193.67 52.1704 183.728 64.4685 183.728C76.7667 183.728 86.7363 193.67 86.7363 205.934C86.7363 208.03 86.445 210.059 85.9004 211.982L89.5253 211.9C88.9956 210.001 88.7125 208.001 88.7125 205.934C88.7125 193.67 98.6821 183.728 110.98 183.728C123.278 183.728 133.248 193.67 133.248 205.934C133.248 207.65 133.053 209.32 132.684 210.924L135.779 210.854C135.42 209.271 135.23 207.625 135.23 205.934C135.23 193.835 144.933 183.996 157.002 183.733ZM110.98 42.598C98.6821 42.598 88.7125 32.6561 88.7125 20.3922C88.7125 8.12836 98.6821 -1.81348 110.98 -1.81348C123.278 -1.81348 133.248 8.12836 133.248 20.3922C133.248 32.6561 123.278 42.598 110.98 42.598ZM-4.31682 20.3922C-4.31682 32.6561 5.6528 42.598 17.951 42.598C30.2491 42.598 40.2187 32.6561 40.2187 20.3922C40.2187 8.12836 30.2491 -1.81348 17.951 -1.81348C5.6528 -1.81348 -4.31682 8.12836 -4.31682 20.3922ZM64.4685 42.598C52.1704 42.598 42.2008 32.6561 42.2008 20.3922C42.2008 8.12836 52.1704 -1.81348 64.4685 -1.81348C76.7667 -1.81348 86.7363 8.12836 86.7363 20.3922C86.7363 32.6561 76.7667 42.598 64.4685 42.598ZM-50.8344 20.3922C-50.8344 32.6561 -40.8648 42.598 -28.5666 42.598C-16.2685 42.598 -6.29883 32.6561 -6.29883 20.3922C-6.29883 8.12836 -16.2685 -1.81348 -28.5666 -1.81348C-40.8648 -1.81348 -50.8344 8.12836 -50.8344 20.3922ZM110.98 88.983C98.6821 88.983 88.7125 79.0411 88.7125 66.7772C88.7125 54.5134 98.6821 44.5715 110.98 44.5715C123.278 44.5715 133.248 54.5134 133.248 66.7773C133.248 79.0411 123.278 88.983 110.98 88.983ZM-4.31682 66.7773C-4.31682 79.0411 5.6528 88.983 17.951 88.983C30.2491 88.983 40.2187 79.0411 40.2187 66.7773C40.2187 54.5134 30.2491 44.5715 17.951 44.5715C5.6528 44.5715 -4.31682 54.5134 -4.31682 66.7773ZM64.4685 88.983C52.1704 88.983 42.2008 79.0411 42.2008 66.7773C42.2008 54.5134 52.1704 44.5715 64.4685 44.5715C76.7667 44.5715 86.7363 54.5134 86.7363 66.7773C86.7363 79.0411 76.7667 88.983 64.4685 88.983ZM110.98 135.369C98.6821 135.369 88.7125 125.427 88.7125 113.163C88.7125 100.899 98.6821 90.9573 110.98 90.9573C123.278 90.9573 133.248 100.899 133.248 113.163C133.248 125.427 123.278 135.369 110.98 135.369ZM-4.31682 113.163C-4.31682 125.427 5.65279 135.369 17.951 135.369C30.2491 135.369 40.2187 125.427 40.2187 113.163C40.2187 100.899 30.2491 90.9573 17.951 90.9573C5.6528 90.9573 -4.31682 100.899 -4.31682 113.163ZM64.4685 135.369C52.1704 135.369 42.2008 125.427 42.2008 113.163C42.2008 100.899 52.1704 90.9573 64.4685 90.9573C76.7667 90.9573 86.7363 100.899 86.7363 113.163C86.7363 125.427 76.7667 135.369 64.4685 135.369ZM110.98 181.754C98.6821 181.754 88.7125 171.813 88.7125 159.549C88.7125 147.285 98.6821 137.343 110.98 137.343C123.278 137.343 133.248 147.285 133.248 159.549C133.248 171.813 123.278 181.754 110.98 181.754ZM-4.31681 159.549C-4.31681 171.813 5.65281 181.754 17.951 181.754C30.2491 181.754 40.2188 171.813 40.2188 159.549C40.2188 147.285 30.2491 137.343 17.951 137.343C5.65281 137.343 -4.31681 147.285 -4.31681 159.549ZM64.4685 181.754C52.1704 181.754 42.2008 171.813 42.2008 159.549C42.2008 147.285 52.1704 137.343 64.4685 137.343C76.7667 137.343 86.7363 147.285 86.7363 159.549C86.7363 171.813 76.7667 181.754 64.4685 181.754Z" fill="#FF8743"/>
<path fill-rule="evenodd" clip-rule="evenodd" d="M65.4201 72.3799L66.5988 72.3799C66.7562 65.2073 72.6036 59.4414 79.794 59.4414C86.9843 59.4414 92.8318 65.2073 92.9892 72.3799L94.1686 72.3799C94.326 65.2073 100.173 59.4414 107.364 59.4414C114.554 59.4414 120.402 65.2073 120.559 72.3799L121.739 72.3799C121.897 65.2073 127.744 59.4414 134.934 59.4414C142.125 59.4414 147.972 65.2073 148.13 72.3799L149.31 72.3799C149.467 65.2073 155.315 59.4414 162.505 59.4414C169.695 59.4414 175.543 65.2073 175.7 72.3799L176.88 72.3799C177.036 65.3051 182.727 59.5989 189.782 59.4446L189.782 58.2614C182.628 58.1051 176.877 52.2407 176.877 45.0293C176.877 37.8179 182.628 31.9535 189.782 31.7971L189.782 30.614C182.628 30.4576 176.877 24.5932 176.877 17.3818C176.877 10.1704 182.628 4.30606 189.782 4.14968L189.782 2.96652C182.628 2.81014 176.877 -3.05422 176.877 -10.2656C176.877 -17.477 182.628 -23.3414 189.782 -23.4978L189.782 -24.6809C182.628 -24.8373 176.877 -30.7017 176.877 -37.9131C176.877 -45.1245 182.628 -50.9889 189.782 -51.1452L189.782 -52.3284C183.152 -52.4733 177.726 -57.5212 176.968 -64.0004L175.55 -63.5347C174.577 -57.1866 169.107 -52.3252 162.505 -52.3252C158.867 -52.3252 155.572 -53.8015 153.185 -56.1894L137.229 -50.9492C143.424 -49.8601 148.133 -44.438 148.133 -37.9131C148.133 -30.6034 142.224 -24.6777 134.934 -24.6777C127.645 -24.6777 121.736 -30.6034 121.736 -37.9131C121.736 -41.4632 123.13 -44.6869 125.399 -47.0638L118.615 -44.8359C119.85 -42.8218 120.562 -40.4509 120.562 -37.9131C120.562 -30.6034 114.653 -24.6777 107.364 -24.6777C100.441 -24.6777 94.7636 -30.022 94.2096 -36.8206L92.9063 -36.3925C92.1542 -29.799 86.5705 -24.6777 79.794 -24.6777C75.9726 -24.6777 72.5305 -26.3063 70.1203 -28.909L53.4752 -23.4424C60.1781 -22.8108 65.4233 -17.1525 65.4233 -10.2656C65.4233 -2.95595 59.5142 2.96972 52.2249 2.96972C50.7474 2.96972 49.3265 2.72626 48.0001 2.27716L48.0576 4.81972C49.3676 4.38296 50.7687 4.14647 52.2249 4.14647C59.5142 4.14647 65.4233 10.0721 65.4233 17.3818C65.4233 24.6915 59.5142 30.6172 52.2249 30.6172C50.9786 30.6172 49.7726 30.444 48.6297 30.1202L48.6785 32.2772C49.8069 31.9623 50.9963 31.7939 52.2249 31.7939C59.5142 31.7939 65.4233 37.7196 65.4233 45.0293C65.4233 52.339 59.5142 58.2646 52.2249 58.2646C51.2049 58.2646 50.212 58.1486 49.2584 57.929L49.3 59.7675C50.2408 59.5541 51.2197 59.4414 52.2249 59.4414C59.4153 59.4414 65.2627 65.2073 65.4201 72.3799ZM149.306 45.0293C149.306 37.7196 155.216 31.7939 162.505 31.7939C169.794 31.7939 175.703 37.7196 175.703 45.0293C175.703 52.339 169.794 58.2646 162.505 58.2646C155.216 58.2646 149.306 52.339 149.306 45.0293ZM162.505 -23.501C155.216 -23.501 149.306 -17.5753 149.306 -10.2656C149.306 -2.95595 155.216 2.96972 162.505 2.96972C169.794 2.96972 175.703 -2.95595 175.703 -10.2656C175.703 -17.5753 169.794 -23.501 162.505 -23.501ZM149.306 17.3818C149.306 10.0721 155.216 4.14647 162.505 4.14647C169.794 4.14647 175.703 10.0721 175.703 17.3818C175.703 24.6915 169.794 30.6172 162.505 30.6172C155.216 30.6172 149.306 24.6915 149.306 17.3818ZM162.505 -51.1484C155.216 -51.1484 149.306 -45.2228 149.306 -37.9131C149.306 -30.6034 155.216 -24.6777 162.505 -24.6777C169.794 -24.6777 175.703 -30.6034 175.703 -37.9131C175.703 -45.2228 169.794 -51.1484 162.505 -51.1484ZM121.736 45.0293C121.736 37.7196 127.645 31.7939 134.934 31.7939C142.224 31.7939 148.133 37.7196 148.133 45.0293C148.133 52.339 142.224 58.2646 134.934 58.2646C127.645 58.2646 121.736 52.339 121.736 45.0293ZM134.934 -23.501C127.645 -23.501 121.736 -17.5753 121.736 -10.2656C121.736 -2.95595 127.645 2.96972 134.934 2.96972C142.224 2.96972 148.133 -2.95595 148.133 -10.2656C148.133 -17.5753 142.224 -23.501 134.934 -23.501ZM121.736 17.3818C121.736 10.0721 127.645 4.14647 134.934 4.14647C142.224 4.14647 148.133 10.0721 148.133 17.3818C148.133 24.6915 142.224 30.6172 134.934 30.6172C127.645 30.6172 121.736 24.6915 121.736 17.3818ZM94.1661 45.0293C94.1661 37.7196 100.075 31.7939 107.365 31.7939C114.654 31.7939 120.563 37.7196 120.563 45.0293C120.563 52.339 114.654 58.2646 107.365 58.2646C100.075 58.2646 94.1661 52.339 94.1661 45.0293ZM107.365 -23.501C100.075 -23.501 94.1661 -17.5753 94.1661 -10.2656C94.1661 -2.95596 100.075 2.96972 107.365 2.96972C114.654 2.96972 120.563 -2.95595 120.563 -10.2656C120.563 -17.5753 114.654 -23.501 107.365 -23.501ZM94.1661 17.3818C94.1661 10.0721 100.075 4.14647 107.365 4.14647C114.654 4.14647 120.563 10.0721 120.563 17.3818C120.563 24.6915 114.654 30.6172 107.365 30.6172C100.075 30.6172 94.1661 24.6915 94.1661 17.3818ZM66.5955 45.0293C66.5955 37.7196 72.5047 31.7939 79.794 31.7939C87.0833 31.7939 92.9924 37.7196 92.9924 45.0293C92.9924 52.339 87.0833 58.2646 79.794 58.2646C72.5047 58.2646 66.5955 52.339 66.5955 45.0293ZM79.794 -23.501C72.5047 -23.501 66.5955 -17.5753 66.5955 -10.2656C66.5955 -2.95595 72.5047 2.96972 79.794 2.96972C87.0833 2.96973 92.9924 -2.95595 92.9924 -10.2656C92.9924 -17.5753 87.0833 -23.501 79.794 -23.501ZM66.5955 17.3818C66.5955 10.0721 72.5047 4.14647 79.794 4.14647C87.0833 4.14647 92.9924 10.0721 92.9924 17.3818C92.9924 24.6915 87.0833 30.6172 79.794 30.6172C72.5047 30.6172 66.5955 24.6915 66.5955 17.3818Z" fill="#F6E3DD"/>
<path fill-rule="evenodd" clip-rule="evenodd" d="M-92.5799 222.38L-91.4012 222.38C-91.2438 215.207 -85.3964 209.441 -78.206 209.441C-71.0157 209.441 -65.1682 215.207 -65.0108 222.38L-63.8314 222.38C-63.674 215.207 -57.8266 209.441 -50.6362 209.441C-43.4458 209.441 -37.5984 215.207 -37.441 222.38L-36.2609 222.38C-36.1034 215.207 -30.256 209.441 -23.0656 209.441C-15.8753 209.441 -10.0279 215.207 -9.87044 222.38L-8.69031 222.38C-8.53289 215.207 -2.68547 209.441 4.5049 209.441C11.6953 209.441 17.5427 215.207 17.7001 222.38L18.8803 222.38C19.0356 215.305 24.7268 209.599 31.7822 209.445L31.7822 208.261C24.6283 208.105 18.877 202.241 18.877 195.029C18.877 187.818 24.6283 181.954 31.7822 181.797L31.7822 180.614C24.6283 180.458 18.877 174.593 18.877 167.382C18.877 160.17 24.6283 154.306 31.7822 154.15L31.7822 152.967C24.6283 152.81 18.877 146.946 18.877 139.734C18.877 132.523 24.6283 126.659 31.7822 126.502L31.7822 125.319C24.6283 125.163 18.877 119.298 18.877 112.087C18.877 104.875 24.6283 99.0111 31.7822 98.8548L31.7822 97.6716C25.152 97.5267 19.7265 92.4788 18.9677 85.9996L17.5497 86.4653C16.5774 92.8134 11.1073 97.6748 4.50491 97.6748C0.866523 97.6748 -2.42801 96.1985 -4.81548 93.8106L-20.7711 99.0508C-14.5756 100.14 -9.86718 105.562 -9.86718 112.087C-9.86718 119.397 -15.7763 125.322 -23.0656 125.322C-30.355 125.322 -36.2641 119.397 -36.2641 112.087C-36.2641 108.537 -34.8703 105.313 -32.6014 102.936L-39.385 105.164C-38.15 107.178 -37.4377 109.549 -37.4377 112.087C-37.4377 119.397 -43.3469 125.322 -50.6362 125.322C-57.5587 125.322 -63.2364 119.978 -63.7904 113.179L-65.0937 113.607C-65.8458 120.201 -71.4295 125.322 -78.206 125.322C-82.0274 125.322 -85.4695 123.694 -87.8797 121.091L-104.525 126.558C-97.8219 127.189 -92.5767 132.848 -92.5767 139.734C-92.5767 147.044 -98.4858 152.97 -105.775 152.97C-107.253 152.97 -108.673 152.726 -110 152.277L-109.942 154.82C-108.632 154.383 -107.231 154.146 -105.775 154.146C-98.4858 154.146 -92.5767 160.072 -92.5767 167.382C-92.5767 174.692 -98.4858 180.617 -105.775 180.617C-107.021 180.617 -108.227 180.444 -109.37 180.12L-109.322 182.277C-108.193 181.962 -107.004 181.794 -105.775 181.794C-98.4858 181.794 -92.5767 187.72 -92.5767 195.029C-92.5767 202.339 -98.4858 208.265 -105.775 208.265C-106.795 208.265 -107.788 208.149 -108.742 207.929L-108.7 209.768C-107.759 209.554 -106.78 209.441 -105.775 209.441C-98.5847 209.441 -92.7373 215.207 -92.5799 222.38ZM-8.69356 195.029C-8.69356 187.72 -2.78441 181.794 4.50491 181.794C11.7942 181.794 17.7034 187.72 17.7034 195.029C17.7034 202.339 11.7942 208.265 4.5049 208.265C-2.78441 208.265 -8.69356 202.339 -8.69356 195.029ZM4.50491 126.499C-2.7844 126.499 -8.69356 132.425 -8.69356 139.734C-8.69356 147.044 -2.78441 152.97 4.50491 152.97C11.7942 152.97 17.7034 147.044 17.7034 139.734C17.7034 132.425 11.7942 126.499 4.50491 126.499ZM-8.69356 167.382C-8.69356 160.072 -2.7844 154.146 4.50491 154.146C11.7942 154.146 17.7034 160.072 17.7034 167.382C17.7034 174.692 11.7942 180.617 4.50491 180.617C-2.7844 180.617 -8.69356 174.692 -8.69356 167.382ZM4.50491 98.8516C-2.7844 98.8516 -8.69356 104.777 -8.69356 112.087C-8.69356 119.397 -2.7844 125.322 4.50491 125.322C11.7942 125.322 17.7034 119.397 17.7034 112.087C17.7034 104.777 11.7942 98.8516 4.50491 98.8516ZM-36.2641 195.029C-36.2641 187.72 -30.355 181.794 -23.0656 181.794C-15.7763 181.794 -9.86718 187.72 -9.86718 195.029C-9.86718 202.339 -15.7763 208.265 -23.0656 208.265C-30.355 208.265 -36.2641 202.339 -36.2641 195.029ZM-23.0656 126.499C-30.355 126.499 -36.2641 132.425 -36.2641 139.734C-36.2641 147.044 -30.355 152.97 -23.0656 152.97C-15.7763 152.97 -9.86718 147.044 -9.86718 139.734C-9.86718 132.425 -15.7763 126.499 -23.0656 126.499ZM-36.2641 167.382C-36.2641 160.072 -30.355 154.146 -23.0656 154.146C-15.7763 154.146 -9.86718 160.072 -9.86718 167.382C-9.86718 174.692 -15.7763 180.617 -23.0657 180.617C-30.355 180.617 -36.2641 174.692 -36.2641 167.382ZM-63.8339 195.029C-63.8339 187.72 -57.9248 181.794 -50.6355 181.794C-43.3462 181.794 -37.437 187.72 -37.437 195.029C-37.437 202.339 -43.3462 208.265 -50.6355 208.265C-57.9248 208.265 -63.8339 202.339 -63.8339 195.029ZM-50.6355 126.499C-57.9248 126.499 -63.8339 132.425 -63.8339 139.734C-63.8339 147.044 -57.9248 152.97 -50.6355 152.97C-43.3462 152.97 -37.437 147.044 -37.437 139.734C-37.437 132.425 -43.3462 126.499 -50.6355 126.499ZM-63.8339 167.382C-63.8339 160.072 -57.9248 154.146 -50.6355 154.146C-43.3462 154.146 -37.437 160.072 -37.437 167.382C-37.437 174.692 -43.3462 180.617 -50.6355 180.617C-57.9248 180.617 -63.8339 174.692 -63.8339 167.382ZM-91.4045 195.029C-91.4045 187.72 -85.4953 181.794 -78.206 181.794C-70.9167 181.794 -65.0076 187.72 -65.0076 195.029C-65.0076 202.339 -70.9167 208.265 -78.206 208.265C-85.4953 208.265 -91.4045 202.339 -91.4045 195.029ZM-78.206 126.499C-85.4953 126.499 -91.4045 132.425 -91.4045 139.734C-91.4045 147.044 -85.4953 152.97 -78.206 152.97C-70.9167 152.97 -65.0076 147.044 -65.0076 139.734C-65.0076 132.425 -70.9167 126.499 -78.206 126.499ZM-91.4045 167.382C-91.4045 160.072 -85.4953 154.146 -78.206 154.146C-70.9167 154.146 -65.0076 160.072 -65.0076 167.382C-65.0076 174.692 -70.9167 180.617 -78.206 180.617C-85.4953 180.617 -91.4045 174.692 -91.4045 167.382Z" fill="#19D992"/>
</g>
</svg>
