<svg width="181" height="204" viewBox="0 0 181 204" fill="none" xmlns="http://www.w3.org/2000/svg">
<mask id="mask0" mask-type="alpha" maskUnits="userSpaceOnUse" x="0" y="0" width="181" height="204">
<path fill-rule="evenodd" clip-rule="evenodd" d="M180.007 0L37.8076 50.8197V79.0127L0 92.5245V204L142.2 153.18V124.987L180.007 111.475V0Z" fill="#ADD5E5"/>
</mask>
<g mask="url(#mask0)">
<path fill-rule="evenodd" clip-rule="evenodd" d="M180.007 0L37.8076 50.8197V79.0127L0 92.5245V204L142.2 153.18V124.987L180.007 111.475V0Z" fill="#F6E3DD"/>
<path fill-rule="evenodd" clip-rule="evenodd" d="M157.002 183.733L157.002 181.749C144.933 181.486 135.23 171.647 135.23 159.549C135.23 147.45 144.933 137.611 157.002 137.348L157.002 135.363C144.933 135.1 135.23 125.262 135.23 113.163C135.23 101.064 144.933 91.2256 157.002 90.9627L157.002 88.9776C144.933 88.7146 135.23 78.8759 135.23 66.7773C135.23 54.6786 144.933 44.8399 157.002 44.5769L157.002 42.5926C144.933 42.3296 135.23 32.4909 135.23 20.3922C135.23 8.29362 144.933 -1.54511 157.002 -1.80808L157.002 -3.79301C145.097 -4.05236 135.495 -13.6283 135.235 -25.5L133.243 -25.5C132.979 -13.464 123.113 -3.78778 110.98 -3.78778C98.8475 -3.78778 88.981 -13.464 88.7179 -25.5L86.7309 -25.5C86.4678 -13.464 76.6013 -3.78778 64.4685 -3.78778C52.3358 -3.78778 42.4693 -13.464 42.2062 -25.5L40.2134 -25.5C39.9502 -13.464 30.0837 -3.78778 17.951 -3.78778C5.81819 -3.78778 -4.04826 -13.464 -4.31143 -25.5L-6.30421 -25.5C-6.56738 -13.464 -16.4339 -3.78778 -28.5666 -3.78778C-40.6994 -3.78778 -50.5658 -13.464 -50.829 -25.5L-52.813 -25.5C-53.0569 -14.345 -61.5498 -5.21687 -72.4507 -3.94042L-71.6672 -1.55502C-60.9869 0.080801 -52.8076 9.284 -52.8076 20.3922C-52.8076 26.5137 -55.2915 32.0567 -59.3091 36.0735L-50.497 62.9049C-48.6598 52.4871 -39.5402 44.5715 -28.5666 44.5715C-16.2685 44.5715 -6.29883 54.5134 -6.29883 66.7773C-6.29883 79.0411 -16.2685 88.983 -28.5666 88.983C-34.5352 88.983 -39.9552 86.6413 -43.9534 82.829L-40.2089 94.2304C-36.8214 92.1544 -32.8342 90.9573 -28.5666 90.9573C-16.2685 90.9573 -6.29883 100.899 -6.29883 113.163C-6.29883 124.808 -15.2872 134.359 -26.7227 135.294L-26.0018 137.489C-14.9117 138.757 -6.29882 148.15 -6.29882 159.549C-6.29882 165.976 -9.03678 171.765 -13.413 175.82L-4.21719 203.819C-3.1495 192.547 6.36793 183.728 17.951 183.728C30.2491 183.728 40.2188 193.67 40.2188 205.934C40.2188 208.419 39.8092 210.81 39.0538 213.041L43.3332 212.944C42.5985 210.741 42.2008 208.383 42.2008 205.934C42.2008 193.67 52.1704 183.728 64.4685 183.728C76.7667 183.728 86.7363 193.67 86.7363 205.934C86.7363 208.03 86.445 210.059 85.9004 211.982L89.5253 211.9C88.9956 210.001 88.7125 208.001 88.7125 205.934C88.7125 193.67 98.6821 183.728 110.98 183.728C123.278 183.728 133.248 193.67 133.248 205.934C133.248 207.65 133.053 209.32 132.684 210.924L135.779 210.854C135.42 209.271 135.23 207.625 135.23 205.934C135.23 193.835 144.933 183.996 157.002 183.733ZM110.98 42.598C98.6821 42.598 88.7125 32.6561 88.7125 20.3922C88.7125 8.12836 98.6821 -1.81348 110.98 -1.81348C123.278 -1.81348 133.248 8.12836 133.248 20.3922C133.248 32.6561 123.278 42.598 110.98 42.598ZM-4.31682 20.3922C-4.31682 32.6561 5.6528 42.598 17.951 42.598C30.2491 42.598 40.2187 32.6561 40.2187 20.3922C40.2187 8.12836 30.2491 -1.81348 17.951 -1.81348C5.6528 -1.81348 -4.31682 8.12836 -4.31682 20.3922ZM64.4685 42.598C52.1704 42.598 42.2008 32.6561 42.2008 20.3922C42.2008 8.12836 52.1704 -1.81348 64.4685 -1.81348C76.7667 -1.81348 86.7363 8.12836 86.7363 20.3922C86.7363 32.6561 76.7667 42.598 64.4685 42.598ZM-50.8344 20.3922C-50.8344 32.6561 -40.8648 42.598 -28.5666 42.598C-16.2685 42.598 -6.29883 32.6561 -6.29883 20.3922C-6.29883 8.12836 -16.2685 -1.81348 -28.5666 -1.81348C-40.8648 -1.81348 -50.8344 8.12836 -50.8344 20.3922ZM110.98 88.983C98.6821 88.983 88.7125 79.0411 88.7125 66.7772C88.7125 54.5134 98.6821 44.5715 110.98 44.5715C123.278 44.5715 133.248 54.5134 133.248 66.7773C133.248 79.0411 123.278 88.983 110.98 88.983ZM-4.31682 66.7773C-4.31682 79.0411 5.6528 88.983 17.951 88.983C30.2491 88.983 40.2187 79.0411 40.2187 66.7773C40.2187 54.5134 30.2491 44.5715 17.951 44.5715C5.6528 44.5715 -4.31682 54.5134 -4.31682 66.7773ZM64.4685 88.983C52.1704 88.983 42.2008 79.0411 42.2008 66.7773C42.2008 54.5134 52.1704 44.5715 64.4685 44.5715C76.7667 44.5715 86.7363 54.5134 86.7363 66.7773C86.7363 79.0411 76.7667 88.983 64.4685 88.983ZM110.98 135.369C98.6821 135.369 88.7125 125.427 88.7125 113.163C88.7125 100.899 98.6821 90.9573 110.98 90.9573C123.278 90.9573 133.248 100.899 133.248 113.163C133.248 125.427 123.278 135.369 110.98 135.369ZM-4.31682 113.163C-4.31682 125.427 5.65279 135.369 17.951 135.369C30.2491 135.369 40.2187 125.427 40.2187 113.163C40.2187 100.899 30.2491 90.9573 17.951 90.9573C5.6528 90.9573 -4.31682 100.899 -4.31682 113.163ZM64.4685 135.369C52.1704 135.369 42.2008 125.427 42.2008 113.163C42.2008 100.899 52.1704 90.9573 64.4685 90.9573C76.7667 90.9573 86.7363 100.899 86.7363 113.163C86.7363 125.427 76.7667 135.369 64.4685 135.369ZM110.98 181.754C98.6821 181.754 88.7125 171.813 88.7125 159.549C88.7125 147.285 98.6821 137.343 110.98 137.343C123.278 137.343 133.248 147.285 133.248 159.549C133.248 171.813 123.278 181.754 110.98 181.754ZM-4.31681 159.549C-4.31681 171.813 5.65281 181.754 17.951 181.754C30.2491 181.754 40.2188 171.813 40.2188 159.549C40.2188 147.285 30.2491 137.343 17.951 137.343C5.65281 137.343 -4.31681 147.285 -4.31681 159.549ZM64.4685 181.754C52.1704 181.754 42.2008 171.813 42.2008 159.549C42.2008 147.285 52.1704 137.343 64.4685 137.343C76.7667 137.343 86.7363 147.285 86.7363 159.549C86.7363 171.813 76.7667 181.754 64.4685 181.754Z" fill="#19D992"/>
<path fill-rule="evenodd" clip-rule="evenodd" d="M122.38 233.362L122.38 232.183C115.207 232.026 109.441 226.179 109.441 218.988C109.441 211.798 115.207 205.95 122.38 205.793L122.38 204.614C115.207 204.456 109.441 198.609 109.441 191.418C109.441 184.228 115.207 178.381 122.38 178.223L122.38 177.043C115.207 176.886 109.441 171.038 109.441 163.848C109.441 156.658 115.207 150.81 122.38 150.653L122.38 149.473C115.207 149.315 109.441 143.468 109.441 136.277C109.441 129.087 115.207 123.24 122.38 123.082L122.38 121.902C115.305 121.747 109.599 116.055 109.445 109L108.261 109C108.105 116.154 102.241 121.905 95.0293 121.905C87.8179 121.905 81.9535 116.154 81.7971 109L80.614 109C80.4576 116.154 74.5932 121.905 67.3818 121.905C60.1704 121.905 54.3061 116.154 54.1497 109L52.9665 109C52.8101 116.154 46.9458 121.905 39.7344 121.905C32.523 121.905 26.6586 116.154 26.5022 109L25.3191 109C25.1627 116.154 19.2983 121.905 12.0869 121.905C4.87549 121.905 -0.988869 116.154 -1.14524 109L-2.32839 109C-2.47332 115.63 -7.52123 121.056 -14.0004 121.814L-13.5347 123.232C-7.18663 124.205 -2.32519 129.675 -2.32519 136.277C-2.32519 139.916 -3.80151 143.21 -6.18938 145.598L-0.949152 161.553C0.139921 155.358 5.56203 150.649 12.0869 150.649C19.3966 150.649 25.3223 156.559 25.3223 163.848C25.3223 171.137 19.3966 177.046 12.0869 177.046C8.53678 177.046 5.31312 175.652 2.93621 173.384L5.1641 180.167C7.17817 178.932 9.54913 178.22 12.0869 178.22C19.3966 178.22 25.3223 184.129 25.3223 191.418C25.3223 198.341 19.978 204.019 13.1794 204.573L13.6075 205.876C20.201 206.628 25.3223 212.212 25.3223 218.988C25.3223 222.81 23.6937 226.252 21.091 228.662L26.5576 245.307C27.1892 238.604 32.8475 233.359 39.7344 233.359C47.0441 233.359 52.9697 239.268 52.9697 246.557C52.9697 248.035 52.7263 249.456 52.2772 250.782L54.8197 250.725C54.383 249.415 54.1465 248.014 54.1465 246.557C54.1465 239.268 60.0721 233.359 67.3818 233.359C74.6915 233.359 80.6172 239.268 80.6172 246.557C80.6172 247.804 80.444 249.01 80.1202 250.153L82.2772 250.104C81.9623 248.975 81.7939 247.786 81.7939 246.557C81.7939 239.268 87.7196 233.359 95.0293 233.359C102.339 233.359 108.265 239.268 108.265 246.557C108.265 247.577 108.149 248.57 107.929 249.524L109.768 249.482C109.554 248.541 109.441 247.563 109.441 246.557C109.441 239.367 115.207 233.52 122.38 233.362ZM95.0293 149.476C87.7196 149.476 81.7939 143.567 81.7939 136.277C81.7939 128.988 87.7196 123.079 95.0293 123.079C102.339 123.079 108.265 128.988 108.265 136.277C108.265 143.567 102.339 149.476 95.0293 149.476ZM26.499 136.277C26.499 143.567 32.4247 149.476 39.7344 149.476C47.0441 149.476 52.9697 143.567 52.9697 136.277C52.9697 128.988 47.0441 123.079 39.7344 123.079C32.4247 123.079 26.499 128.988 26.499 136.277ZM67.3818 149.476C60.0721 149.476 54.1465 143.567 54.1465 136.277C54.1465 128.988 60.0721 123.079 67.3818 123.079C74.6915 123.079 80.6172 128.988 80.6172 136.277C80.6172 143.567 74.6915 149.476 67.3818 149.476ZM-1.14845 136.277C-1.14845 143.567 4.77722 149.476 12.0869 149.476C19.3966 149.476 25.3223 143.567 25.3223 136.277C25.3223 128.988 19.3966 123.079 12.0869 123.079C4.77722 123.079 -1.14845 128.988 -1.14845 136.277ZM95.0293 177.046C87.7196 177.046 81.7939 171.137 81.7939 163.848C81.7939 156.559 87.7196 150.649 95.0293 150.649C102.339 150.649 108.265 156.559 108.265 163.848C108.265 171.137 102.339 177.046 95.0293 177.046ZM26.499 163.848C26.499 171.137 32.4247 177.046 39.7344 177.046C47.044 177.046 52.9697 171.137 52.9697 163.848C52.9697 156.559 47.0441 150.649 39.7344 150.649C32.4247 150.649 26.499 156.559 26.499 163.848ZM67.3818 177.046C60.0721 177.046 54.1465 171.137 54.1465 163.848C54.1465 156.559 60.0721 150.649 67.3818 150.649C74.6915 150.649 80.6172 156.559 80.6172 163.848C80.6172 171.137 74.6915 177.046 67.3818 177.046ZM95.0293 204.616C87.7196 204.616 81.7939 198.707 81.7939 191.418C81.7939 184.128 87.7196 178.219 95.0293 178.219C102.339 178.219 108.265 184.128 108.265 191.418C108.265 198.707 102.339 204.616 95.0293 204.616ZM26.499 191.418C26.499 198.707 32.4247 204.616 39.7344 204.616C47.044 204.616 52.9697 198.707 52.9697 191.418C52.9697 184.128 47.044 178.219 39.7344 178.219C32.4247 178.219 26.499 184.128 26.499 191.418ZM67.3818 204.616C60.0721 204.616 54.1465 198.707 54.1465 191.418C54.1465 184.128 60.0721 178.219 67.3818 178.219C74.6915 178.219 80.6172 184.128 80.6172 191.418C80.6172 198.707 74.6915 204.616 67.3818 204.616ZM95.0293 232.187C87.7196 232.187 81.7939 226.278 81.7939 218.988C81.7939 211.699 87.7196 205.79 95.0293 205.79C102.339 205.79 108.265 211.699 108.265 218.988C108.265 226.278 102.339 232.187 95.0293 232.187ZM26.499 218.988C26.499 226.278 32.4247 232.187 39.7344 232.187C47.0441 232.187 52.9697 226.278 52.9697 218.988C52.9697 211.699 47.0441 205.79 39.7344 205.79C32.4247 205.79 26.499 211.699 26.499 218.988ZM67.3818 232.187C60.0721 232.187 54.1465 226.278 54.1465 218.988C54.1465 211.699 60.0721 205.79 67.3818 205.79C74.6915 205.79 80.6172 211.699 80.6172 218.988C80.6172 226.278 74.6915 232.187 67.3818 232.187Z" fill="#0C422A"/>
</g>
</svg>
