<svg width="181" height="204" viewBox="0 0 181 204" fill="none" xmlns="http://www.w3.org/2000/svg">
<mask id="mask0" mask-type="alpha" maskUnits="userSpaceOnUse" x="0" y="0" width="181" height="204">
<path fill-rule="evenodd" clip-rule="evenodd" d="M180.007 0L37.8076 50.8197V79.0127L0 92.5245V204L142.2 153.18V124.987L180.007 111.475V0Z" fill="#ADD5E5"/>
</mask>
<g mask="url(#mask0)">
<path fill-rule="evenodd" clip-rule="evenodd" d="M180.007 0L37.8076 50.8197V79.0127L0 92.5245V204L142.2 153.18V124.987L180.007 111.475V0Z" fill="#6038D0"/>
<path fill-rule="evenodd" clip-rule="evenodd" d="M170.452 90.2334L170.452 88.2491C158.383 87.9861 148.68 78.1474 148.68 66.0487C148.68 53.9501 158.383 44.1114 170.452 43.8484L170.452 41.8633C158.383 41.6003 148.68 31.7616 148.68 19.663C148.68 7.56438 158.383 -2.27436 170.452 -2.53733L170.452 -4.52242C158.383 -4.78539 148.68 -14.6241 148.68 -26.7227C148.68 -38.8214 158.383 -48.6601 170.452 -48.9231L170.452 -50.9074C158.383 -51.1704 148.68 -61.0091 148.68 -73.1078C148.68 -85.2064 158.383 -95.0451 170.452 -95.3081L170.452 -97.293C158.547 -97.5524 148.945 -107.128 148.686 -119L146.693 -119C146.43 -106.964 136.563 -97.2878 124.43 -97.2878C112.298 -97.2878 102.431 -106.964 102.168 -119L100.181 -119C99.918 -106.964 90.0515 -97.2878 77.9187 -97.2878C65.786 -97.2878 55.9195 -106.964 55.6563 -119L53.6636 -119C53.4004 -106.964 43.5339 -97.2878 31.4012 -97.2878C19.2684 -97.2878 9.40193 -106.964 9.13876 -119L7.14598 -119C6.88281 -106.964 -2.98366 -97.2878 -15.1164 -97.2878C-27.2492 -97.2878 -37.1156 -106.964 -37.3788 -119L-39.3628 -119C-39.6067 -107.845 -48.0996 -98.7169 -59.0005 -97.4404L-58.217 -95.055C-47.5367 -93.4192 -39.3574 -84.216 -39.3574 -73.1078C-39.3574 -66.9863 -41.8413 -61.4433 -45.8589 -57.4265L-37.0468 -30.5951C-35.2096 -41.0129 -26.09 -48.9285 -15.1164 -48.9285C-2.81827 -48.9285 7.15136 -38.9866 7.15136 -26.7227C7.15136 -14.4589 -2.81827 -4.51703 -15.1164 -4.51703C-21.085 -4.51703 -26.505 -6.85868 -30.5032 -10.671L-26.7587 0.730369C-23.3712 -1.34556 -19.384 -2.54272 -15.1164 -2.54272C-2.81827 -2.54272 7.15136 7.39912 7.15136 19.663C7.15136 31.3077 -1.83703 40.8589 -13.2725 41.7937L-12.5516 43.9887C-1.46152 45.257 7.15137 54.6498 7.15137 66.0487C7.15137 72.4757 4.41341 78.2649 0.0372074 82.3197L9.23301 110.319C10.3007 99.0473 19.8181 90.228 31.4012 90.228C43.6993 90.228 53.669 100.17 53.669 112.434C53.669 114.919 53.2594 117.31 52.504 119.541L56.7834 119.444C56.0487 117.241 55.651 114.883 55.651 112.434C55.651 100.17 65.6206 90.228 77.9187 90.228C90.2169 90.228 100.187 100.17 100.187 112.434C100.187 114.53 99.8952 116.559 99.3506 118.482L102.976 118.4C102.446 116.501 102.163 114.501 102.163 112.434C102.163 100.17 112.132 90.228 124.43 90.228C136.729 90.228 146.698 100.17 146.698 112.434C146.698 114.15 146.503 115.82 146.134 117.424L149.229 117.354C148.87 115.771 148.68 114.125 148.68 112.434C148.68 100.335 158.383 90.4964 170.452 90.2334ZM124.43 -50.902C112.132 -50.902 102.163 -60.8439 102.163 -73.1078C102.163 -85.3716 112.132 -95.3135 124.43 -95.3135C136.729 -95.3135 146.698 -85.3716 146.698 -73.1078C146.698 -60.8439 136.729 -50.902 124.43 -50.902ZM9.13338 -73.1078C9.13337 -60.8439 19.103 -50.902 31.4012 -50.902C43.6993 -50.902 53.6689 -60.8439 53.6689 -73.1078C53.6689 -85.3716 43.6993 -95.3135 31.4012 -95.3135C19.103 -95.3135 9.13338 -85.3716 9.13338 -73.1078ZM77.9187 -50.902C65.6206 -50.902 55.651 -60.8439 55.651 -73.1078C55.651 -85.3716 65.6206 -95.3135 77.9187 -95.3135C90.2169 -95.3135 100.187 -85.3716 100.187 -73.1078C100.187 -60.8439 90.2169 -50.902 77.9187 -50.902ZM-37.3842 -73.1078C-37.3842 -60.8439 -27.4146 -50.902 -15.1164 -50.902C-2.81827 -50.902 7.15136 -60.8439 7.15137 -73.1078C7.15137 -85.3716 -2.81827 -95.3135 -15.1164 -95.3135C-27.4146 -95.3135 -37.3842 -85.3716 -37.3842 -73.1078ZM124.43 -4.51703C112.132 -4.51703 102.163 -14.4589 102.163 -26.7228C102.163 -38.9866 112.132 -48.9285 124.43 -48.9285C136.729 -48.9285 146.698 -38.9866 146.698 -26.7227C146.698 -14.4589 136.729 -4.51703 124.43 -4.51703ZM9.13337 -26.7227C9.13337 -14.4589 19.103 -4.51703 31.4011 -4.51703C43.6993 -4.51703 53.6689 -14.4589 53.6689 -26.7227C53.6689 -38.9866 43.6993 -48.9285 31.4012 -48.9285C19.103 -48.9285 9.13337 -38.9866 9.13337 -26.7227ZM77.9187 -4.51703C65.6206 -4.51703 55.651 -14.4589 55.651 -26.7227C55.651 -38.9866 65.6206 -48.9285 77.9187 -48.9285C90.2169 -48.9285 100.187 -38.9866 100.187 -26.7227C100.187 -14.4589 90.2169 -4.51702 77.9187 -4.51703ZM124.43 41.8687C112.132 41.8687 102.163 31.9269 102.163 19.663C102.163 7.39911 112.132 -2.54273 124.43 -2.54273C136.729 -2.54273 146.698 7.39911 146.698 19.663C146.698 31.9269 136.729 41.8687 124.43 41.8687ZM9.13337 19.663C9.13337 31.9269 19.103 41.8687 31.4011 41.8687C43.6993 41.8687 53.6689 31.9269 53.6689 19.663C53.6689 7.3991 43.6993 -2.54273 31.4011 -2.54273C19.103 -2.54273 9.13337 7.3991 9.13337 19.663ZM77.9187 41.8687C65.6206 41.8687 55.651 31.9269 55.651 19.663C55.651 7.3991 65.6206 -2.54273 77.9187 -2.54273C90.2169 -2.54273 100.187 7.39911 100.187 19.663C100.187 31.9269 90.2169 41.8687 77.9187 41.8687ZM124.43 88.2545C112.132 88.2545 102.163 78.3126 102.163 66.0487C102.163 53.7848 112.132 43.843 124.43 43.843C136.729 43.843 146.698 53.7849 146.698 66.0487C146.698 78.3126 136.729 88.2545 124.43 88.2545ZM9.13338 66.0487C9.13338 78.3126 19.103 88.2544 31.4012 88.2544C43.6993 88.2545 53.669 78.3126 53.669 66.0487C53.669 53.7848 43.6993 43.843 31.4012 43.843C19.103 43.843 9.13338 53.7848 9.13338 66.0487ZM77.9187 88.2545C65.6206 88.2545 55.651 78.3126 55.651 66.0487C55.651 53.7848 65.6206 43.843 77.9187 43.843C90.2169 43.843 100.187 53.7848 100.187 66.0487C100.187 78.3126 90.2169 88.2545 77.9187 88.2545Z" fill="#19D992"/>
<path fill-rule="evenodd" clip-rule="evenodd" d="M100.38 257.362L100.38 256.183C93.2073 256.026 87.4414 250.179 87.4414 242.988C87.4414 235.798 93.2073 229.95 100.38 229.793L100.38 228.614C93.2073 228.456 87.4414 222.609 87.4414 215.418C87.4414 208.228 93.2073 202.381 100.38 202.223L100.38 201.043C93.2073 200.886 87.4414 195.038 87.4414 187.848C87.4414 180.658 93.2073 174.81 100.38 174.653L100.38 173.473C93.2073 173.315 87.4414 167.468 87.4414 160.277C87.4414 153.087 93.2073 147.24 100.38 147.082L100.38 145.902C93.3051 145.747 87.5989 140.055 87.4446 133L86.2614 133C86.1051 140.154 80.2407 145.905 73.0293 145.905C65.8179 145.905 59.9535 140.154 59.7971 133L58.614 133C58.4576 140.154 52.5932 145.905 45.3818 145.905C38.1704 145.905 32.3061 140.154 32.1497 133L30.9665 133C30.8101 140.154 24.9458 145.905 17.7344 145.905C10.523 145.905 4.6586 140.154 4.50222 133L3.31906 133C3.16269 140.154 -2.70168 145.905 -9.91309 145.905C-17.1245 145.905 -22.9889 140.154 -23.1452 133L-24.3284 133C-24.4733 139.63 -29.5212 145.056 -36.0004 145.814L-35.5347 147.232C-29.1866 148.205 -24.3252 153.675 -24.3252 160.277C-24.3252 163.916 -25.8015 167.21 -28.1894 169.598L-22.9492 185.553C-21.8601 179.358 -16.438 174.649 -9.9131 174.649C-2.60341 174.649 3.32226 180.559 3.32226 187.848C3.32226 195.137 -2.60341 201.046 -9.9131 201.046C-13.4632 201.046 -16.6869 199.652 -19.0638 197.384L-16.8359 204.167C-14.8218 202.932 -12.4509 202.22 -9.9131 202.22C-2.60341 202.22 3.32226 208.129 3.32226 215.418C3.32226 222.341 -2.02198 228.019 -8.82057 228.573L-8.39251 229.876C-1.79899 230.628 3.32227 236.212 3.32227 242.988C3.32227 246.81 1.69371 250.252 -0.90904 252.662L4.55763 269.307C5.18925 262.604 10.8475 257.359 17.7344 257.359C25.0441 257.359 30.9697 263.268 30.9697 270.557C30.9697 272.035 30.7263 273.456 30.2772 274.782L32.8197 274.725C32.383 273.415 32.1465 272.014 32.1465 270.557C32.1465 263.268 38.0721 257.359 45.3818 257.359C52.6915 257.359 58.6172 263.268 58.6172 270.557C58.6172 271.804 58.444 273.01 58.1202 274.153L60.2772 274.104C59.9623 272.975 59.7939 271.786 59.7939 270.557C59.7939 263.268 65.7196 257.359 73.0293 257.359C80.339 257.359 86.2646 263.268 86.2646 270.557C86.2646 271.577 86.1486 272.57 85.929 273.524L87.7675 273.482C87.5541 272.541 87.4414 271.563 87.4414 270.557C87.4414 263.367 93.2073 257.52 100.38 257.362ZM73.0293 173.476C65.7196 173.476 59.7939 167.567 59.7939 160.277C59.7939 152.988 65.7196 147.079 73.0293 147.079C80.339 147.079 86.2646 152.988 86.2646 160.277C86.2646 167.567 80.339 173.476 73.0293 173.476ZM4.49901 160.277C4.49901 167.567 10.4247 173.476 17.7344 173.476C25.0441 173.476 30.9697 167.567 30.9697 160.277C30.9697 152.988 25.0441 147.079 17.7344 147.079C10.4247 147.079 4.49901 152.988 4.49901 160.277ZM45.3818 173.476C38.0721 173.476 32.1465 167.567 32.1465 160.277C32.1465 152.988 38.0721 147.079 45.3818 147.079C52.6915 147.079 58.6172 152.988 58.6172 160.277C58.6172 167.567 52.6915 173.476 45.3818 173.476ZM-23.1484 160.277C-23.1484 167.567 -17.2228 173.476 -9.9131 173.476C-2.60341 173.476 3.32226 167.567 3.32226 160.277C3.32226 152.988 -2.60341 147.079 -9.91309 147.079C-17.2228 147.079 -23.1484 152.988 -23.1484 160.277ZM73.0293 201.046C65.7196 201.046 59.7939 195.137 59.7939 187.848C59.7939 180.559 65.7196 174.649 73.0293 174.649C80.339 174.649 86.2646 180.559 86.2646 187.848C86.2646 195.137 80.339 201.046 73.0293 201.046ZM4.49901 187.848C4.49901 195.137 10.4247 201.046 17.7344 201.046C25.044 201.046 30.9697 195.137 30.9697 187.848C30.9697 180.559 25.0441 174.649 17.7344 174.649C10.4247 174.649 4.49901 180.559 4.49901 187.848ZM45.3818 201.046C38.0721 201.046 32.1465 195.137 32.1465 187.848C32.1465 180.559 38.0721 174.649 45.3818 174.649C52.6915 174.649 58.6172 180.559 58.6172 187.848C58.6172 195.137 52.6915 201.046 45.3818 201.046ZM73.0293 228.616C65.7196 228.616 59.7939 222.707 59.7939 215.418C59.7939 208.128 65.7196 202.219 73.0293 202.219C80.339 202.219 86.2646 208.128 86.2646 215.418C86.2646 222.707 80.339 228.616 73.0293 228.616ZM4.49901 215.418C4.49901 222.707 10.4247 228.616 17.7344 228.616C25.044 228.616 30.9697 222.707 30.9697 215.418C30.9697 208.128 25.044 202.219 17.7344 202.219C10.4247 202.219 4.49901 208.128 4.49901 215.418ZM45.3818 228.616C38.0721 228.616 32.1465 222.707 32.1465 215.418C32.1465 208.128 38.0721 202.219 45.3818 202.219C52.6915 202.219 58.6172 208.128 58.6172 215.418C58.6172 222.707 52.6915 228.616 45.3818 228.616ZM73.0293 256.187C65.7196 256.187 59.7939 250.278 59.7939 242.988C59.7939 235.699 65.7196 229.79 73.0293 229.79C80.339 229.79 86.2646 235.699 86.2646 242.988C86.2646 250.278 80.339 256.187 73.0293 256.187ZM4.49902 242.988C4.49902 250.278 10.4247 256.187 17.7344 256.187C25.0441 256.187 30.9697 250.278 30.9697 242.988C30.9697 235.699 25.0441 229.79 17.7344 229.79C10.4247 229.79 4.49902 235.699 4.49902 242.988ZM45.3818 256.187C38.0721 256.187 32.1465 250.278 32.1465 242.988C32.1465 235.699 38.0721 229.79 45.3818 229.79C52.6915 229.79 58.6172 235.699 58.6172 242.988C58.6172 250.278 52.6915 256.187 45.3818 256.187Z" fill="#FF8743"/>
<path fill-rule="evenodd" clip-rule="evenodd" d="M69.4201 72.3799L70.5988 72.3799C70.7562 65.2073 76.6036 59.4414 83.794 59.4414C90.9843 59.4414 96.8318 65.2073 96.9892 72.3799L98.1686 72.3799C98.326 65.2073 104.173 59.4414 111.364 59.4414C118.554 59.4414 124.402 65.2073 124.559 72.3799L125.739 72.3799C125.897 65.2073 131.744 59.4414 138.934 59.4414C146.125 59.4414 151.972 65.2073 152.13 72.3799L153.31 72.3799C153.467 65.2073 159.315 59.4414 166.505 59.4414C173.695 59.4414 179.543 65.2073 179.7 72.3799L180.88 72.3799C181.036 65.3051 186.727 59.5989 193.782 59.4446L193.782 58.2614C186.628 58.1051 180.877 52.2407 180.877 45.0293C180.877 37.8179 186.628 31.9535 193.782 31.7971L193.782 30.614C186.628 30.4576 180.877 24.5932 180.877 17.3818C180.877 10.1704 186.628 4.30606 193.782 4.14968L193.782 2.96652C186.628 2.81014 180.877 -3.05422 180.877 -10.2656C180.877 -17.477 186.628 -23.3414 193.782 -23.4978L193.782 -24.6809C186.628 -24.8373 180.877 -30.7017 180.877 -37.9131C180.877 -45.1245 186.628 -50.9889 193.782 -51.1452L193.782 -52.3284C187.152 -52.4733 181.726 -57.5212 180.968 -64.0004L179.55 -63.5347C178.577 -57.1866 173.107 -52.3252 166.505 -52.3252C162.867 -52.3252 159.572 -53.8015 157.185 -56.1894L141.229 -50.9492C147.424 -49.8601 152.133 -44.438 152.133 -37.9131C152.133 -30.6034 146.224 -24.6777 138.934 -24.6777C131.645 -24.6777 125.736 -30.6034 125.736 -37.9131C125.736 -41.4632 127.13 -44.6869 129.399 -47.0638L122.615 -44.8359C123.85 -42.8218 124.562 -40.4509 124.562 -37.9131C124.562 -30.6034 118.653 -24.6777 111.364 -24.6777C104.441 -24.6777 98.7636 -30.022 98.2096 -36.8206L96.9063 -36.3925C96.1542 -29.799 90.5705 -24.6777 83.794 -24.6777C79.9726 -24.6777 76.5305 -26.3063 74.1203 -28.909L57.4752 -23.4424C64.1781 -22.8108 69.4233 -17.1525 69.4233 -10.2656C69.4233 -2.95595 63.5142 2.96972 56.2249 2.96972C54.7474 2.96972 53.3265 2.72626 52.0001 2.27716L52.0576 4.81972C53.3676 4.38296 54.7687 4.14647 56.2249 4.14647C63.5142 4.14647 69.4233 10.0721 69.4233 17.3818C69.4233 24.6915 63.5142 30.6172 56.2249 30.6172C54.9786 30.6172 53.7726 30.444 52.6297 30.1202L52.6785 32.2772C53.8069 31.9623 54.9963 31.7939 56.2249 31.7939C63.5142 31.7939 69.4233 37.7196 69.4233 45.0293C69.4233 52.339 63.5142 58.2646 56.2249 58.2646C55.2049 58.2646 54.212 58.1486 53.2584 57.929L53.3 59.7675C54.2408 59.5541 55.2197 59.4414 56.2249 59.4414C63.4153 59.4414 69.2627 65.2073 69.4201 72.3799ZM153.306 45.0293C153.306 37.7196 159.216 31.7939 166.505 31.7939C173.794 31.7939 179.703 37.7196 179.703 45.0293C179.703 52.339 173.794 58.2646 166.505 58.2646C159.216 58.2646 153.306 52.339 153.306 45.0293ZM166.505 -23.501C159.216 -23.501 153.306 -17.5753 153.306 -10.2656C153.306 -2.95595 159.216 2.96972 166.505 2.96972C173.794 2.96972 179.703 -2.95595 179.703 -10.2656C179.703 -17.5753 173.794 -23.501 166.505 -23.501ZM153.306 17.3818C153.306 10.0721 159.216 4.14647 166.505 4.14647C173.794 4.14647 179.703 10.0721 179.703 17.3818C179.703 24.6915 173.794 30.6172 166.505 30.6172C159.216 30.6172 153.306 24.6915 153.306 17.3818ZM166.505 -51.1484C159.216 -51.1484 153.306 -45.2228 153.306 -37.9131C153.306 -30.6034 159.216 -24.6777 166.505 -24.6777C173.794 -24.6777 179.703 -30.6034 179.703 -37.9131C179.703 -45.2228 173.794 -51.1484 166.505 -51.1484ZM125.736 45.0293C125.736 37.7196 131.645 31.7939 138.934 31.7939C146.224 31.7939 152.133 37.7196 152.133 45.0293C152.133 52.339 146.224 58.2646 138.934 58.2646C131.645 58.2646 125.736 52.339 125.736 45.0293ZM138.934 -23.501C131.645 -23.501 125.736 -17.5753 125.736 -10.2656C125.736 -2.95595 131.645 2.96972 138.934 2.96972C146.224 2.96972 152.133 -2.95595 152.133 -10.2656C152.133 -17.5753 146.224 -23.501 138.934 -23.501ZM125.736 17.3818C125.736 10.0721 131.645 4.14647 138.934 4.14647C146.224 4.14647 152.133 10.0721 152.133 17.3818C152.133 24.6915 146.224 30.6172 138.934 30.6172C131.645 30.6172 125.736 24.6915 125.736 17.3818ZM98.1661 45.0293C98.1661 37.7196 104.075 31.7939 111.365 31.7939C118.654 31.7939 124.563 37.7196 124.563 45.0293C124.563 52.339 118.654 58.2646 111.365 58.2646C104.075 58.2646 98.1661 52.339 98.1661 45.0293ZM111.365 -23.501C104.075 -23.501 98.1661 -17.5753 98.1661 -10.2656C98.1661 -2.95596 104.075 2.96972 111.365 2.96972C118.654 2.96972 124.563 -2.95595 124.563 -10.2656C124.563 -17.5753 118.654 -23.501 111.365 -23.501ZM98.1661 17.3818C98.1661 10.0721 104.075 4.14647 111.365 4.14647C118.654 4.14647 124.563 10.0721 124.563 17.3818C124.563 24.6915 118.654 30.6172 111.365 30.6172C104.075 30.6172 98.1661 24.6915 98.1661 17.3818ZM70.5955 45.0293C70.5955 37.7196 76.5047 31.7939 83.794 31.7939C91.0833 31.7939 96.9924 37.7196 96.9924 45.0293C96.9924 52.339 91.0833 58.2646 83.794 58.2646C76.5047 58.2646 70.5955 52.339 70.5955 45.0293ZM83.794 -23.501C76.5047 -23.501 70.5955 -17.5753 70.5955 -10.2656C70.5955 -2.95595 76.5047 2.96972 83.794 2.96972C91.0833 2.96973 96.9924 -2.95595 96.9924 -10.2656C96.9924 -17.5753 91.0833 -23.501 83.794 -23.501ZM70.5955 17.3818C70.5955 10.0721 76.5047 4.14647 83.794 4.14647C91.0833 4.14647 96.9924 10.0721 96.9924 17.3818C96.9924 24.6915 91.0833 30.6172 83.794 30.6172C76.5047 30.6172 70.5955 24.6915 70.5955 17.3818Z" fill="#E8E0FF"/>
</g>
</svg>
