<svg width="181" height="204" viewBox="0 0 181 204" fill="none" xmlns="http://www.w3.org/2000/svg">
<mask id="mask0" mask-type="alpha" maskUnits="userSpaceOnUse" x="0" y="0" width="181" height="204">
<path fill-rule="evenodd" clip-rule="evenodd" d="M180.007 0L37.8076 50.8197V79.0127L0 92.5245V204L142.2 153.18V124.987L180.007 111.475V0Z" fill="#ADD5E5"/>
</mask>
<g mask="url(#mask0)">
<path fill-rule="evenodd" clip-rule="evenodd" d="M180.007 0L37.8076 50.8197V79.0127L0 92.5245V204L142.2 153.18V124.987L180.007 111.475V0Z" fill="#FF8743"/>
<path fill-rule="evenodd" clip-rule="evenodd" d="M146.452 146.233L146.452 144.249C134.383 143.986 124.68 134.147 124.68 122.049C124.68 109.95 134.383 100.111 146.452 99.8484L146.452 97.8633C134.383 97.6003 124.68 87.7616 124.68 75.663C124.68 63.5644 134.383 53.7256 146.452 53.4627L146.452 51.4776C134.383 51.2146 124.68 41.3759 124.68 29.2773C124.68 17.1786 134.383 7.3399 146.452 7.07693L146.452 5.09257C134.383 4.8296 124.68 -5.00914 124.68 -17.1078C124.68 -29.2064 134.383 -39.0451 146.452 -39.3081L146.452 -41.293C134.547 -41.5524 124.945 -51.1283 124.686 -63L122.693 -63C122.43 -50.964 112.563 -41.2878 100.43 -41.2878C88.2977 -41.2878 78.4312 -50.964 78.1681 -63L76.1811 -63C75.918 -50.964 66.0515 -41.2878 53.9187 -41.2878C41.786 -41.2878 31.9195 -50.964 31.6563 -63L29.6636 -63C29.4004 -50.964 19.5339 -41.2878 7.40115 -41.2878C-4.73161 -41.2878 -14.5981 -50.964 -14.8612 -63L-16.854 -63C-17.1172 -50.964 -26.9837 -41.2878 -39.1164 -41.2878C-51.2492 -41.2878 -61.1156 -50.964 -61.3788 -63L-63.3628 -63C-63.6067 -51.845 -72.0996 -42.7169 -83.0005 -41.4404L-82.217 -39.055C-71.5367 -37.4192 -63.3574 -28.216 -63.3574 -17.1078C-63.3574 -10.9863 -65.8413 -5.44333 -69.8589 -1.42652L-61.0468 25.4049C-59.2096 14.9871 -50.09 7.07153 -39.1164 7.07153C-26.8183 7.07153 -16.8486 17.0134 -16.8486 29.2773C-16.8486 41.5411 -26.8183 51.483 -39.1164 51.483C-45.085 51.483 -50.505 49.1413 -54.5032 45.329L-50.7587 56.7304C-47.3712 54.6544 -43.384 53.4573 -39.1164 53.4573C-26.8183 53.4573 -16.8486 63.3991 -16.8486 75.663C-16.8486 87.3077 -25.837 96.8589 -37.2725 97.7937L-36.5516 99.9887C-25.4615 101.257 -16.8486 110.65 -16.8486 122.049C-16.8486 128.476 -19.5866 134.265 -23.9628 138.32L-14.767 166.319C-13.6993 155.047 -4.18188 146.228 7.40116 146.228C19.6993 146.228 29.669 156.17 29.669 168.434C29.669 170.919 29.2594 173.31 28.504 175.541L32.7834 175.444C32.0487 173.241 31.651 170.883 31.651 168.434C31.651 156.17 41.6206 146.228 53.9187 146.228C66.2169 146.228 76.1865 156.17 76.1865 168.434C76.1865 170.53 75.8952 172.559 75.3506 174.482L78.9755 174.4C78.4458 172.501 78.1627 170.501 78.1627 168.434C78.1627 156.17 88.1323 146.228 100.43 146.228C112.729 146.228 122.698 156.17 122.698 168.434C122.698 170.15 122.503 171.82 122.134 173.424L125.229 173.354C124.87 171.771 124.68 170.125 124.68 168.434C124.68 156.335 134.383 146.496 146.452 146.233ZM100.43 5.09796C88.1323 5.09796 78.1627 -4.84388 78.1627 -17.1078C78.1627 -29.3716 88.1323 -39.3135 100.43 -39.3135C112.729 -39.3135 122.698 -29.3716 122.698 -17.1078C122.698 -4.84388 112.729 5.09796 100.43 5.09796ZM-14.8666 -17.1078C-14.8666 -4.84388 -4.89701 5.09796 7.40115 5.09796C19.6993 5.09796 29.6689 -4.84388 29.6689 -17.1078C29.6689 -29.3716 19.6993 -39.3135 7.40115 -39.3135C-4.897 -39.3135 -14.8666 -29.3716 -14.8666 -17.1078ZM53.9187 5.09796C41.6206 5.09796 31.651 -4.84388 31.651 -17.1078C31.651 -29.3716 41.6206 -39.3135 53.9187 -39.3135C66.2169 -39.3135 76.1865 -29.3716 76.1865 -17.1078C76.1865 -4.84388 66.2169 5.09796 53.9187 5.09796ZM-61.3842 -17.1078C-61.3842 -4.84388 -51.4146 5.09796 -39.1164 5.09796C-26.8183 5.09796 -16.8486 -4.84388 -16.8486 -17.1078C-16.8486 -29.3716 -26.8183 -39.3135 -39.1164 -39.3135C-51.4146 -39.3135 -61.3842 -29.3716 -61.3842 -17.1078ZM100.43 51.483C88.1323 51.483 78.1627 41.5411 78.1627 29.2772C78.1627 17.0134 88.1323 7.07153 100.43 7.07153C112.729 7.07153 122.698 17.0134 122.698 29.2773C122.698 41.5411 112.729 51.483 100.43 51.483ZM-14.8666 29.2773C-14.8666 41.5411 -4.89701 51.483 7.40115 51.483C19.6993 51.483 29.6689 41.5411 29.6689 29.2773C29.6689 17.0134 19.6993 7.07154 7.40115 7.07153C-4.89701 7.07153 -14.8666 17.0134 -14.8666 29.2773ZM53.9187 51.483C41.6206 51.483 31.651 41.5411 31.651 29.2773C31.651 17.0134 41.6206 7.07154 53.9187 7.07154C66.2169 7.07154 76.1865 17.0134 76.1865 29.2773C76.1865 41.5411 66.2169 51.483 53.9187 51.483ZM100.43 97.8687C88.1323 97.8687 78.1627 87.9269 78.1627 75.663C78.1627 63.3991 88.1323 53.4573 100.43 53.4573C112.729 53.4573 122.698 63.3991 122.698 75.663C122.698 87.9269 112.729 97.8687 100.43 97.8687ZM-14.8666 75.663C-14.8666 87.9269 -4.89701 97.8687 7.40115 97.8687C19.6993 97.8687 29.6689 87.9269 29.6689 75.663C29.6689 63.3991 19.6993 53.4573 7.40115 53.4573C-4.89701 53.4573 -14.8666 63.3991 -14.8666 75.663ZM53.9187 97.8687C41.6206 97.8687 31.651 87.9269 31.651 75.663C31.651 63.3991 41.6206 53.4573 53.9187 53.4573C66.2169 53.4573 76.1865 63.3991 76.1865 75.663C76.1865 87.9269 66.2169 97.8687 53.9187 97.8687ZM100.43 144.254C88.1323 144.254 78.1627 134.313 78.1627 122.049C78.1627 109.785 88.1323 99.843 100.43 99.843C112.729 99.843 122.698 109.785 122.698 122.049C122.698 134.313 112.729 144.254 100.43 144.254ZM-14.8666 122.049C-14.8666 134.313 -4.897 144.254 7.40116 144.254C19.6993 144.254 29.669 134.313 29.669 122.049C29.669 109.785 19.6993 99.843 7.40116 99.843C-4.897 99.843 -14.8666 109.785 -14.8666 122.049ZM53.9187 144.254C41.6206 144.254 31.651 134.313 31.651 122.049C31.651 109.785 41.6206 99.843 53.9187 99.843C66.2169 99.843 76.1865 109.785 76.1865 122.049C76.1865 134.313 66.2169 144.254 53.9187 144.254Z" fill="#E1FC31"/>
<path fill-rule="evenodd" clip-rule="evenodd" d="M-34.5799 157.38L-33.4012 157.38C-33.2438 150.207 -27.3964 144.441 -20.206 144.441C-13.0157 144.441 -7.16824 150.207 -7.01083 157.38L-5.83142 157.38C-5.67401 150.207 0.173417 144.441 7.36379 144.441C14.5542 144.441 20.4016 150.207 20.559 157.38L21.7391 157.38C21.8966 150.207 27.744 144.441 34.9344 144.441C42.1247 144.441 47.9721 150.207 48.1296 157.38L49.3097 157.38C49.4671 150.207 55.3145 144.441 62.5049 144.441C69.6953 144.441 75.5427 150.207 75.7001 157.38L76.8803 157.38C77.0356 150.305 82.7268 144.599 89.7822 144.445L89.7822 143.261C82.6283 143.105 76.877 137.241 76.877 130.029C76.877 122.818 82.6283 116.954 89.7822 116.797L89.7822 115.614C82.6283 115.458 76.877 109.593 76.877 102.382C76.877 95.1704 82.6283 89.3061 89.7822 89.1497L89.7822 87.9665C82.6283 87.8101 76.877 81.9458 76.877 74.7344C76.877 67.523 82.6283 61.6586 89.7822 61.5022L89.7822 60.3191C82.6283 60.1627 76.877 54.2983 76.877 47.0869C76.877 39.8755 82.6283 34.0111 89.7822 33.8548L89.7822 32.6716C83.152 32.5267 77.7265 27.4788 76.9677 20.9996L75.5497 21.4653C74.5774 27.8134 69.1073 32.6748 62.5049 32.6748C58.8665 32.6748 55.572 31.1985 53.1845 28.8106L37.2289 34.0508C43.4244 35.1399 48.1328 40.562 48.1328 47.0869C48.1328 54.3966 42.2237 60.3223 34.9344 60.3223C27.645 60.3223 21.7359 54.3966 21.7359 47.0869C21.7359 43.5368 23.1297 40.3131 25.3986 37.9362L18.615 40.1641C19.85 42.1782 20.5623 44.5491 20.5623 47.0869C20.5623 54.3966 14.6531 60.3223 7.36379 60.3223C0.441331 60.3223 -5.2364 54.978 -5.79036 48.1794L-7.09373 48.6075C-7.84582 55.201 -13.4295 60.3223 -20.206 60.3223C-24.0274 60.3223 -27.4695 58.6937 -29.8797 56.091L-46.5248 61.5576C-39.8219 62.1892 -34.5767 67.8475 -34.5767 74.7344C-34.5767 82.044 -40.4858 87.9697 -47.7751 87.9697C-49.2526 87.9697 -50.6735 87.7263 -51.9999 87.2772L-51.9424 89.8197C-50.6324 89.383 -49.2313 89.1465 -47.7751 89.1465C-40.4858 89.1465 -34.5767 95.0721 -34.5767 102.382C-34.5767 109.692 -40.4858 115.617 -47.7751 115.617C-49.0214 115.617 -50.2274 115.444 -51.3703 115.12L-51.3215 117.277C-50.1931 116.962 -49.0037 116.794 -47.7751 116.794C-40.4858 116.794 -34.5767 122.72 -34.5767 130.029C-34.5767 137.339 -40.4858 143.265 -47.7751 143.265C-48.7951 143.265 -49.788 143.149 -50.7416 142.929L-50.7 144.768C-49.7592 144.554 -48.7803 144.441 -47.7751 144.441C-40.5847 144.441 -34.7373 150.207 -34.5799 157.38ZM49.3064 130.029C49.3064 122.72 55.2156 116.794 62.5049 116.794C69.7942 116.794 75.7034 122.72 75.7034 130.029C75.7034 137.339 69.7942 143.265 62.5049 143.265C55.2156 143.265 49.3064 137.339 49.3064 130.029ZM62.5049 61.499C55.2156 61.499 49.3064 67.4247 49.3064 74.7344C49.3064 82.044 55.2156 87.9697 62.5049 87.9697C69.7942 87.9697 75.7034 82.0441 75.7034 74.7344C75.7034 67.4247 69.7942 61.499 62.5049 61.499ZM49.3064 102.382C49.3064 95.0721 55.2156 89.1465 62.5049 89.1465C69.7942 89.1465 75.7034 95.0721 75.7034 102.382C75.7034 109.692 69.7942 115.617 62.5049 115.617C55.2156 115.617 49.3064 109.692 49.3064 102.382ZM62.5049 33.8516C55.2156 33.8516 49.3064 39.7772 49.3064 47.0869C49.3064 54.3966 55.2156 60.3223 62.5049 60.3223C69.7942 60.3223 75.7034 54.3966 75.7034 47.0869C75.7034 39.7772 69.7942 33.8516 62.5049 33.8516ZM21.7359 130.029C21.7359 122.72 27.645 116.794 34.9344 116.794C42.2237 116.794 48.1328 122.72 48.1328 130.029C48.1328 137.339 42.2237 143.265 34.9344 143.265C27.645 143.265 21.7359 137.339 21.7359 130.029ZM34.9344 61.499C27.645 61.499 21.7359 67.4247 21.7359 74.7344C21.7359 82.044 27.645 87.9697 34.9344 87.9697C42.2237 87.9697 48.1328 82.044 48.1328 74.7344C48.1328 67.4247 42.2237 61.499 34.9344 61.499ZM21.7359 102.382C21.7359 95.0721 27.645 89.1465 34.9344 89.1465C42.2237 89.1465 48.1328 95.0721 48.1328 102.382C48.1328 109.692 42.2237 115.617 34.9343 115.617C27.645 115.617 21.7359 109.692 21.7359 102.382ZM-5.83394 130.029C-5.83394 122.72 0.0752141 116.794 7.36452 116.794C14.6538 116.794 20.563 122.72 20.563 130.029C20.563 137.339 14.6538 143.265 7.36452 143.265C0.0752118 143.265 -5.83394 137.339 -5.83394 130.029ZM7.36453 61.499C0.075219 61.499 -5.83394 67.4247 -5.83394 74.7344C-5.83394 82.044 0.0752166 87.9697 7.36452 87.9697C14.6538 87.9697 20.563 82.044 20.563 74.7344C20.563 67.4247 14.6538 61.499 7.36453 61.499ZM-5.83394 102.382C-5.83394 95.0721 0.0752165 89.1465 7.36452 89.1465C14.6538 89.1465 20.563 95.0721 20.563 102.382C20.563 109.692 14.6538 115.617 7.36452 115.617C0.0752142 115.617 -5.83394 109.692 -5.83394 102.382ZM-33.4045 130.029C-33.4045 122.72 -27.4953 116.794 -20.206 116.794C-12.9167 116.794 -7.00757 122.72 -7.00757 130.029C-7.00757 137.339 -12.9167 143.265 -20.206 143.265C-27.4953 143.265 -33.4045 137.339 -33.4045 130.029ZM-20.206 61.499C-27.4953 61.499 -33.4045 67.4247 -33.4045 74.7344C-33.4045 82.044 -27.4953 87.9697 -20.206 87.9697C-12.9167 87.9697 -7.00756 82.0441 -7.00756 74.7344C-7.00756 67.4247 -12.9167 61.499 -20.206 61.499ZM-33.4045 102.382C-33.4045 95.0721 -27.4953 89.1465 -20.206 89.1465C-12.9167 89.1465 -7.00756 95.0721 -7.00756 102.382C-7.00756 109.692 -12.9167 115.617 -20.206 115.617C-27.4953 115.617 -33.4045 109.692 -33.4045 102.382Z" fill="#6038D0"/>
</g>
</svg>
