<svg width="181" height="204" viewBox="0 0 181 204" fill="none" xmlns="http://www.w3.org/2000/svg">
<mask id="mask0" mask-type="alpha" maskUnits="userSpaceOnUse" x="0" y="0" width="181" height="204">
<path fill-rule="evenodd" clip-rule="evenodd" d="M180.007 0L37.8076 50.8197V79.0127L0 92.5245V204L142.2 153.18V124.987L180.007 111.475V0Z" fill="#ADD5E5"/>
</mask>
<g mask="url(#mask0)">
<path fill-rule="evenodd" clip-rule="evenodd" d="M180.007 0L37.8076 50.8197V79.0127L0 92.5245V204L142.2 153.18V124.987L180.007 111.475V0Z" fill="#19D992"/>
<path fill-rule="evenodd" clip-rule="evenodd" d="M146.452 146.233L146.452 144.249C134.383 143.986 124.68 134.147 124.68 122.049C124.68 109.95 134.383 100.111 146.452 99.8484L146.452 97.8633C134.383 97.6003 124.68 87.7616 124.68 75.663C124.68 63.5644 134.383 53.7256 146.452 53.4627L146.452 51.4776C134.383 51.2146 124.68 41.3759 124.68 29.2773C124.68 17.1786 134.383 7.3399 146.452 7.07693L146.452 5.09257C134.383 4.8296 124.68 -5.00914 124.68 -17.1078C124.68 -29.2064 134.383 -39.0451 146.452 -39.3081L146.452 -41.293C134.547 -41.5524 124.945 -51.1283 124.686 -63L122.693 -63C122.43 -50.964 112.563 -41.2878 100.43 -41.2878C88.2977 -41.2878 78.4312 -50.964 78.1681 -63L76.1811 -63C75.918 -50.964 66.0515 -41.2878 53.9187 -41.2878C41.786 -41.2878 31.9195 -50.964 31.6563 -63L29.6636 -63C29.4004 -50.964 19.5339 -41.2878 7.40115 -41.2878C-4.73161 -41.2878 -14.5981 -50.964 -14.8612 -63L-16.854 -63C-17.1172 -50.964 -26.9837 -41.2878 -39.1164 -41.2878C-51.2492 -41.2878 -61.1156 -50.964 -61.3788 -63L-63.3628 -63C-63.6067 -51.845 -72.0996 -42.7169 -83.0005 -41.4404L-82.217 -39.055C-71.5367 -37.4192 -63.3574 -28.216 -63.3574 -17.1078C-63.3574 -10.9863 -65.8413 -5.44333 -69.8589 -1.42652L-61.0468 25.4049C-59.2096 14.9871 -50.09 7.07153 -39.1164 7.07153C-26.8183 7.07153 -16.8486 17.0134 -16.8486 29.2773C-16.8486 41.5411 -26.8183 51.483 -39.1164 51.483C-45.085 51.483 -50.505 49.1413 -54.5032 45.329L-50.7587 56.7304C-47.3712 54.6544 -43.384 53.4573 -39.1164 53.4573C-26.8183 53.4573 -16.8486 63.3991 -16.8486 75.663C-16.8486 87.3077 -25.837 96.8589 -37.2725 97.7937L-36.5516 99.9887C-25.4615 101.257 -16.8486 110.65 -16.8486 122.049C-16.8486 128.476 -19.5866 134.265 -23.9628 138.32L-14.767 166.319C-13.6993 155.047 -4.18188 146.228 7.40116 146.228C19.6993 146.228 29.669 156.17 29.669 168.434C29.669 170.919 29.2594 173.31 28.504 175.541L32.7834 175.444C32.0487 173.241 31.651 170.883 31.651 168.434C31.651 156.17 41.6206 146.228 53.9187 146.228C66.2169 146.228 76.1865 156.17 76.1865 168.434C76.1865 170.53 75.8952 172.559 75.3506 174.482L78.9755 174.4C78.4458 172.501 78.1627 170.501 78.1627 168.434C78.1627 156.17 88.1323 146.228 100.43 146.228C112.729 146.228 122.698 156.17 122.698 168.434C122.698 170.15 122.503 171.82 122.134 173.424L125.229 173.354C124.87 171.771 124.68 170.125 124.68 168.434C124.68 156.335 134.383 146.496 146.452 146.233ZM100.43 5.09796C88.1323 5.09796 78.1627 -4.84388 78.1627 -17.1078C78.1627 -29.3716 88.1323 -39.3135 100.43 -39.3135C112.729 -39.3135 122.698 -29.3716 122.698 -17.1078C122.698 -4.84388 112.729 5.09796 100.43 5.09796ZM-14.8666 -17.1078C-14.8666 -4.84388 -4.89701 5.09796 7.40115 5.09796C19.6993 5.09796 29.6689 -4.84388 29.6689 -17.1078C29.6689 -29.3716 19.6993 -39.3135 7.40115 -39.3135C-4.897 -39.3135 -14.8666 -29.3716 -14.8666 -17.1078ZM53.9187 5.09796C41.6206 5.09796 31.651 -4.84388 31.651 -17.1078C31.651 -29.3716 41.6206 -39.3135 53.9187 -39.3135C66.2169 -39.3135 76.1865 -29.3716 76.1865 -17.1078C76.1865 -4.84388 66.2169 5.09796 53.9187 5.09796ZM-61.3842 -17.1078C-61.3842 -4.84388 -51.4146 5.09796 -39.1164 5.09796C-26.8183 5.09796 -16.8486 -4.84388 -16.8486 -17.1078C-16.8486 -29.3716 -26.8183 -39.3135 -39.1164 -39.3135C-51.4146 -39.3135 -61.3842 -29.3716 -61.3842 -17.1078ZM100.43 51.483C88.1323 51.483 78.1627 41.5411 78.1627 29.2772C78.1627 17.0134 88.1323 7.07153 100.43 7.07153C112.729 7.07153 122.698 17.0134 122.698 29.2773C122.698 41.5411 112.729 51.483 100.43 51.483ZM-14.8666 29.2773C-14.8666 41.5411 -4.89701 51.483 7.40115 51.483C19.6993 51.483 29.6689 41.5411 29.6689 29.2773C29.6689 17.0134 19.6993 7.07154 7.40115 7.07153C-4.89701 7.07153 -14.8666 17.0134 -14.8666 29.2773ZM53.9187 51.483C41.6206 51.483 31.651 41.5411 31.651 29.2773C31.651 17.0134 41.6206 7.07154 53.9187 7.07154C66.2169 7.07154 76.1865 17.0134 76.1865 29.2773C76.1865 41.5411 66.2169 51.483 53.9187 51.483ZM100.43 97.8687C88.1323 97.8687 78.1627 87.9269 78.1627 75.663C78.1627 63.3991 88.1323 53.4573 100.43 53.4573C112.729 53.4573 122.698 63.3991 122.698 75.663C122.698 87.9269 112.729 97.8687 100.43 97.8687ZM-14.8666 75.663C-14.8666 87.9269 -4.89701 97.8687 7.40115 97.8687C19.6993 97.8687 29.6689 87.9269 29.6689 75.663C29.6689 63.3991 19.6993 53.4573 7.40115 53.4573C-4.89701 53.4573 -14.8666 63.3991 -14.8666 75.663ZM53.9187 97.8687C41.6206 97.8687 31.651 87.9269 31.651 75.663C31.651 63.3991 41.6206 53.4573 53.9187 53.4573C66.2169 53.4573 76.1865 63.3991 76.1865 75.663C76.1865 87.9269 66.2169 97.8687 53.9187 97.8687ZM100.43 144.254C88.1323 144.254 78.1627 134.313 78.1627 122.049C78.1627 109.785 88.1323 99.843 100.43 99.843C112.729 99.843 122.698 109.785 122.698 122.049C122.698 134.313 112.729 144.254 100.43 144.254ZM-14.8666 122.049C-14.8666 134.313 -4.897 144.254 7.40116 144.254C19.6993 144.254 29.669 134.313 29.669 122.049C29.669 109.785 19.6993 99.843 7.40116 99.843C-4.897 99.843 -14.8666 109.785 -14.8666 122.049ZM53.9187 144.254C41.6206 144.254 31.651 134.313 31.651 122.049C31.651 109.785 41.6206 99.843 53.9187 99.843C66.2169 99.843 76.1865 109.785 76.1865 122.049C76.1865 134.313 66.2169 144.254 53.9187 144.254Z" fill="#E1FC31"/>
<path fill-rule="evenodd" clip-rule="evenodd" d="M67.4201 93.3799L68.5988 93.3799C68.7562 86.2073 74.6036 80.4414 81.794 80.4414C88.9843 80.4414 94.8318 86.2073 94.9892 93.3799L96.1686 93.3799C96.326 86.2073 102.173 80.4414 109.364 80.4414C116.554 80.4414 122.402 86.2073 122.559 93.3799L123.739 93.3799C123.897 86.2073 129.744 80.4414 136.934 80.4414C144.125 80.4414 149.972 86.2073 150.13 93.3799L151.31 93.3799C151.467 86.2073 157.315 80.4414 164.505 80.4414C171.695 80.4414 177.543 86.2073 177.7 93.3799L178.88 93.3799C179.036 86.3051 184.727 80.5989 191.782 80.4446L191.782 79.2614C184.628 79.1051 178.877 73.2407 178.877 66.0293C178.877 58.8179 184.628 52.9535 191.782 52.7971L191.782 51.614C184.628 51.4576 178.877 45.5932 178.877 38.3818C178.877 31.1704 184.628 25.3061 191.782 25.1497L191.782 23.9665C184.628 23.8101 178.877 17.9458 178.877 10.7344C178.877 3.52296 184.628 -2.3414 191.782 -2.49778L191.782 -3.68094C184.628 -3.83731 178.877 -9.70168 178.877 -16.9131C178.877 -24.1245 184.628 -29.9889 191.782 -30.1452L191.782 -31.3284C185.152 -31.4733 179.726 -36.5212 178.968 -43.0004L177.55 -42.5347C176.577 -36.1866 171.107 -31.3252 164.505 -31.3252C160.867 -31.3252 157.572 -32.8015 155.185 -35.1894L139.229 -29.9492C145.424 -28.8601 150.133 -23.438 150.133 -16.9131C150.133 -9.60341 144.224 -3.67774 136.934 -3.67774C129.645 -3.67774 123.736 -9.60341 123.736 -16.9131C123.736 -20.4632 125.13 -23.6869 127.399 -26.0638L120.615 -23.8359C121.85 -21.8218 122.562 -19.4509 122.562 -16.9131C122.562 -9.60341 116.653 -3.67774 109.364 -3.67774C102.441 -3.67774 96.7636 -9.02198 96.2096 -15.8206L94.9063 -15.3925C94.1542 -8.799 88.5705 -3.67774 81.794 -3.67774C77.9726 -3.67774 74.5305 -5.30629 72.1203 -7.90905L55.4752 -2.44237C62.1781 -1.81076 67.4233 3.84754 67.4233 10.7344C67.4233 18.044 61.5142 23.9697 54.2249 23.9697C52.7474 23.9697 51.3265 23.7263 50.0001 23.2772L50.0576 25.8197C51.3676 25.383 52.7687 25.1465 54.2249 25.1465C61.5142 25.1465 67.4233 31.0721 67.4233 38.3818C67.4233 45.6915 61.5142 51.6172 54.2249 51.6172C52.9786 51.6172 51.7726 51.444 50.6297 51.1202L50.6785 53.2772C51.8069 52.9623 52.9963 52.7939 54.2249 52.7939C61.5142 52.7939 67.4233 58.7196 67.4233 66.0293C67.4233 73.339 61.5142 79.2646 54.2249 79.2646C53.2049 79.2646 52.212 79.1486 51.2584 78.929L51.3 80.7675C52.2408 80.5541 53.2197 80.4414 54.2249 80.4414C61.4153 80.4414 67.2627 86.2073 67.4201 93.3799ZM151.306 66.0293C151.306 58.7196 157.216 52.7939 164.505 52.7939C171.794 52.7939 177.703 58.7196 177.703 66.0293C177.703 73.339 171.794 79.2646 164.505 79.2646C157.216 79.2646 151.306 73.339 151.306 66.0293ZM164.505 -2.50099C157.216 -2.50099 151.306 3.42468 151.306 10.7344C151.306 18.044 157.216 23.9697 164.505 23.9697C171.794 23.9697 177.703 18.0441 177.703 10.7344C177.703 3.42468 171.794 -2.50099 164.505 -2.50099ZM151.306 38.3818C151.306 31.0721 157.216 25.1465 164.505 25.1465C171.794 25.1465 177.703 31.0721 177.703 38.3818C177.703 45.6915 171.794 51.6172 164.505 51.6172C157.216 51.6172 151.306 45.6915 151.306 38.3818ZM164.505 -30.1484C157.216 -30.1484 151.306 -24.2228 151.306 -16.9131C151.306 -9.60341 157.216 -3.67774 164.505 -3.67774C171.794 -3.67774 177.703 -9.60341 177.703 -16.9131C177.703 -24.2228 171.794 -30.1484 164.505 -30.1484ZM123.736 66.0293C123.736 58.7196 129.645 52.7939 136.934 52.7939C144.224 52.7939 150.133 58.7196 150.133 66.0293C150.133 73.339 144.224 79.2646 136.934 79.2646C129.645 79.2646 123.736 73.339 123.736 66.0293ZM136.934 -2.50099C129.645 -2.50099 123.736 3.42468 123.736 10.7344C123.736 18.044 129.645 23.9697 136.934 23.9697C144.224 23.9697 150.133 18.044 150.133 10.7344C150.133 3.42468 144.224 -2.50099 136.934 -2.50099ZM123.736 38.3818C123.736 31.0721 129.645 25.1465 136.934 25.1465C144.224 25.1465 150.133 31.0721 150.133 38.3818C150.133 45.6915 144.224 51.6172 136.934 51.6172C129.645 51.6172 123.736 45.6915 123.736 38.3818ZM96.1661 66.0293C96.1661 58.7196 102.075 52.7939 109.365 52.7939C116.654 52.7939 122.563 58.7196 122.563 66.0293C122.563 73.339 116.654 79.2646 109.365 79.2646C102.075 79.2646 96.1661 73.339 96.1661 66.0293ZM109.365 -2.50099C102.075 -2.50099 96.1661 3.42467 96.1661 10.7344C96.1661 18.044 102.075 23.9697 109.365 23.9697C116.654 23.9697 122.563 18.044 122.563 10.7344C122.563 3.42468 116.654 -2.50099 109.365 -2.50099ZM96.1661 38.3818C96.1661 31.0721 102.075 25.1465 109.365 25.1465C116.654 25.1465 122.563 31.0721 122.563 38.3818C122.563 45.6915 116.654 51.6172 109.365 51.6172C102.075 51.6172 96.1661 45.6915 96.1661 38.3818ZM68.5955 66.0293C68.5955 58.7196 74.5047 52.7939 81.794 52.7939C89.0833 52.7939 94.9924 58.7196 94.9924 66.0293C94.9924 73.339 89.0833 79.2646 81.794 79.2646C74.5047 79.2646 68.5955 73.339 68.5955 66.0293ZM81.794 -2.50099C74.5047 -2.50099 68.5955 3.42468 68.5955 10.7344C68.5955 18.044 74.5047 23.9697 81.794 23.9697C89.0833 23.9697 94.9924 18.0441 94.9924 10.7344C94.9924 3.42468 89.0833 -2.50099 81.794 -2.50099ZM68.5955 38.3818C68.5955 31.0721 74.5047 25.1465 81.794 25.1465C89.0833 25.1465 94.9924 31.0721 94.9924 38.3818C94.9924 45.6915 89.0833 51.6172 81.794 51.6172C74.5047 51.6172 68.5955 45.6915 68.5955 38.3818Z" fill="#E8E0FF"/>
</g>
</svg>
